<svg width="421" height="456" viewBox="0 0 421 456" fill="none" xmlns="http://www.w3.org/2000/svg">
<path opacity="0.2" fill-rule="evenodd" clip-rule="evenodd" d="M-20.0203 174.996L27.1081 179.709V85.452H21.4527L-20.0203 174.996ZM-38.8716 217.411C-36.6328 219.088 -34.7653 221.209 -33.3864 223.642C-32.0076 226.076 -31.1473 228.768 -30.8598 231.55C-30.1015 234.487 -30.1015 237.568 -30.8598 240.504L12.4983 283.862C16.7968 281.165 21.6134 279.399 26.6369 278.678V194.319L-25.6757 187.249L-38.8716 217.411ZM0.716248 73.6699L-96.8395 154.731C-94.601 158.788 -93.3118 163.299 -93.0692 167.927L-30.8598 174.053L11.5558 79.7966L0.716248 73.6699ZM-187.797 303.185L-178.372 289.518C-180.976 287.03 -183.034 284.028 -184.413 280.701C-185.793 277.374 -186.464 273.796 -186.383 270.195C-186.447 266.526 -185.772 262.882 -184.397 259.479C-183.022 256.077 -180.976 252.986 -178.382 250.391C-175.787 247.797 -172.696 245.751 -169.294 244.376C-165.891 243.001 -162.247 242.326 -158.578 242.39C-153.852 242.406 -149.209 243.626 -145.086 245.934C-140.963 248.243 -137.496 251.565 -135.014 255.585L-73.2753 231.55C-73.2272 228.418 -72.4185 225.345 -70.9189 222.596L-108.15 197.618C-113.274 200.697 -119.139 202.326 -125.117 202.33C-130.092 202.441 -135.024 201.391 -139.524 199.264C-144.023 197.137 -147.965 193.992 -151.037 190.077L-273.571 231.55C-273.321 234.215 -273.321 236.897 -273.571 239.562C-273.663 244.827 -274.456 250.057 -275.927 255.114L-187.797 303.185ZM-223.615 354.555L-195.338 313.553L-281.583 266.425C-283.374 268.845 -285.429 271.058 -287.709 273.023L-223.615 354.555ZM-263.674 411.58L-231.155 364.452L-298.549 278.678H-302.319L-270.743 406.868C-268.087 407.934 -265.68 409.538 -263.674 411.58ZM-223.144 375.763L-253.306 420.063L-249.535 424.776L-212.775 412.994C-212.978 411.746 -212.978 410.473 -212.775 409.224C-212.823 404.405 -211.153 399.726 -208.062 396.028L-223.144 375.763ZM-184.027 319.68L-215.603 366.808L-197.223 389.901H-193.453C-189.646 389.918 -185.917 390.982 -182.675 392.977C-179.433 394.972 -176.803 397.821 -175.073 401.212L-116.633 381.889V376.234C-116.613 370.222 -115.328 364.281 -112.863 358.797L-184.027 319.68ZM290.556 514.32L356.536 602.922L363.133 600.094L340.983 475.675C334.553 475.373 328.342 473.248 323.074 469.548L290.556 514.32ZM268.405 484.629L282.544 503.952L314.12 460.594L311.292 455.41L272.647 470.962C272.682 475.556 271.19 480.032 268.405 483.687V484.629ZM331.086 248.987L230.703 262.655L250.025 306.484L333.443 259.356C332.252 255.36 331.462 251.255 331.086 247.102V248.987ZM239.186 311.197L217.978 264.069L191.115 267.839C189.947 271.881 187.55 275.459 184.256 278.077C180.963 280.695 176.936 282.223 172.735 282.449L157.654 342.302C162.669 344.463 167.049 347.869 170.378 352.199L239.186 311.197ZM275.003 514.32L258.037 491.227H252.853C249.462 491.201 246.132 490.324 243.168 488.678C240.204 487.031 237.7 484.667 235.887 481.802L175.091 497.825V501.124C175.848 505.49 175.848 509.954 175.091 514.32L246.726 555.793L275.003 514.32ZM346.167 608.577L283.015 523.275L255.209 561.449L343.34 611.876L346.167 608.577ZM213.265 184.422C210.739 188.671 207.371 192.36 203.368 195.261L225.519 247.102L330.615 232.964C330.395 230.14 330.395 227.304 330.615 224.481L213.265 184.422ZM267.463 331.933C271.132 331.87 274.776 332.545 278.179 333.92C281.581 335.295 284.672 337.341 287.267 339.935C289.862 342.53 291.907 345.621 293.282 349.023C294.657 352.426 295.332 356.07 295.269 359.739C295.188 366.692 292.547 373.372 287.853 378.501C283.158 383.63 276.738 386.85 269.819 387.545L259.922 451.168C263.182 452.037 266.024 454.043 267.934 456.824L308.465 440.8C308.577 432.247 311.962 424.062 317.922 417.926C323.882 411.791 331.966 408.171 340.512 407.81L361.248 281.035C352.96 278.228 345.616 273.169 340.041 266.425L255.209 313.553L262.75 330.991L267.463 331.933ZM186.402 202.33L182.161 244.275C184.054 245.236 185.737 246.565 187.113 248.183C188.488 249.801 189.528 251.677 190.172 253.7L212.794 250.401L191.586 203.273L186.402 202.33ZM63.397 64.2442L162.367 143.42C168.813 138.863 176.646 136.697 184.517 137.293C193.266 137.293 201.657 140.769 207.844 146.956C214.031 153.143 217.507 161.534 217.507 170.283C217.714 171.847 217.714 173.432 217.507 174.996L338.627 215.526C342.658 209.641 348.079 204.842 354.409 201.554C360.739 198.265 367.783 196.59 374.916 196.675C386.54 196.675 397.688 201.293 405.908 209.512C414.127 217.732 418.745 228.88 418.745 240.504C418.745 252.129 414.127 263.277 405.908 271.496C397.688 279.716 386.54 284.334 374.916 284.334L354.65 411.58C360.925 413.946 366.33 418.167 370.145 423.682C373.959 429.197 376.003 435.744 376.003 442.449C376.003 449.155 373.959 455.702 370.145 461.217C366.33 466.732 360.925 470.953 354.65 473.319L376.801 598.209C384.596 598.211 392.25 600.292 398.973 604.237C405.696 608.183 411.246 613.85 415.049 620.655C418.852 627.46 420.771 635.156 420.609 642.95C420.447 650.743 418.209 658.353 414.127 664.994C410.044 671.634 404.264 677.066 397.382 680.729C390.501 684.391 382.767 686.152 374.978 685.83C367.189 685.508 359.628 683.114 353.072 678.896C346.516 674.678 341.205 668.787 337.684 661.832L213.737 700.477C214.183 703.761 214.183 707.09 213.737 710.374C213.613 719.167 210.033 727.557 203.771 733.731C197.509 739.904 189.069 743.365 180.275 743.364C175.962 743.328 171.699 742.435 167.734 740.736C163.77 739.037 160.183 736.566 157.182 733.467L62.9257 815.471C66.9176 822.514 69.0276 830.467 69.0524 838.563C69.0524 850.188 64.4347 861.336 56.2151 869.556C47.9955 877.775 36.8473 882.393 25.223 882.393C13.5987 882.393 2.45053 877.775 -5.76907 869.556C-13.9887 861.336 -18.6064 850.188 -18.6064 838.563C-18.7096 829.444 -15.9031 820.53 -10.5946 813.114L-104.851 735.824C-110.653 740.712 -118.001 743.384 -125.588 743.364C-134.299 743.242 -142.62 739.727 -148.78 733.567C-154.941 727.406 -158.456 719.086 -158.578 710.374C-158.811 708.654 -158.811 706.91 -158.578 705.19L-282.997 660.418C-287.068 666.946 -292.676 672.377 -299.33 676.238C-305.985 680.099 -313.483 682.273 -321.171 682.569C-332.795 682.569 -343.943 677.951 -352.163 669.731C-360.382 661.512 -365 650.363 -365 638.739C-365 627.115 -360.382 615.967 -352.163 607.747C-343.943 599.527 -332.795 594.91 -321.171 594.91H-313.63L-293.836 470.962C-299.599 467.601 -304.208 462.572 -307.054 456.538C-309.9 450.504 -310.85 443.749 -309.778 437.164C-308.706 430.579 -305.663 424.473 -301.05 419.654C-296.437 414.834 -290.471 411.526 -283.939 410.167L-313.63 283.391C-325.254 283.391 -336.403 278.773 -344.622 270.554C-352.842 262.334 -357.459 251.186 -357.459 239.562C-357.459 227.938 -352.842 216.789 -344.622 208.57C-336.403 200.35 -325.254 195.732 -313.63 195.732C-305.563 195.632 -297.629 197.785 -290.718 201.947C-283.808 206.11 -278.196 212.119 -274.514 219.297L-158.106 178.295C-158.599 175.33 -158.599 172.305 -158.106 169.341C-158.245 162.949 -156.497 156.659 -153.081 151.256C-149.664 145.852 -144.731 141.576 -138.897 138.961C-133.064 136.346 -126.589 135.509 -120.282 136.553C-113.975 137.598 -108.116 140.478 -103.437 144.834L-7.76688 63.773C-12.7116 56.7367 -15.3467 48.3373 -15.3074 39.7375C-14.1786 28.8366 -9.04919 18.741 -0.910522 11.4016C7.22815 4.06218 17.7984 0 28.7576 0C39.7169 0 50.2871 4.06218 58.4258 11.4016C66.5645 18.741 71.6938 28.8366 72.8226 39.7375C72.2294 48.6712 68.9431 57.2155 63.397 64.2442ZM167.551 241.447L171.792 200.917C165.331 198.524 159.751 194.222 155.794 188.582C151.838 182.941 149.692 176.23 149.642 169.341C150.649 163.179 153.433 157.446 157.654 152.846L56.799 73.6699C51.1291 78.4737 44.3082 81.7217 37.0051 83.0956V181.123H58.2129C60.3059 174.791 64.6046 169.423 70.3254 165.996C76.0462 162.569 82.8079 161.313 89.3778 162.455C95.9477 163.598 101.888 167.064 106.116 172.22C110.344 177.377 112.578 183.882 112.41 190.548C112.43 194.646 111.46 198.688 109.583 202.33L160.01 242.39C163.016 241.257 166.266 240.932 169.436 241.447H167.551ZM-167.532 626.957L-272.157 639.21C-271.708 642.02 -271.708 644.884 -272.157 647.694L-147.738 692.466C-145.915 689.233 -143.52 686.359 -140.669 683.982L-167.532 626.957ZM-128.416 622.244L-154.336 625.072L-130.772 677.856H-126.059L-119.932 630.727C-123.629 628.928 -126.616 625.941 -128.416 622.244ZM-191.568 575.116L-274.985 622.716V626.486L-172.245 614.704L-191.568 575.116ZM-110.507 595.381L-99.6672 535.057C-103.153 532.279 -106.315 529.117 -109.093 525.631L-180.257 568.518L-159.52 615.646L-130.772 608.577C-129.898 603.959 -127.445 599.788 -123.834 596.779C-120.223 593.77 -115.678 592.109 -110.978 592.082L-110.507 595.381ZM-214.189 488.871L-203.821 424.776H-206.649L-244.823 437.501C-244.608 439.538 -244.608 441.591 -244.823 443.628C-244.76 447.999 -245.567 452.34 -247.197 456.397C-248.827 460.454 -251.247 464.147 -254.317 467.26C-257.387 470.374 -261.044 472.846 -265.078 474.533C-269.112 476.221 -273.44 477.089 -277.812 477.089H-281.583L-301.377 599.151C-293.375 602.241 -286.368 607.455 -281.111 614.232L-196.752 561.449L-205.235 541.655H-210.419C-214.048 541.717 -217.653 541.056 -221.024 539.711C-224.395 538.365 -227.464 536.362 -230.053 533.817C-232.641 531.273 -234.697 528.238 -236.1 524.891C-237.503 521.543 -238.225 517.95 -238.225 514.32C-238.287 507.555 -235.881 500.999 -231.456 495.88C-227.032 490.761 -220.893 487.432 -214.189 486.514V488.871ZM21.4527 796.148V697.178H2.13007C0.0453491 703.465 -4.21521 708.802 -9.88464 712.227C-15.5541 715.652 -22.26 716.94 -28.7951 715.861C-35.3302 714.781 -41.2652 711.404 -45.5317 706.337C-49.7982 701.271 -52.1159 694.847 -52.0675 688.224C-52.0573 683.413 -50.7552 678.693 -48.2973 674.557L-100.138 634.026C-102.233 635.523 -104.658 636.493 -107.208 636.854L-113.334 683.982C-106.104 685.68 -99.6587 689.767 -95.0402 695.583C-90.4217 701.399 -87.9007 708.603 -87.8851 716.03C-87.8979 721.589 -89.1878 727.071 -91.6554 732.053L2.60138 809.344C7.66718 802.461 14.5092 797.085 22.3953 793.792L21.4527 796.148ZM89.3176 691.523L100.157 666.545C97.8059 664.692 95.9058 662.329 94.5996 659.635C93.2935 656.941 92.6155 653.986 92.6166 650.992C92.1296 648.344 92.1296 645.629 92.6166 642.981L45.4882 595.852C41.1142 598.919 36.1315 601.009 30.8784 601.979V687.753L89.3176 691.523ZM44.0743 797.091L85.076 702.834L34.1774 697.65V795.677C37.5316 795.603 40.875 796.08 44.0743 797.091ZM98.272 702.834L54.9138 802.746L149.171 720.271C147.297 716.292 146.331 711.945 146.343 707.547L98.272 702.834ZM26.1656 522.803C31.1573 522.864 36.0872 523.916 40.6693 525.897C45.2514 527.878 49.3945 530.75 52.858 534.345C56.3216 537.94 59.0367 542.187 60.8459 546.84C62.655 551.492 63.5222 556.458 63.397 561.449C63.3702 569.383 60.9021 577.116 56.3277 583.599L103.456 630.727C106.418 628.861 109.852 627.88 113.353 627.9C116.294 627.935 119.195 628.582 121.873 629.799C124.55 631.016 126.945 632.777 128.905 634.969L187.816 610.933C187.587 609.529 187.587 608.096 187.816 606.692C187.816 599.317 190.745 592.245 195.96 587.03C201.175 581.816 208.247 578.886 215.622 578.886C219.218 578.395 222.865 578.395 226.461 578.886L237.301 563.805L167.079 522.803C161.91 528.989 154.873 533.33 147.026 535.173C139.178 537.017 130.944 536.264 123.562 533.027C116.179 529.791 110.046 524.245 106.085 517.225C102.123 510.204 100.548 502.087 101.594 494.095C102.641 486.102 106.253 478.664 111.889 472.9C117.524 467.137 124.878 463.357 132.846 462.131C140.813 460.904 148.963 462.297 156.071 466.099C163.179 469.901 168.861 475.908 172.264 483.216L233.53 467.192C233.778 463.175 235.273 459.335 237.808 456.209C240.342 453.083 243.79 450.827 247.669 449.754L257.566 384.717C253.199 382.784 249.404 379.759 246.546 375.934C243.688 372.108 241.864 367.611 241.248 362.876C240.632 358.141 241.247 353.327 243.032 348.898C244.817 344.469 247.712 340.574 251.439 337.589L244.37 321.565L176.034 361.624C176.746 365.994 176.746 370.45 176.034 374.82C176.034 382.277 173.823 389.567 169.68 395.767C165.537 401.967 159.649 406.799 152.759 409.653C145.87 412.507 138.289 413.253 130.976 411.798C123.662 410.344 116.944 406.753 111.671 401.48C106.398 396.207 102.808 389.489 101.353 382.176C99.8981 374.862 100.645 367.281 103.498 360.392C106.352 353.503 111.184 347.614 117.385 343.472C123.585 339.329 130.874 337.118 138.331 337.118H142.101L160.481 278.678C157.884 276.776 155.765 274.295 154.293 271.432C152.82 268.569 152.035 265.403 151.998 262.183C151.541 259.849 151.541 257.448 151.998 255.114L102.514 214.112C97.6887 217.915 91.6886 219.915 85.5473 219.768C78.8347 219.817 72.3388 217.394 67.2977 212.962C62.2566 208.529 59.0229 202.396 58.2129 195.732H38.4189L39.3615 278.678C46.1981 280.444 52.4016 284.093 57.2656 289.212C62.1295 294.33 65.4584 300.711 66.8733 307.629C68.2881 314.547 67.7319 321.723 65.2681 328.34C62.8043 334.957 58.5319 340.749 52.9374 345.057C47.3429 349.364 40.6511 352.015 33.6241 352.706C26.5972 353.396 19.5174 352.1 13.1911 348.964C6.86475 345.828 1.54611 340.979 -2.15915 334.969C-5.86441 328.958 -7.80743 322.028 -7.76688 314.967C-7.97583 306.998 -5.48456 299.192 -0.697632 292.817L-44.0557 249.459C-46.8403 250.157 -49.7542 250.157 -52.5388 249.459C-55.5386 249.495 -58.5057 248.833 -61.2051 247.524C-63.9046 246.216 -66.2622 244.296 -68.0912 241.918L-130.772 265.954V268.31C-130.771 275.604 -133.636 282.606 -138.749 287.807C-143.862 293.008 -150.814 295.992 -158.106 296.116C-161.071 296.608 -164.096 296.608 -167.061 296.116L-176.486 308.841L-104.38 348.428C-100.879 345.08 -96.7349 342.476 -92.1986 340.775C-87.6622 339.074 -82.8279 338.31 -77.9882 338.531C-67.9888 338.531 -58.399 342.504 -51.3283 349.574C-44.2577 356.645 -40.2855 366.235 -40.2855 376.234C-40.2855 386.233 -44.2577 395.823 -51.3283 402.894C-58.399 409.965 -67.9888 413.937 -77.9882 413.937C-85.221 413.835 -92.2801 411.704 -98.3621 407.788C-104.444 403.873 -109.305 398.328 -112.392 391.786L-172.245 411.58C-173.168 415.712 -175.334 419.462 -178.451 422.326C-181.569 425.191 -185.488 427.032 -189.682 427.604L-200.051 487.928C-194.668 489.795 -190.003 493.296 -186.707 497.944C-183.412 502.591 -181.651 508.152 -181.671 513.849C-181.577 518.138 -182.513 522.388 -184.398 526.241C-186.284 530.095 -189.066 533.441 -192.51 535.999L-184.027 554.379L-113.334 511.964C-113.826 508.367 -113.826 504.721 -113.334 501.124C-113.334 493.667 -111.123 486.378 -106.98 480.178C-102.838 473.978 -96.9492 469.145 -90.0599 466.292C-83.1707 463.438 -75.5899 462.691 -68.2763 464.146C-60.9627 465.601 -54.2447 469.192 -48.9719 474.464C-43.6991 479.737 -40.1082 486.455 -38.6535 493.769C-37.1987 501.082 -37.9454 508.663 -40.799 515.552C-43.6526 522.442 -48.485 528.33 -54.6852 532.473C-60.8854 536.616 -68.1748 538.827 -75.6317 538.827C-78.5962 539.319 -81.6216 539.319 -84.5861 538.827L-95.4257 598.209C-93.2334 600.169 -91.4728 602.564 -90.2558 605.242C-89.0388 607.919 -88.3919 610.82 -88.3564 613.761C-87.8694 615.933 -87.8694 618.187 -88.3564 620.359L-36.0439 661.832C-31.3886 658.868 -26.0092 657.238 -20.4915 657.119C-13.726 657.057 -7.1698 659.463 -2.05124 663.888C3.06735 668.312 6.39709 674.451 7.31421 681.155H24.7517V597.737C15.4099 596.248 6.96939 591.301 1.1048 583.879C-4.7598 576.456 -7.61987 567.101 -6.90796 557.668C-6.19604 548.235 -1.96414 539.414 4.94806 532.956C11.8603 526.498 20.9476 522.874 30.4071 522.803H26.1656ZM157.654 688.695L125.135 665.131C121.99 667.407 118.175 668.568 114.296 668.43L104.87 690.58L151.998 695.293C153.57 692.844 155.474 690.623 157.654 688.695ZM133.147 655.705L168.022 680.212C174.68 676.733 182.327 675.631 189.697 677.088C197.067 678.545 203.718 682.473 208.552 688.224L334.856 648.636C334.628 646.128 334.628 643.604 334.856 641.096C334.877 635.083 336.161 629.142 338.627 623.658L250.025 572.288L237.772 588.783C242.219 593.886 244.722 600.395 244.841 607.163C244.811 613.041 242.918 618.758 239.435 623.494C235.952 628.229 231.059 631.739 225.456 633.519C219.854 635.299 213.832 635.258 208.255 633.402C202.677 631.545 197.832 627.969 194.414 623.187L135.503 647.222C135.113 650.277 133.98 653.19 132.204 655.705H133.147ZM-53.0101 211.285H-50.1824L-38.8716 184.422L-94.9544 180.18C-95.8956 183.075 -97.3306 185.786 -99.1959 188.192L-61.9645 213.17C-59.1737 211.834 -56.1028 211.187 -53.0101 211.285Z" fill="#2E5C99"/>
</svg>
