<?xml version="1.0" encoding="UTF-8"?>
<svg width="123px" height="46px" viewBox="0 0 123 46" version="1.1" xmlns="http://www.w3.org/2000/svg" xmlns:xlink="http://www.w3.org/1999/xlink">
    <title>egov</title>
    <defs>
        <polygon id="path-1" points="0 0 21.0535295 0 21.0535295 22.8154267 0 22.8154267"></polygon>
        <polygon id="path-3" points="0 0 46.216546 0 46.216546 46 0 46"></polygon>
    </defs>
    <g id="Page-1" stroke="none" stroke-width="1" fill="none" fill-rule="evenodd">
        <g id="Diger-saytlar" transform="translate(-472.000000, -1779.000000)">
            <g id="egov" transform="translate(472.000000, 1779.000000)">
                <path d="M73.7836744,12.2475319 L73.7836744,31.2530376 C73.7836744,37.6935548 69.6369649,41.821526 63.2569096,41.821526 C59.7022763,41.821526 56.1933547,40.5058939 53.732484,38.1926798 C53.4138078,37.8752978 53.2766725,37.6033514 53.2766725,37.2853012 C53.2766725,36.6959729 53.7781958,36.1968478 54.3704895,36.1968478 C54.6435085,36.1968478 54.8720672,36.333155 55.1000818,36.5142299 C57.4700188,38.6009334 60.2491848,39.6893868 63.2111979,39.6893868 C68.360845,39.6893868 71.5051609,36.5142299 71.5051609,31.3439091 L71.5051609,28.4406985 C69.8649795,31.2076019 66.4921049,33.1125624 62.57341,33.1125624 C56.4219135,33.1125624 51.6813322,28.2589555 51.6813322,21.9540775 C51.6813322,15.6491994 56.4219135,10.7962607 62.57341,10.7962607 C66.5378166,10.7962607 69.8649795,12.7012212 71.5051609,15.5128921 L71.5051609,12.2475319 C71.5051609,11.6120996 72.0069019,11.1136427 72.6446897,11.1136427 C73.2830218,11.1136427 73.7836744,11.6120996 73.7836744,12.2475319 Z M71.5051609,21.9540775 C71.5051609,16.6020137 68.0414069,12.9731675 62.8923039,12.9731675 C57.8340803,12.9731675 54.0518133,16.8285243 54.0518133,21.9995132 C54.0518133,27.1250664 57.8340803,30.9804231 62.8923039,30.9804231 C68.0414069,30.9804231 71.5051609,27.3515769 71.5051609,21.9540775 Z" id="Shape" fill="#798498"></path>
                <path d="M101.080668,22.2263579 C101.080668,28.6214392 96.0224444,33.6561209 89.6423891,33.6561209 C83.3080456,33.6561209 78.2944453,28.6214392 78.2944453,22.2263579 C78.2944453,15.7851725 83.3080456,10.8413624 89.6870125,10.8413624 C96.0224444,10.8413624 101.080668,15.8306083 101.080668,22.2263579 Z M80.6643823,22.2717936 C80.6643823,27.5329858 84.5379095,31.525318 89.6423891,31.525318 C94.7463245,31.525318 98.7107311,27.4882183 98.7107311,22.2717936 C98.7107311,16.9644974 94.7463245,12.9728334 89.6870125,12.9728334 C84.5379095,12.9728334 80.6643823,16.9644974 80.6643823,22.2717936 Z" id="Shape" fill="#798498"></path>
                <g id="Clipped" transform="translate(101.946471, 10.841529)">
                    <mask id="mask-2" fill="white">
                        <use xlink:href="#path-1"></use>
                    </mask>
                    <g id="Path"></g>
                    <path d="M21.0535295,1.13388916 C21.0535295,1.31496397 21.0083619,1.49603879 20.9169384,1.6330142 L11.57487,22.0897911 C11.3468554,22.5434804 10.9827939,22.8154267 10.5267647,22.8154267 C10.0250238,22.8154267 9.66096228,22.5434804 9.43349187,22.0897911 L0.136591085,1.67778178 C0.04516757,1.49603879 0,1.31496397 0,1.13388916 C0,0.499125045 0.54636434,0 1.13898463,0 C1.6401814,0 2.05049884,0.317382057 2.27851344,0.771071354 L10.5267647,19.1865805 L18.775016,0.771071354 C19.0030306,0.317382057 19.3676363,0 19.9145449,0 C20.5071651,0 21.0535295,0.499125045 21.0535295,1.13388916 Z" id="Path" fill="#798498" mask="url(#mask-2)"></path>
                </g>
                <g id="Clipped">
                    <mask id="mask-4" fill="white">
                        <use xlink:href="#path-3"></use>
                    </mask>
                    <g id="Path"></g>
                    <path d="M40.1218626,31.7732658 C40.6756279,30.7155483 41.1301334,29.6023725 41.4755837,28.4464337 C41.9875554,26.730566 42.263785,24.9031136 42.263785,22.9994894 C42.263785,17.7349563 40.1199036,12.9682119 36.6529933,9.51843599 C33.187389,6.0679919 28.3981029,3.93385927 23.1079465,3.93385927 C17.8190961,3.93385927 13.029157,6.0679919 9.5635527,9.51843599 C6.09729543,12.9682119 3.95276098,17.7349563 3.95276098,22.9994894 C3.95276098,28.2653589 6.09729543,33.0314351 9.5635527,36.481211 C13.029157,39.9309869 17.8190961,42.0651307 23.1079465,42.0651307 C24.6908793,42.0651307 26.2104688,41.8813832 27.647777,41.5339333 C28.5038929,41.3267998 29.3404181,41.0601989 30.1514753,40.7408123 C29.9457724,40.0632851 29.8354111,39.3443312 29.8354111,38.5993186 C29.8354111,36.5580509 30.6667121,34.709885 32.0112908,33.371535 C33.3558695,32.0338532 35.2130729,31.205319 37.2635717,31.205319 C38.2764137,31.205319 39.2428908,31.4077753 40.1218626,31.7732658 Z M40.3014445,38.7717072 L34.5306617,34.8749237 C34.4660122,34.8308243 34.3869961,34.8161245 34.3138573,34.8341652 L34.3086331,34.8355015 L34.2988377,34.8381742 L34.2942666,34.8388424 C34.2681456,34.8481968 34.2426776,34.8608921 34.2198217,34.8769282 C34.1297042,34.9424091 34.0892167,35.0553303 34.1166437,35.1615698 L34.1186028,35.1675834 L36.0319664,41.91546 L36.0339255,41.9214735 C36.0678828,42.031722 36.1645305,42.1078937 36.2801159,42.1132391 L36.3650092,42.1032165 C36.4459843,42.0804986 36.5138989,42.0203631 36.5458971,41.9395142 L37.2635717,40.0559352 L38.7211238,42.1225935 C38.908542,42.3891945 39.2748891,42.4526709 39.5419763,42.2655825 C39.8077575,42.081835 39.8743661,41.71434 39.6862949,41.4504117 L38.2561699,39.4205029 L40.1727986,39.2608096 C40.2896901,39.2494507 40.3817666,39.16927 40.4104997,39.0603578 C40.4405389,38.9514457 40.3967862,38.8351836 40.3014445,38.7717072 Z M23.1079465,-0.000339654482 C29.4886548,-0.000339654482 35.2659679,2.5747959 39.4485937,6.73616465 C43.6299135,10.8982127 46.216546,16.6491756 46.216546,22.9994894 C46.216546,25.2672677 45.8815441,27.4668924 45.2585581,29.5535959 C44.7648711,31.205319 44.0935613,32.7761931 43.2668315,34.2435005 C44.163435,35.4655884 44.6923854,36.9709816 44.6923854,38.5993186 C44.6923854,40.6412545 43.8604314,42.4900885 42.5165057,43.8277704 C41.171927,45.1654522 39.3140706,45.9939864 37.2635717,45.9939864 C35.3567384,45.9939864 33.6164265,45.2777053 32.3005809,44.101053 C31.1107692,44.6155461 29.8647973,45.033154 28.5744196,45.3451907 C26.8034156,45.7734894 24.9729862,46 23.1079465,46 C16.7278912,46 10.950578,43.4255304 6.76860524,39.2628142 C2.58663245,35.1014343 0,29.3511396 0,22.9994894 C0,16.6491756 2.58663245,10.8988809 6.76860524,6.73616465 C10.950578,2.5747959 16.7278912,-0.000339654482 23.1079465,-0.000339654482 Z" id="Shape" fill="#8791A4" mask="url(#mask-4)"></path>
                </g>
                <path d="M29.9384803,29.7984812 C29.6309054,29.7984812 29.3670833,29.8860119 29.1039142,30.1045043 C27.4778817,31.5477575 25.5018277,32.2907656 23.0862878,32.2907656 C20.5381838,32.2907656 18.3420604,31.3720281 16.4972645,29.5799887 C15.1357071,28.2249344 14.2129826,26.4756581 13.8179024,24.3334963 L33.8037359,24.3334963 C34.5063909,24.3334963 35.1215405,23.7214501 35.1215405,23.0218732 C35.1215405,19.6990501 33.9356469,16.8573114 31.6069594,14.5400883 C29.2795779,12.2235334 26.4245522,11.0428721 23.0862878,11.0428721 C19.7917761,11.0428721 16.9367504,12.2235334 14.6087159,14.5400883 C12.2800283,16.8573114 11.0941347,19.6990501 11.0941347,23.0218732 C11.0941347,26.3005969 12.2800283,29.1423356 14.6087159,31.4595587 C16.9367504,33.77745 19.7917761,34.9581112 23.0862878,34.9581112 C26.1169773,34.9581112 28.708834,33.9952743 30.9487101,32.0722731 C31.1681265,31.8531124 31.3000376,31.5477575 31.3000376,31.1542037 C31.3000376,30.4105275 30.684888,29.7984812 29.9384803,29.7984812 Z M13.8179024,21.6668189 C14.2129826,19.5239888 15.1357071,17.7747126 16.4972645,16.4203264 C18.3420604,14.6276189 20.5381838,13.7095496 23.0862878,13.7095496 C25.6781445,13.7095496 27.8736149,14.6276189 29.7190638,16.4203264 C31.0806212,17.8194802 32.0026926,19.5674201 32.3984258,21.6668189 L13.8179024,21.6668189 Z" id="Shape" fill="#8791A4"></path>
            </g>
        </g>
    </g>
</svg>