<?xml version="1.0" encoding="utf-8"?>
<!-- Generator: Adobe Illustrator 25.2.0, SVG Export Plug-In . SVG Version: 6.00 Build 0)  -->
<svg version="1.1" id="logo" xmlns="http://www.w3.org/2000/svg" xmlns:xlink="http://www.w3.org/1999/xlink" x="0px" y="0px"
	 viewBox="0 0 1205.5 283.5" style="enable-background:new 0 0 985.5 283.5;" xml:space="preserve">
<style type="text/css">
	.st0{fill: #717a80;}
</style>
<g>
	<path class="st0" d="M263.9,172.4c-4.1-1.7-8.7-0.2-11,3.6l-19.6-7.9v-0.3c0-1.5-0.6-2.9-1.8-3.8c5.2-15.4,4.7-32.1-1.2-47.2
		l22.5-9.5c2.3,3.8,7,5.4,11.2,3.8c4.6-2,6.7-7.4,4.7-12s-7.4-6.7-12-4.7c-3.9,1.7-6.1,5.9-5.3,10.1l-22.4,9.3
		c-4-9.1-9.9-17.3-17.3-23.9c0.2-0.5,0.4-1,0.3-1.5c0.1-2.6-1.9-4.7-4.5-4.8c-1.1,0-2.1,0.3-2.9,0.9c-3.5-2.4-7.2-4.5-11-6.3
		l9.1-22.3c4.3,1,8.6-1.3,10.2-5.4c1.8-4.7-0.5-10-5.2-11.8c-4.5-1.7-9.5,0.3-11.6,4.6c-1.6,4.1-0.1,8.7,3.6,11.1l-9.3,22.2
		c-14.4-5.7-30.4-6.3-45.2-1.8c-1.3-2-3.5-3.3-5.9-3.3h-1.2l-7.2-17.3c3.6-2.4,5.1-7,3.6-11c-1.8-4.7-7.1-7-11.8-5.2
		s-7,7.1-5.2,11.8c0.1,0.2,0.2,0.4,0.2,0.6c1.7,4,6,6.3,10.2,5.3l7.2,17.3c-1.9,1.3-3,3.4-3,5.7c-0.1,0.5,0.1,1,0.3,1.5
		c-13.7,7.3-24.5,19-30.7,33.2l-22.2-9.2c1-4.3-1.3-8.6-5.3-10.2c-4.6-2-10,0.1-12,4.8c-2,4.6,0.1,10,4.8,12c4,1.6,8.6,0.2,11-3.4
		l22.2,9.3c-2.9,7.4-4.5,15.3-4.8,23.2c-1.5,0.5-2.5,2-2.4,3.6c0,1.6,0.9,3,2.4,3.6c0.6,6.8,2.2,13.6,4.5,20l-22.1,9.4
		c-2.3-3.7-6.9-5.3-11-3.8c-4.6,2-6.7,7.3-4.8,12c2,4.6,7.3,6.7,12,4.8l0,0c4-1.6,6.3-5.9,5.3-10.2l22.2-9.3
		c2.4,5.6,5.7,10.8,9.6,15.5c-0.4,0.7-0.6,1.6-0.6,2.4c0,2.6,2,4.8,4.6,4.8c0,0,0.1,0,0.1,0c0.7-0.1,1.4-0.3,2.1-0.6
		c5.9,5.6,12.7,10.1,20.2,13.3l-9.5,22.2c-4.3-1-8.6,1.3-10.2,5.4c-2,4.6,0.1,10,4.8,12s10-0.1,12-4.8c1.7-4.1,0.2-8.7-3.6-11
		l9.2-22.2c8,3.2,16.5,4.8,25.2,4.8c8.6,0,17.1-1.7,25.1-4.8l9.3,22.4c-3.6,2.4-5.1,7-3.6,11c2,4.6,7.3,6.7,12,4.8
		c4.6-2,6.7-7.3,4.8-12l0,0c-1.6-4.1-6-6.4-10.3-5.4l-9.2-22.4c15-6.5,27.2-18,34.5-32.6h0.6c1.4,0.1,2.8-0.6,3.6-1.8l19.4,8.1
		c-1,4.3,1.3,8.6,5.3,10.2c4.6,1.7,9.8-0.3,12-4.8C270.6,179.6,268.5,174.3,263.9,172.4z M140.2,85.8L140.2,85.8l13.2,31.1
		l-13.4,7.5c-0.9-0.9-1.9-1.6-3-2.1L140.2,85.8z M162.4,144.7l-2.4,5.9l-3.5-3.6L162.4,144.7z M153.7,144.7l-11.5-11l19.2,8.1
		L153.7,144.7z M165.2,145.9l6.9,16.5l-9.7-9.1L165.2,145.9z M170.3,165.1c-0.6,1.1-0.9,2.3-0.9,3.6v1.2l-17.1,7.7l8.7-21.2
		L170.3,165.1z M176.5,161.2h-0.8l-6.9-16.7l15.3,6.3l-5.3,10.8c-0.7-0.2-1.4-0.3-2.1-0.2L176.5,161.2z M169.5,141.7l23.6-9.9l0,0
		l-8.4,16.1L169.5,141.7z M194,137.5l-1.8,13.8l-4.5-1.9L194,137.5z M197.9,133.3c0.3,0,0.3,0,0.6-0.3l24.8,30.7l-27.5-11.5
		L197.9,133.3z M191.9,128.9l-23.6,9.9l11.5-28.1h1.5c0.8,0,1.6-0.2,2.4-0.6l9.3,15.3c-0.7,1.1-1.1,2.3-1.2,3.6L191.9,128.9z
		 M176.9,109.4l-11.5,28.1l-8.1-19.2l18.4-9.8C176.1,108.9,176.4,109.1,176.9,109.4L176.9,109.4z M162.3,138.7l-20.6-8.5V129
		c0.1-0.6-0.1-1.2-0.3-1.8l13.2-7.2L162.3,138.7z M134.7,136h0.3l4.2,14.7l-11.5,4.8l6.6-19.4H134.7z M138.1,135.2
		c0.3,0,0.3-0.3,0.6-0.3l12,11.5l-8.3,3L138.1,135.2z M153,148.6l5.7,5.4l-9,21.6l-6.5-22.7L153,148.6z M170.6,172.8
		c1.3,1.9,3.4,3,5.7,3h1.2l7.7,18.5l-32-13.8L170.6,172.8z M180.5,174.3c1.5-1.1,2.5-2.7,3-4.5h6.5l-2.7,21L180.5,174.3z
		 M183.5,166.6c-0.4-1.5-1.2-2.8-2.4-3.8l5.3-10.8l5.4,2.1l-1.5,12.2L183.5,166.6z M195,155.6l25.4,10.5l-26.8,0.3L195,155.6z
		 M200.7,131.1c0.5-0.7,0.7-1.5,0.6-2.4v-0.3l13.2-5.4l9.9,38L200.7,131.1z M200.1,125.4l-0.9-0.9l7.7-30.2l6.6,25.4L200.1,125.4z
		 M204,91.3L204,91.3l-8.1,32.3h-0.6l-9.3-15.3c1.5-1.4,2.4-3.3,2.4-5.3c0-0.9-0.3-1.5-0.3-2.4L204,91.3z M173.7,105.4l-17.9,9.9
		L143,84.5l0.9-0.9l29.6,17.3c-0.3,0.8-0.4,1.6-0.3,2.4c0.4,0.7,0.7,1.4,0.8,2.2L173.7,105.4z M136.6,85.3L136.6,85.3l-3.1,36.7
		c-2,0.2-3.7,1.3-4.8,3l-13.8-5.7L136.6,85.3z M127.3,127.5v2.1l-26,10.3l12-18.5L127.3,127.5z M100.8,143.7l27.5-10.8
		c0.5,0.9,1.2,1.6,2.1,2.1l-7.2,22.2l-3,1.2l-20-14.1c0.8-0.2,0.8-0.5,0.8-0.5L100.8,143.7z M126.2,159.5l13.8-5.7l6.8,22.4
		l-20.9-14.5L126.2,159.5z M145.3,179.3l-26,5.7c-0.3-0.5-0.7-0.9-1.2-1.2l6.3-19.2L145.3,179.3z M146.2,182.6L146.2,182.6l-2.7,7.2
		l-19.2-2.4L146.2,182.6z M149.2,184c0.9,0,1.7-0.3,2.4-0.9l25.4,11l-30.2-4.1L149.2,184z M190.2,193.3L190.2,193.3l3-23.6l29.9-0.6
		L190.2,193.3z M228.1,162.2l-10.5-40.5l9.6-3.8c5.7,14.2,6.1,30,1.2,44.5L228.1,162.2z M226,114.9l-9.2,3.8l-6.9-26
		C217,98.7,222.5,106.3,226,114.9z M202.5,86.7c0,0.3-0.3,0.9-0.3,1.2v0.9l-15.9,9.3l-1.2-1.2l6.5-16.1
		C195.5,82.4,199.1,84.4,202.5,86.7z M165.2,75.2c8.2,0,16.3,1.6,23.9,4.5l-6.4,16h-1.5c-2.1,0-4.2,0.9-5.7,2.4l-29.6-17.3
		c0.3-0.7,0.4-1.4,0.3-2.1v-1c6.3-1.6,12.7-2.5,19.1-2.6L165.2,75.2z M133.7,83.3c0,0.3,0.3,0.3,0.3,0.6L111.9,118l-7.3-3.1
		c5.9-13.6,16.2-24.8,29.3-31.8L133.7,83.3z M110.5,120.5l-11.2,17.4c0.3-6.9,1.8-13.7,4.5-20L110.5,120.5z M99.3,147.1l18.3,12.8
		l-14.1,5.7C101,159.7,99.6,153.4,99.3,147.1z M120.5,162l1.5,0.9l-6.6,20c-0.5-0.1-1.1,0-1.5,0.3c-3.6-4.5-6.6-9.5-9-14.8
		L120.5,162z M119.9,189.9l22.7,3l-3.8,9.6C131.7,199.5,125.3,195.3,119.9,189.9z M141.4,203.6l4.2-10.4l38.3,4.8
		c0.5,1.7,2,2.9,3.8,3l0.9,2.4C173.5,209.5,156.6,209.6,141.4,203.6z M192.3,202.4l-1-2.4c0.8-0.8,1.2-1.8,1.2-3v-0.9l31.7-23.4
		C217.2,186,205.9,196.4,192.3,202.4z"/>
	<path class="st0" d="M139.9,38.2c0.5,0.7,0.9,1.5,1.2,2.4c0.4,0.7,0.6,1.6,0.6,2.4L160,29.5c3.2-2.4,7.6-2.4,10.8,0L189,42.9
		c0.3-0.9,0.3-1.5,0.6-2.4c0.3-0.8,0.7-1.6,1.2-2.4c1.3-2.3,3.3-4.1,5.7-5.4L178,19c-7.3-6-17.9-6-25.3,0l-18.6,13.8
		C136.5,34,138.5,35.9,139.9,38.2z"/>
	<path class="st0" d="M191,245.3c-0.5-0.7-0.9-1.5-1.2-2.4c-0.4-0.7-0.6-1.6-0.6-2.4L171,253.9c-3.2,2.4-7.6,2.4-10.8,0L142,240.5
		c-0.3,0.9-0.3,1.5-0.6,2.4c-0.3,0.8-0.7,1.6-1.2,2.4c-1.3,2.3-3.3,4.1-5.7,5.4l18.6,13.8c7.4,6.1,18,6.1,25.4,0l18.5-13.8
		C194.4,249.6,192.3,247.7,191,245.3z"/>
	<path class="st0" d="M74.1,86.3l2.7,0.9c0.8,0.2,1.5,0.7,2.1,1.2l3.3-22.4c0.6-3.9,3.6-6.9,7.5-7.5l22.4-3.3
		c-0.3-0.6-0.9-1.5-1.2-2.1s-0.6-1.8-0.9-2.7c-0.6-2.5-0.5-5.2,0.3-7.7l-22.9,3.1c-9.5,0.9-17,8.5-17.9,17.9l-3.3,22.7
		C68.8,85.9,71.5,85.8,74.1,86.3z"/>
	<path class="st0" d="M256.5,196.7l-2.7-0.9c-0.8-0.2-1.5-0.6-2.1-1.2l-3.1,22.4c-0.6,3.9-3.7,7-7.7,7.4l-22.4,3.3
		c0.4,0.7,0.8,1.4,1.2,2.1c0.3,0.9,0.6,1.8,1,2.7c0.6,2.5,0.5,5.2-0.3,7.7L243,237c9.5-1,17-8.5,17.9-17.9l3.3-22.7
		C261.8,197.2,259.1,197.4,256.5,196.7z"/>
	<path class="st0" d="M64.3,165.9c0.8-0.3,1.6-0.5,2.4-0.6l-13.4-18.3c-2.4-3.2-2.4-7.6,0-10.8l13.4-18.3c-0.9-0.3-1.5-0.3-2.4-0.6
		c-0.9-0.3-1.8-0.9-2.4-1.2c-2.3-1.4-4.1-3.3-5.4-5.7l-13.7,18.5c-6.1,7.3-6.1,18,0,25.4L56.5,173c1.3-2.3,3.2-4.2,5.4-5.7
		C62.6,166.7,63.4,166.2,64.3,165.9z"/>
	<path class="st0" d="M287.9,128.9l-13.7-18.5c-1.3,2.3-3.2,4.3-5.4,5.7c-0.7,0.5-1.5,0.9-2.4,1.2c-0.8,0.3-1.6,0.5-2.4,0.6
		l13.4,18.3c2.4,3.2,2.4,7.6,0,10.8l-13.4,18.3c0.9,0.3,1.5,0.3,2.4,0.6c0.9,0.3,1.8,0.9,2.4,1.2c2.3,1.4,4.1,3.3,5.4,5.7l13.7-18.5
		C294.1,146.8,294.1,136.2,287.9,128.9z"/>
	<path class="st0" d="M82.4,217.1l-3.3-22.4c-0.6,0.3-1.5,0.9-2.1,1.2l-2.7,0.9c-2.5,0.6-5.2,0.5-7.7-0.3l3.3,22.7
		c0.9,9.5,8.4,17,17.9,17.9l22.8,3.3c-0.7-2.5-0.8-5.1-0.3-7.7c0.3-1,0.6-1.8,0.9-2.7c0.2-0.8,0.6-1.5,1.2-2.1L90,224.6
		C86,224.3,82.8,221.1,82.4,217.1z"/>
	<path class="st0" d="M248.6,66.1l3.3,22.4c0.6-0.3,1.5-1,2.1-1.2l2.7-0.9c2.5-0.6,5.2-0.5,7.7,0.3l-3.3-22.7
		c-0.9-9.5-8.3-17.1-17.9-18.1l-22.8-3.3c0.7,2.5,0.8,5.1,0.3,7.7c-0.3,1-0.6,1.8-0.9,2.7c-0.2,0.8-0.6,1.5-1.2,2.1l22.4,3.3
		C245,58.9,248.1,62.1,248.6,66.1z"/>
	<g id="YENI">
		<path class="st0" d="M370.1,98.3h-5.9l-2.9-8.3h-12.8l-2.8,8.3h-5.9l12.2-32.5h6.1L370.1,98.3z M359.8,85.6l-4.4-12.9
			c-0.2-0.7-0.3-1.3-0.4-2l0,0c-0.1,0.7-0.2,1.4-0.5,2l-4.4,13L359.8,85.6z"/>
		<path class="st0" d="M397.7,68.2l-17.8,25.5h17.6v4.6h-25.2v-2.6l17.9-25.4h-16.5v-4.4h23.9V68.2z"/>
		<path class="st0" d="M400.6,79.7h24.7c-0.2-2.7-1.4-5.2-3.4-7.1c-2.1-1.8-4.9-2.8-7.7-2.6c-3.3-0.1-6.5,0.9-9.2,2.7v-5
			c3-1.6,6.4-2.5,9.8-2.4c4.4-0.3,8.7,1.4,11.8,4.4c3,3.3,4.5,7.7,4.3,12.2c0.1,4.4-1.4,8.8-4.3,12.2c-2.9,3.2-7.1,5-11.5,4.8
			c-4.2,0.2-8.3-1.6-10.9-4.8C401.5,89.9,400.2,84.8,400.6,79.7z M425.3,84.2h-18.8c-0.1,2.6,0.8,5.2,2.5,7.3
			c1.7,1.8,4.1,2.8,6.6,2.7c2.6,0.1,5-0.9,6.8-2.7C424.1,89.5,425.1,86.9,425.3,84.2z"/>
		<path class="st0" d="M462,98.3h-6.4l-5.1-8.7c-0.4-0.7-0.9-1.4-1.4-2.1c-0.4-0.5-0.9-1-1.4-1.4c-0.5-0.3-1-0.6-1.5-0.8
			c-0.6-0.2-1.2-0.3-1.9-0.2h-2.2v13.2h-5.3V65.8h10.6c1.4,0,2.9,0.2,4.3,0.5c1.2,0.3,2.4,0.9,3.4,1.6c0.9,0.7,1.7,1.7,2.2,2.7
			c0.6,1.2,0.8,2.5,0.8,3.8c0,1.1-0.2,2.1-0.5,3.1c-0.3,1-0.8,1.8-1.5,2.6c-0.6,0.8-1.4,1.4-2.2,1.9c-0.9,0.5-1.9,0.9-3,1.2l0,0
			c0.6,0.3,1.1,0.7,1.5,1.2c0.5,0.4,0.9,0.8,1.3,1.3c0.4,0.4,0.8,0.9,1.2,1.4c0.4,0.5,0.8,1.2,1.2,1.9L462,98.3z M442.3,70.2v10.5
			h4.5c0.8,0,1.6-0.1,2.3-0.4c0.7-0.2,1.3-0.6,1.8-1.1c0.5-0.5,1-1.1,1.2-1.8c0.3-0.7,0.5-1.5,0.5-2.3c0.1-1.4-0.5-2.7-1.5-3.6
			c-1.2-0.9-2.7-1.4-4.2-1.3L442.3,70.2L442.3,70.2z"/>
		<path class="st0" d="M465.8,98.3V65.8h10.3c2.7-0.2,5.4,0.5,7.7,2c1.7,1.2,2.8,3.2,2.8,5.4c0,1.7-0.5,3.4-1.6,4.8
			c-1.1,1.4-2.6,2.4-4.3,2.9l0,0c2,0.1,3.9,1,5.4,2.4c1.4,1.5,2.1,3.4,2,5.4c0,2.6-1.2,5.2-3.3,6.7c-2.4,1.8-5.3,2.7-8.3,2.6H466
			L465.8,98.3z M471.2,70.2v9.2h3.6c1.6,0.1,3.1-0.4,4.4-1.3c1.1-0.9,1.7-2.4,1.6-3.8c0-2.8-1.9-4.1-5.6-4.1L471.2,70.2z
			 M471.2,83.7V94h4.6c1.7,0.1,3.3-0.4,4.6-1.4c1.1-0.9,1.7-2.4,1.6-3.8c0-3.4-2.3-5-7-5H471.2z"/>
		<path class="st0" d="M520.4,98.3h-5.9l-2.9-8.3h-12.8l-2.8,8.3h-5.9l12.2-32.5h6.1L520.4,98.3z M510.3,85.6l-4.5-12.9
			c-0.2-0.7-0.3-1.3-0.4-2l0,0c-0.1,0.7-0.2,1.4-0.5,2l-4.4,13L510.3,85.6z"/>
		<path class="st0" d="M544.1,65.9l-10.7,20.6v11.8h-5.3V86.5l-10.4-20.7h6.1l6.4,13.9c0,0.2,0.3,0.8,0.7,1.8l0,0
			c0.2-0.6,0.4-1.2,0.7-1.8l6.7-13.9L544.1,65.9L544.1,65.9z"/>
		<path class="st0" d="M569.7,96.9c-2.8,1.4-6,2-9.1,1.9c-4.3,0.2-8.5-1.4-11.5-4.4c-2.9-3.2-4.4-7.4-4.2-11.7
			c-0.2-4.7,1.5-9.2,4.8-12.5c3.2-3.2,7.6-5,12.1-4.8c2.6-0.1,5.2,0.4,7.7,1.3V72c-2.2-1.3-4.7-1.9-7.2-1.9
			c-3.2-0.1-6.3,1.1-8.5,3.4c-2.3,2.4-3.4,5.7-3.3,9c-0.2,3.1,0.9,6.2,3.1,8.5c2.1,2.1,5,3.3,8,3.2c2.8,0.1,5.6-0.7,7.9-2.2v4.9
			H569.7z"/>
		<path class="st0" d="M602.5,98.3h-5.9l-3-8.3h-12.8l-2.6,8.3h-5.9l12.2-32.5h6.1L602.5,98.3z M592.3,85.6l-4.5-12.9
			c-0.2-0.7-0.3-1.3-0.4-2l0,0c-0.1,0.7-0.2,1.4-0.5,2l-4.4,13L592.3,85.6z"/>
		<path class="st0" d="M634.5,98.3h-5.9l-15.3-23.9c-0.4-0.6-0.7-1.2-1-1.8l0,0c0.2,1.5,0.3,2.9,0.2,4.4v21.3h-5.3V65.8h6.3l15,23.3
			c0.5,0.6,0.9,1.3,1.2,2l0,0c-0.2-1.5-0.2-2.9-0.2-4.4V65.8h5.1v32.5H634.5z"/>
		<path class="st0" d="M680.4,98.3h-6.2l-5.2-8.7c-0.4-0.7-0.9-1.4-1.4-2.1c-0.4-0.5-0.9-1-1.4-1.4c-0.5-0.3-1-0.6-1.5-0.8
			c-0.6-0.2-1.2-0.3-1.8-0.2h-2.2v13.2h-5.4V65.8H666c1.4,0,2.9,0.2,4.3,0.5c1.2,0.3,2.3,0.9,3.3,1.6c1,0.7,1.7,1.7,2.3,2.7
			c0.6,1.2,0.8,2.5,0.8,3.8c0,1.1-0.2,2.1-0.5,3.1c-0.3,0.9-0.8,1.8-1.5,2.6c-0.6,0.8-1.4,1.4-2.3,1.9c-0.9,0.5-1.9,0.9-3,1.2l0,0
			c0.6,0.3,1.1,0.7,1.5,1.2c0.5,0.4,0.9,0.8,1.3,1.3c0.4,0.4,0.8,0.9,1.2,1.4c0.4,0.5,0.8,1.2,1.3,1.9L680.4,98.3z M660.7,70.2v10.5
			h4.5c0.8,0,1.6-0.1,2.3-0.4c0.7-0.2,1.3-0.6,1.8-1.1c0.5-0.5,1-1.1,1.2-1.8c0.3-0.7,0.5-1.5,0.5-2.3c0.1-1.4-0.5-2.7-1.5-3.6
			c-1.2-0.9-2.7-1.4-4.2-1.3L660.7,70.2L660.7,70.2z"/>
		<path class="st0" d="M702.3,98.3h-18.2V65.8h17.5v4.6h-12.1v9.2h11.2v4.6h-11.2v9.6h12.8L702.3,98.3z"/>
		<path class="st0" d="M706.6,97v-5.6c0.5,0.5,1.1,0.9,1.8,1.2c0.7,0.4,1.4,0.7,2.2,0.9c0.8,0.3,1.5,0.5,2.3,0.6
			c0.7,0.1,1.4,0.1,2.1,0c1.7,0.1,3.5-0.3,5-1.1c1.1-0.8,1.7-2,1.6-3.3c0-0.7-0.2-1.4-0.5-2c-0.4-0.6-0.9-1.1-1.5-1.5
			c-0.7-0.5-1.5-0.9-2.3-1.3l-2.9-1.3c-1.1-0.6-2.1-1.2-3.1-1.8c-0.9-0.5-1.7-1.2-2.5-2c-1.5-1.5-2.3-3.6-2.2-5.7
			c0-1.4,0.3-2.7,1-3.8c0.7-1.1,1.6-2.1,2.7-2.8c1.2-0.7,2.5-1.3,3.8-1.6c1.4-0.3,2.9-0.5,4.4-0.5c2.5-0.1,5,0.2,7.4,1.1v5.3
			c-2.1-1.4-4.6-2.1-7.1-2c-0.8,0-1.6,0.1-2.4,0.2c-0.7,0.1-1.4,0.4-2.1,0.7c-0.6,0.4-1.1,0.8-1.5,1.3c-0.7,1.2-0.7,2.6,0,3.8
			c0.4,0.6,0.8,1.1,1.3,1.5c0.7,0.5,1.4,0.9,2.1,1.3c0.8,0.4,1.8,0.8,2.9,1.3c1.2,0.5,2.2,1.2,3.1,1.8c1,0.6,1.8,1.4,2.6,2.2
			c0.8,0.7,1.4,1.6,1.8,2.6c0.5,1,0.7,2.1,0.7,3.3c0.1,1.4-0.3,2.9-1,4.1c-0.7,1.1-1.6,2.1-2.7,2.8c-1.2,0.7-2.5,1.2-3.8,1.5
			c-1.5,0.3-3.1,0.5-4.6,0.5c-0.5,0-1.2,0-2,0l-2.4-0.3c-0.8-0.1-1.6-0.3-2.4-0.6C707.9,97.6,707.2,97.4,706.6,97z"/>
		<path class="st0" d="M738.7,86.5v11.8h-5.4V65.8h9.9c3.1-0.2,6.2,0.7,8.7,2.6c2.1,1.8,3.3,4.6,3.1,7.4c0.1,2.9-1.1,5.7-3.2,7.7
			c-2.4,2.1-5.5,3.2-8.7,3h-4.4L738.7,86.5z M738.7,70.3v11.8h3.5c1.9,0.1,3.8-0.4,5.3-1.6c1.2-1.2,1.9-2.8,1.8-4.5
			c0-3.8-2.3-5.8-6.7-5.8H738.7z"/>
		<path class="st0" d="M785.4,85.2c0,9.1-4.3,13.7-13,13.7c-8.7,0-12.4-4.4-12.4-13.2V65.9h5.4v18.7c0,6.3,2.5,9.5,7.4,9.5
			c4.9,0,7.1-3,7.1-9.2V65.7h5.4v19.2V85.2z"/>
		<path class="st0" d="M793.1,98.3V65.8h10.3c2.7-0.2,5.4,0.5,7.7,2c1.8,1.2,2.8,3.2,2.8,5.4c0,1.7-0.5,3.5-1.6,4.8
			c-1.1,1.4-2.6,2.4-4.3,2.9l0,0c2,0.1,3.9,1,5.4,2.4c1.4,1.5,2.1,3.4,2,5.4c0,2.7-1.2,5.2-3.3,6.7c-2.4,1.8-5.3,2.7-8.2,2.6h-10.7
			V98.3z M798.4,70.2v9.2h3.5c1.6,0.1,3.2-0.4,4.4-1.3c1.1-1,1.7-2.4,1.6-3.8c0-2.8-1.8-4.1-5.6-4.1L798.4,70.2z M798.4,83.7V94h4.6
			c1.7,0.1,3.3-0.4,4.6-1.4c1.1-0.9,1.7-2.4,1.6-3.8c0-3.4-2.3-5-7-5H798.4z"/>
		<path class="st0" d="M839.1,98.3h-18V65.8h5.4v27.9h12.6V98.3z"/>
		<path class="st0" d="M846.3,62.8c-0.7,0-1.4-0.3-2-0.7c-0.5-0.5-0.8-1.1-0.8-1.8c0-0.7,0.3-1.4,0.8-1.8c0.5-0.5,1.2-0.8,2-0.7
			c0.7,0,1.4,0.2,2,0.7c0.5,0.5,0.8,1.1,0.8,1.8c0,0.7-0.3,1.4-0.8,1.8C847.8,62.6,847,62.8,846.3,62.8z M849.2,98.3h-5.6V65.8h5.6
			V98.3z"/>
		<path class="st0" d="M881.7,98.3h-7l-11.3-14.8c-0.3-0.4-0.5-0.7-0.8-1.1l0,0v16h-5.4V65.9h5.4v15.3l0,0c0.2-0.4,0.5-0.8,0.8-1.1
			l10.9-14.1h6.5L868,81.3L881.7,98.3z"/>
		<path class="st0" d="M912.1,98.3h-5.9l-2.9-8.3h-12.8l-2.8,8.3h-5.9l12.2-32.5h6.1L912.1,98.3z M901.9,85.6l-4.5-12.9
			c-0.2-0.7-0.3-1.3-0.4-2l0,0c-0.1,0.7-0.2,1.4-0.4,2l-4.4,13L901.9,85.6z"/>
		<path class="st0" d="M915.1,97v-5.6c0.5,0.5,1.1,0.9,1.8,1.2c0.7,0.4,1.4,0.7,2.2,0.9c0.8,0.3,1.5,0.5,2.3,0.6
			c0.7,0.1,1.4,0.1,2.1,0c1.7,0.1,3.5-0.3,5-1.1c1.1-0.7,1.7-2,1.7-3.3c0-0.7-0.2-1.4-0.5-2c-0.4-0.6-0.9-1.1-1.5-1.5
			c-0.7-0.5-1.5-0.9-2.3-1.3l-2.9-1.3c-1.2-0.6-2.1-1.2-3.1-1.8c-0.9-0.5-1.7-1.2-2.5-2c-0.7-0.7-1.2-1.5-1.6-2.5
			c-0.4-1-0.6-2.1-0.6-3.3c0-1.4,0.4-2.7,1.1-3.8c0.7-1.1,1.6-2.1,2.7-2.8c1.2-0.7,2.5-1.3,3.8-1.6c1.4-0.3,2.9-0.5,4.3-0.5
			c2.5-0.1,5.1,0.2,7.4,1.1v5.3c-2.1-1.4-4.6-2.1-7.1-2c-0.8,0-1.6,0.1-2.4,0.2c-0.7,0.1-1.4,0.4-2.1,0.7c-0.6,0.3-1.1,0.8-1.5,1.3
			c-0.7,1.2-0.7,2.6,0,3.8c0.3,0.6,0.8,1.1,1.3,1.5c0.7,0.5,1.4,0.9,2.1,1.3l2.9,1.3c1.2,0.6,2.2,1.2,3.2,1.8c1,0.6,1.8,1.4,2.6,2.2
			c0.8,0.8,1.4,1.7,1.8,2.6c0.5,1,0.7,2.1,0.7,3.3c0,1.4-0.3,2.9-1,4.1c-0.7,1.1-1.6,2.1-2.7,2.8c-1.2,0.7-2.5,1.2-3.8,1.5
			c-1.5,0.3-3.1,0.5-4.6,0.5c-0.5,0-1.2,0-2,0l-2.5-0.3c-0.8-0.1-1.6-0.4-2.4-0.6C916.3,97.6,915.7,97.3,915.1,97z"/>
		<path class="st0" d="M947.3,98.3h-5.6V65.8h5.6V98.3z"/>
		<path class="st0" d="M368.5,157.8h-6.3l-5.1-8.7c-0.4-0.7-0.9-1.4-1.4-2c-0.4-0.5-0.9-1-1.4-1.4c-0.5-0.3-1-0.6-1.5-0.8
			c-0.6-0.2-1.2-0.3-1.8-0.3h-2.2v13.2h-5.4v-32.5H354c1.4,0,2.8,0.2,4.2,0.5c1.2,0.3,2.4,0.9,3.4,1.6c0.9,0.7,1.7,1.7,2.3,2.7
			c0.5,1.2,0.8,2.5,0.8,3.8c0,1.1-0.2,2.2-0.5,3.2c-0.3,0.9-0.8,1.8-1.4,2.6c-1.4,1.6-3.2,2.7-5.3,3.1l0,0c0.6,0.3,1.1,0.7,1.5,1.1
			c0.5,0.4,0.9,0.8,1.3,1.3c0.4,0.5,0.8,1,1.2,1.5c0.4,0.5,0.8,1.2,1.3,1.8L368.5,157.8z M348.8,129.8v10.5h4.5
			c0.8,0,1.6-0.1,2.3-0.4c0.7-0.2,1.3-0.6,1.8-1.2c0.5-0.5,1-1.1,1.2-1.8c0.3-0.7,0.5-1.5,0.5-2.3c0.1-1.4-0.5-2.7-1.5-3.6
			c-1.2-1-2.7-1.4-4.2-1.3L348.8,129.8L348.8,129.8z"/>
		<path class="st0" d="M370.2,139.3h24.7c-0.1-2.8-1.3-5.3-3.4-7.2c-2.1-1.8-4.9-2.8-7.7-2.6c-3.3-0.1-6.5,0.9-9.2,2.7v-4.9
			c3-1.7,6.4-2.5,9.8-2.4c4.4-0.3,8.7,1.4,11.8,4.4c3,3.3,4.5,7.7,4.3,12.2c0.1,4.5-1.4,8.8-4.3,12.2c-2.9,3.2-7.1,5-11.5,4.8
			c-4.2,0.2-8.2-1.6-10.9-4.8C371.1,149.4,369.7,144.3,370.2,139.3z M394.8,143.7H376c-0.1,2.7,0.8,5.2,2.5,7.3
			c1.7,1.9,4.1,2.9,6.6,2.7c2.5,0.1,5-0.9,6.8-2.7C393.7,149.1,394.8,146.5,394.8,143.7z"/>
		<path class="st0" d="M419.9,158.3c-2.2,0-4.4-0.4-6.4-1.3c-1.9-0.8-3.5-1.9-4.9-3.4c-1.4-1.5-2.4-3.3-3.1-5.2
			c-0.8-2.1-1.1-4.4-1.1-6.7c0-2.4,0.4-4.8,1.1-7.1c0.7-2,1.8-3.9,3.2-5.4c1.4-1.5,3.1-2.7,5-3.5c2.1-0.8,4.4-1.2,6.6-1.2
			c2.1,0,4.2,0.4,6.2,1.2c3.7,1.6,6.6,4.7,7.9,8.6c0.8,2.1,1.1,4.3,1.1,6.6c0.1,2.9-0.5,5.8-1.6,8.4c-1,2.3-2.6,4.3-4.5,5.8l9.4,6.8
			h-8.2l-5.7-4.4c-0.8,0.2-1.6,0.4-2.4,0.5C421.7,158.3,420.8,158.3,419.9,158.3z M420.2,129.6c-1.3,0-2.6,0.3-3.8,0.8
			c-1.2,0.6-2.3,1.4-3.2,2.5c-0.9,1.1-1.6,2.4-2,3.8c-1,3.2-1,6.6,0,9.9c0.4,1.4,1.1,2.7,2,3.8c0.8,1,1.9,1.9,3.1,2.5
			c1.2,0.6,2.5,0.9,3.8,0.8c1.4,0,2.9-0.2,4.2-0.8c1.2-0.5,2.3-1.3,3.1-2.3c1-1.1,1.6-2.4,2-3.8c0.5-1.6,0.7-3.3,0.7-5
			c0-1.7-0.2-3.5-0.7-5.2c-0.4-1.4-1.1-2.7-1.9-3.8c-0.8-1-1.9-1.8-3.1-2.4C423.1,129.8,421.6,129.6,420.2,129.6z"/>
		<path class="st0" d="M439.4,139.3h24.7c-0.2-2.7-1.4-5.3-3.4-7.2c-2.1-1.8-4.9-2.8-7.7-2.6c-3.3-0.1-6.5,0.9-9.2,2.7v-4.9
			c3-1.7,6.4-2.5,9.8-2.4c4.4-0.3,8.7,1.4,11.8,4.4c3,3.3,4.5,7.7,4.3,12.2c0.1,4.5-1.4,8.8-4.3,12.2c-2.9,3.2-7.1,5-11.5,4.8
			c-4.2,0.2-8.2-1.6-10.9-4.8C440.3,149.4,439,144.3,439.4,139.3z M464.1,143.7h-18.9c-0.1,2.7,0.8,5.2,2.5,7.3
			c1.7,1.8,4,2.8,6.5,2.7c2.6,0.1,5-0.9,6.8-2.7C463,149.1,464,146.5,464.1,143.7z"/>
		<path class="st0" d="M510.7,157.8h-5.2v-21c0-1.7,0-3.8,0.3-6.3l0,0c-0.2,1-0.5,2-0.8,3l-9.7,24.3h-3.8l-9.7-24.1
			c-0.3-0.7-0.5-1.8-0.9-3.2l0,0c0,1.3,0,3.4,0,6.3v21h-5v-32.5h7.7l8.5,21.6c0.5,1.2,0.9,2.5,1.3,3.8l0,0c0.3-1.3,0.8-2.6,1.4-3.8
			l8.7-21.5h7.3L510.7,157.8L510.7,157.8z"/>
		<path class="st0" d="M517,156.5V151c0.5,0.5,1.1,0.9,1.8,1.2c0.7,0.3,1.4,0.7,2.1,0.9c0.8,0.3,1.5,0.5,2.3,0.6
			c0.7,0.1,1.4,0.2,2.1,0.2c1.7,0.1,3.5-0.3,5-1.1c1.2-0.7,1.9-2,1.9-3.4c0-0.7-0.2-1.4-0.5-2c-0.4-0.6-0.9-1.1-1.5-1.5
			c-0.7-0.5-1.5-0.9-2.3-1.3l-2.9-1.3c-1.2-0.6-2.1-1.2-3.1-1.8c-0.9-0.6-1.7-1.2-2.4-2c-0.7-0.7-1.3-1.5-1.6-2.5
			c-0.5-0.9-0.8-1.9-0.9-3c0-1.4,0.4-2.7,1.1-3.8c0.7-1.1,1.6-2.1,2.7-2.8c1.2-0.7,2.5-1.3,3.8-1.6c1.4-0.3,2.9-0.5,4.4-0.5
			c2.5-0.1,5,0.2,7.4,1.1v5.3c-2.1-1.4-4.6-2.1-7.1-2c-0.8,0-1.6,0.1-2.4,0.2c-0.7,0.1-1.5,0.3-2.1,0.7c-0.6,0.3-1.1,0.8-1.5,1.3
			c-0.4,0.6-0.6,1.3-0.6,2c0,0.6,0.1,1.3,0.5,1.8c0.4,0.6,0.8,1.1,1.3,1.5c0.7,0.5,1.4,0.9,2.1,1.3l2.9,1.3c1.1,0.6,2.2,1.2,3.2,1.9
			c1,0.6,1.9,1.3,2.6,2.2c0.8,0.7,1.4,1.7,1.8,2.6c0.5,1,0.7,2.1,0.7,3.2c0,1.5-0.3,2.9-1,4.2c-0.7,1.1-1.6,2.1-2.7,2.8
			c-1.2,0.7-2.5,1.2-3.8,1.5c-1.5,0.3-3.1,0.5-4.6,0.5c-0.5,0-1.2,0-2,0c-0.8,0-1.6,0-2.5-0.3c-0.8-0.1-1.6-0.4-2.4-0.6
			C518.1,157.4,517.5,157,517,156.5z"/>
		<path class="st0" d="M570.7,157.8h-5.9l-3-8.4H549l-2.8,8.2h-5.9l12.2-32.5h6.1L570.7,157.8z M560.4,145.2l-4.5-13
			c-0.2-0.7-0.4-1.3-0.6-2l0,0c-0.1,0.7-0.2,1.4-0.5,2.1l-4.4,13L560.4,145.2z"/>
		<path class="st0" d="M592.9,157.8h-18v-32.5h5.4v27.9h12.6L592.9,157.8L592.9,157.8z"/>
		<path class="st0" d="M613,122.5c-0.7,0-1.4-0.3-2-0.7c-0.5-0.5-0.8-1.2-0.8-1.9c0-0.7,0.3-1.4,0.8-1.8c0.5-0.5,1.3-0.8,2-0.7
			c0.7,0,1.4,0.2,2,0.7c0.5,0.5,0.8,1.1,0.8,1.8c0,0.7-0.3,1.4-0.8,1.9C614.5,122.3,613.8,122.5,613,122.5z M615.9,158h-5.6v-32.7
			h5.6V158z"/>
		<path class="st0" d="M651.4,157.8h-5.9l-15.3-23.9c-0.4-0.6-0.7-1.2-1-1.8l0,0c0.2,1.5,0.2,3,0.2,4.4v21.3h-5.2v-32.5h6.3l15,23.3
			c0.4,0.6,0.8,1.3,1.2,2l0,0c-0.2-1.5-0.2-2.9-0.2-4.4v-20.9h4.8v32.5H651.4z"/>
		<path class="st0" d="M683.9,157.8h-7L665.4,143c-0.3-0.4-0.5-0.8-0.8-1.2l0,0v16h-5.4v-32.5h5.4v15.3l0,0c0.2-0.4,0.5-0.8,0.8-1.1
			l10.9-14.1h6.5l-12.5,15.5L683.9,157.8z"/>
		<path class="st0" d="M690.3,122.5c-0.7,0-1.4-0.3-2-0.7c-0.5-0.5-0.8-1.2-0.8-1.9c0-0.7,0.3-1.4,0.8-1.8c0.5-0.5,1.2-0.8,2-0.7
			c0.7,0,1.4,0.2,2,0.7c0.5,0.5,0.8,1.1,0.8,1.8c0,0.7-0.3,1.4-0.8,1.9C691.8,122.3,691.1,122.6,690.3,122.5z M693.3,158h-5.6v-32.7
			h5.7L693.3,158z"/>
		<path class="st0" d="M699.7,156.5V151c0.5,0.5,1.1,0.9,1.8,1.2c0.7,0.4,1.4,0.7,2.2,0.9c0.7,0.3,1.5,0.5,2.3,0.6
			c0.7,0.1,1.4,0.2,2.1,0.2c1.7,0.1,3.5-0.3,5-1.1c1.1-0.7,1.7-2,1.7-3.3c0-0.7-0.2-1.4-0.5-2c-0.4-0.6-0.9-1.1-1.5-1.5
			c-0.7-0.5-1.5-0.9-2.3-1.3l-2.9-1.3c-1.2-0.6-2.1-1.2-3.1-1.8c-0.9-0.6-1.7-1.2-2.5-2c-0.7-0.7-1.3-1.5-1.6-2.5
			c-0.4-1-0.6-2.1-0.6-3.2c0-1.4,0.4-2.7,1.1-3.8c0.7-1.1,1.6-2.1,2.7-2.8c1.2-0.8,2.5-1.3,3.8-1.6c3.9-0.9,8-0.7,11.8,0.6v5.3
			c-2.1-1.4-4.6-2.1-7.1-2c-0.8,0-1.6,0.1-2.4,0.2c-0.7,0.1-1.5,0.3-2.1,0.7c-0.6,0.3-1.1,0.8-1.5,1.3c-0.4,0.6-0.6,1.3-0.6,2
			c0,0.6,0.1,1.3,0.5,1.8c0.3,0.6,0.8,1.1,1.3,1.5c0.7,0.5,1.4,0.9,2.1,1.3l2.9,1.3c1.1,0.6,2.2,1.2,3.2,1.9c1,0.6,1.9,1.3,2.6,2.2
			c0.8,0.7,1.4,1.6,1.8,2.6c0.5,1,0.7,2.1,0.7,3.2c0,1.5-0.3,2.9-1,4.2c-0.7,1.1-1.6,2.1-2.7,2.8c-1.2,0.7-2.5,1.2-3.8,1.5
			c-1.5,0.3-3.1,0.5-4.6,0.5c-0.5,0-1.2,0-2,0s-1.6,0-2.5-0.3c-0.8-0.1-1.6-0.4-2.4-0.6C700.9,157.3,700.3,156.9,699.7,156.5z
			 M715.1,163.4c0,2.9-2.2,4.4-6.5,4.4c-0.6,0-1.3,0-1.9,0v-2.5c0.7,0,1.2,0,1.6,0c2,0,3-0.6,3-1.9s-0.9-1.6-2.7-1.6
			c-0.3,0-0.6,0-0.8,0v-3.9h3.1v2.1c1.1-0.1,2.2,0.3,3.1,0.9C714.7,161.5,715.1,162.4,715.1,163.4z"/>
		<path class="st0" d="M753.1,157.8h-5.9l-2.9-8.4h-12.8l-2.8,8.2h-5.9l12.2-32.5h6.1L753.1,157.8z M742.9,145.2l-4.5-13
			c-0.2-0.7-0.3-1.4-0.4-2.1l0,0c-0.1,0.7-0.2,1.4-0.5,2.1l-4.4,13H742.9z"/>
		<path class="st0" d="M775.1,129.9H763v9.7h11.2v4.6H763v13.5h-5.4v-32.5h17.6L775.1,129.9L775.1,129.9z"/>
		<path class="st0" d="M819,125.4l-11.5,32.5h-6L790,125.4h5.9l8,24.6c0.3,0.9,0.5,1.8,0.6,2.7l0,0c0.1-0.9,0.3-1.9,0.7-2.8
			l8.2-24.6L819,125.4L819,125.4z"/>
		<path class="st0" d="M821.2,139.3h24.7c-0.1-2.8-1.3-5.3-3.4-7.2c-2.1-1.8-4.9-2.8-7.7-2.6c-3.3-0.1-6.5,0.9-9.2,2.7v-4.9
			c3-1.7,6.4-2.5,9.8-2.4c4.4-0.3,8.7,1.3,11.8,4.4c3,3.3,4.6,7.7,4.3,12.2c0.2,4.5-1.4,8.8-4.3,12.2c-2.9,3.2-7.1,5-11.5,4.8
			c-4.2,0.2-8.3-1.6-10.9-4.8C822,149.3,820.8,144.3,821.2,139.3z M845.8,143.7H827c-0.1,2.6,0.8,5.2,2.5,7.3
			c1.7,1.8,4.1,2.8,6.6,2.7c2.6,0.1,5-0.9,6.8-2.7C844.7,149,845.7,146.4,845.8,143.7z"/>
		<path class="st0" d="M371,217.3h-5.9l-15.3-23.9c-0.4-0.6-0.7-1.2-1-1.8l0,0c0.1,1.5,0.1,2.9,0,4.4v21.3h-5.3v-32.4h6.3l15,23.3
			c0.5,0.6,0.9,1.3,1.2,2l0,0c-0.1-1.4-0.1-2.9,0-4.3v-20.9h5L371,217.3L371,217.3z"/>
		<path class="st0" d="M376.9,198.8h24.7c-0.1-2.8-1.3-5.4-3.4-7.2c-2.1-1.8-4.9-2.8-7.7-2.6c-3.3-0.1-6.5,0.9-9.2,2.7v-4.9
			c3-1.7,6.4-2.5,9.8-2.4c4.4-0.3,8.7,1.3,11.8,4.4c3,3.3,4.5,7.7,4.3,12.2c0.1,4.4-1.4,8.8-4.3,12.2c-2.9,3.2-7.1,5-11.5,4.8
			c-4.2,0.2-8.3-1.6-10.9-4.8C377.7,208.9,376.4,203.8,376.9,198.8z M401.5,203.3h-18.8c0,2.7,0.9,5.2,2.5,7.3
			c1.7,1.8,4.1,2.8,6.6,2.7c2.5,0.1,5-0.9,6.8-2.7C400.4,208.6,401.4,206,401.5,203.3z"/>
		<path class="st0" d="M426.6,217.8c-2.2,0-4.3-0.4-6.4-1.2c-1.9-0.8-3.5-1.9-4.9-3.4c-1.3-1.5-2.4-3.2-3.1-5.1
			c-0.8-2.1-1.1-4.4-1.1-6.7c0-2.4,0.3-4.8,1.1-7.1c0.7-2,1.8-3.8,3.2-5.4c1.4-1.5,3.1-2.7,5-3.5c2.1-0.8,4.4-1.2,6.6-1.2
			c2.1,0,4.2,0.4,6.2,1.2c1.8,0.8,3.5,1.9,4.8,3.4c1.4,1.5,2.4,3.2,3.1,5.1c0.8,2.1,1.1,4.4,1.1,6.6c0.1,2.9-0.5,5.7-1.6,8.4
			c-0.9,2.3-2.4,4.3-4.3,5.8l9.4,6.8h-8.2l-5.8-4.5l-2.4,0.5C428.5,217.8,427.5,217.9,426.6,217.8z M426.9,189.1
			c-2.8-0.1-5.4,1.1-7.2,3.3c-0.9,1.1-1.6,2.4-2.1,3.8c-0.5,1.6-0.7,3.3-0.7,5c0,1.7,0.2,3.3,0.7,4.9c0.4,1.4,1.1,2.7,2,3.8
			c0.8,1,1.9,1.8,3.1,2.4c1.2,0.6,2.5,0.9,3.8,0.9c1.4,0,2.9-0.2,4.2-0.8c1.2-0.5,2.3-1.3,3.2-2.3c0.9-1.1,1.6-2.4,2-3.8
			c0.5-1.6,0.7-3.3,0.7-5c0-1.7-0.2-3.5-0.7-5.1c-0.4-1.4-1-2.7-1.9-3.8c-0.8-1.1-1.9-1.9-3.1-2.4
			C429.6,189.4,428.2,189.1,426.9,189.1z"/>
		<path class="st0" d="M466.2,217.3h-18v-32.4h5.3v27.9h12.6L466.2,217.3L466.2,217.3z"/>
		<path class="st0" d="M473.6,181.9c-0.7,0-1.4-0.3-2-0.7c-0.5-0.5-0.8-1.1-0.8-1.8c0-0.7,0.3-1.4,0.8-1.9c0.5-0.5,1.3-0.8,2-0.7
			c0.7,0,1.4,0.2,2,0.7c0.5,0.5,0.8,1.2,0.8,1.9c0,0.7-0.3,1.4-0.8,1.8C475.1,181.6,474.3,181.9,473.6,181.9z M476.4,217.3H471
			v-32.4h5.6L476.4,217.3z"/>
		<path class="st0" d="M507,184.9l-10.7,20.6v11.8H491v-11.7l-10.4-20.7h6.1l6.4,13.9c0.3,0.6,0.5,1.2,0.7,1.8l0,0
			c0.2-0.6,0.4-1.2,0.7-1.8l6.7-13.9L507,184.9L507,184.9z"/>
		<path class="st0" d="M533.8,184.9l-10.7,20.6v11.8h-5.4v-11.7l-10.4-20.7h6.2l6.3,13.9c0.3,0.6,0.5,1.2,0.7,1.8l0,0
			c0-0.5,0.4-1.1,0.7-1.8l6.7-13.9L533.8,184.9L533.8,184.9z"/>
		<path class="st0" d="M561,217.3h-5.7l-2.9-8.2h-12.8l-2.8,8.2H531l12.2-32.4h6.1L561,217.3z M550.8,204.7l-4.5-13.1
			c-0.2-0.7-0.3-1.4-0.4-2.1l0,0c-0.1,0.7-0.3,1.4-0.5,2.1l-4.4,13L550.8,204.7z"/>
		<path class="st0" d="M583,189.5h-9.3v27.8h-5.4v-27.8h-9.2v-4.6h24v4.6L583,189.5z"/>
		<path class="st0" d="M628.2,217.3h-5.9l-15.3-23.9c-0.4-0.6-0.7-1.2-1-1.8l0,0c0.2,1.5,0.2,2.9,0.2,4.4v21.3H601v-32.4h6.3
			l15,23.3c0.7,1,1,1.6,1.2,2l0,0c-0.2-1.4-0.2-2.9-0.2-4.3v-20.9h5V217.3z"/>
		<path class="st0" d="M662.7,217.3h-5.9l-2.9-8.2h-12.8l-2.8,8.2h-5.9l12.2-32.4h6.1L662.7,217.3z M652.5,204.7l-4.5-13.1
			c-0.2-0.7-0.3-1.4-0.4-2.1l0,0c-0.1,0.7-0.3,1.4-0.5,2.1l-4.4,13L652.5,204.7z"/>
		<path class="st0" d="M690.3,187.2l-17.8,25.5H690v4.6H665v-2.4l17.9-25.4h-16.3v-4.6h24v2.3H690.3z"/>
		<path class="st0" d="M698,181.9c-0.7,0-1.4-0.3-2-0.7c-0.5-0.5-0.8-1.1-0.8-1.8c0-0.7,0.3-1.4,0.8-1.9c0.5-0.5,1.2-0.8,2-0.7
			c0.7,0,1.4,0.2,2,0.7c0.5,0.5,0.8,1.2,0.8,1.9c0,0.7-0.3,1.4-0.8,1.8C699.5,181.6,698.8,181.9,698,181.9z M700.9,217.3h-5.6v-32.4
			h5.7L700.9,217.3z"/>
		<path class="st0" d="M733.9,217.3h-6.3l-5.1-8.6c-0.4-0.7-0.9-1.4-1.4-2.1c-0.4-0.5-0.9-1-1.4-1.4c-0.5-0.3-1-0.6-1.5-0.8
			c-0.6-0.2-1.2-0.3-1.8-0.3h-2.2v13.2h-5.4v-32.4h10.6c1.4,0,2.9,0.2,4.3,0.5c1.2,0.4,2.4,0.9,3.4,1.7c0.9,0.7,1.7,1.6,2.2,2.7
			c0.6,1.2,0.8,2.5,0.8,3.8c0,1.1-0.2,2.2-0.5,3.2c-0.3,0.9-0.8,1.8-1.5,2.6c-0.6,0.8-1.4,1.4-2.2,1.9c-0.9,0.5-1.9,1-3,1.2l0,0
			c0.5,0.3,1.1,0.7,1.5,1.1c0.4,0.4,0.8,0.8,1.2,1.3c0.4,0.5,0.8,0.9,1.2,1.5c0.4,0.5,0.8,1.2,1.3,1.8L733.9,217.3z M714.2,189.3
			v10.5h4.5c0.8,0,1.6-0.1,2.3-0.4c0.7-0.2,1.3-0.6,1.8-1.1c0.5-0.5,1-1.1,1.2-1.8c0.3-0.7,0.5-1.5,0.5-2.3c0.1-1.4-0.4-2.9-1.5-3.8
			c-1.2-0.9-2.7-1.4-4.2-1.3h-4.6L714.2,189.3z"/>
		<path class="st0" d="M755.7,217.3h-18v-32.4h5.5v27.9h12.6v4.6H755.7z"/>
		<path class="st0" d="M763,181.9c-0.7,0-1.4-0.3-2-0.7c-0.5-0.5-0.8-1.1-0.8-1.8c0-0.7,0.3-1.4,0.8-1.9c0.5-0.5,1.3-0.8,2-0.7
			c0.7,0,1.4,0.2,2,0.7c0.5,0.5,0.8,1.2,0.8,1.9c0,0.7-0.3,1.4-0.8,1.8C764.5,181.6,763.8,181.9,763,181.9z M765.9,217.3h-5.6v-32.4
			h5.6V217.3z"/>
		<path class="st0" d="M796.5,184.9l-10.7,20.6v11.8h-5.4v-11.7l-10.4-20.7h6.2l6.3,13.9c0.3,0.6,0.5,1.2,0.7,1.8l0,0
			c0-0.5,0.4-1.1,0.7-1.8l6.7-13.9L796.5,184.9L796.5,184.9z"/>
		<path class="st0" d="M803.3,181.9c-0.7,0-1.4-0.3-2-0.7c-0.5-0.5-0.8-1.1-0.8-1.8c0-0.7,0.3-1.4,0.8-1.9c0.5-0.5,1.2-0.8,2-0.7
			c0.7,0,1.4,0.2,2,0.7c0.5,0.5,0.8,1.2,0.8,1.9c0,0.7-0.3,1.4-0.8,1.8C804.8,181.6,804,181.9,803.3,181.9z M806.2,217.3h-5.4v-32.4
			h5.5L806.2,217.3z"/>
	</g>
</g>
</svg>
