<?xml version="1.0" encoding="UTF-8"?>
<svg width="111px" height="50px" viewBox="0 0 111 50" version="1.1" xmlns="http://www.w3.org/2000/svg" xmlns:xlink="http://www.w3.org/1999/xlink">
    <title>Group 36 Copy</title>
    <defs>
        <filter color-interpolation-filters="auto" id="filter-1">
            <feColorMatrix in="SourceGraphic" type="matrix" values="0 0 0 0 0.423529 0 0 0 0 0.470588 0 0 0 0 0.560784 0 0 0 1.000000 0"></feColorMatrix>
        </filter>
    </defs>
    <g id="Page-1" stroke="none" stroke-width="1" fill="none" fill-rule="evenodd">
        <g id="Diger-saytlar" transform="translate(-341.000000, -1630.000000)">
            <g id="Group-36-Copy" transform="translate(341.000000, 1630.825129)">
                <g id="Group-35" transform="translate(0.000000, -0.000000)">
                    <g id="Group-34" transform="translate(53.770307, 5.000000)" font-family="SFProText-Medium, SF Pro Text" font-size="11.3992314" font-weight="400" line-spacing="13.098847">
                        <g filter="url(#filter-1)" id="Group-32">
                            <g>
                                <text id="Dövlət-Xidmətləri-Po" fill="#14284B">
                                    <tspan x="0" y="11">Dövlət </tspan>
                                    <tspan x="0" y="24.098847">Xidmətləri</tspan>
                                    <tspan x="0" y="37.197694">Portalı</tspan>
                                </text>
                            </g>
                        </g>
                    </g>
                    <g id="Group-106-Copy">
                        <path d="M3.77995559,32.7571583 L3.6170918,32.652497 C3.6170918,32.5780713 3.54316781,32.5030641 3.6170918,32.3396762 L3.9283811,32.5780713 L3.9283811,32.652497 C3.9283811,32.7571583 3.85387958,32.7571583 3.85387958,32.652497 C3.85387958,32.7571583 3.77995559,32.7571583 3.77995559,32.7571583 L3.77995559,32.7571583 Z M19.6216068,49 C20.8067008,49 21.4292794,47.8807063 22.4370713,47.6428927 C22.9851484,47.7766265 23.3114535,47.8807063 23.6966668,48.2696972 C24.6305347,48.7610235 25.7122506,49 26.423769,48.5226285 C26.6605568,48.3435415 26.7344808,48.19469 26.7344808,47.8807063 L26.7344808,47.7766265 C25.9496159,47.4638057 24.9412465,47.1504035 24.3931694,46.7480392 C25.7122506,46.7480392 26.6605568,48.19469 27.9051364,47.7766265 C28.053562,47.7766265 28.2903497,47.6428927 28.2903497,47.4638057 L28.2903497,47.1504035 C27.2825578,46.6579142 26.1858261,46.4201006 25.4009613,46.0316912 C26.423769,46.0316912 27.5199232,46.6579142 28.5277151,46.9864342 C28.9868523,47.1504035 29.5505228,47.299255 29.9357361,47.4638057 C29.4020973,47.7766265 28.5277151,48.19469 27.9051364,48.2696972 L27.9051364,48.3435415 C28.4537911,48.67148 29.1647319,48.67148 29.9357361,48.5226285 C30.7206009,48.433085 31.3431795,48.19469 31.8768183,47.7766265 L32.2764699,46.344512 L32.7512005,46.344512 L32.8251245,46.4201006 L32.4399112,46.9864342 C32.4399112,47.1504035 32.5138352,47.1504035 32.5877592,47.1504035 C33.2992776,46.8963092 33.8329164,46.4201006 34.5438573,46.1066984 L35.1670134,44.7344734 C35.1670134,44.7344734 35.1670134,44.6443484 35.0919344,44.6443484 L34.8557241,44.3315276 C33.8329164,44.6443484 32.7512005,44.8827434 31.4910275,44.8827434 L31.4321193,44.8827434 C33.6844909,44.6443484 36.2637451,43.6901868 38.0564019,42.7209075 C38.0564019,42.7209075 38.0564019,42.6459003 37.9668846,42.4819311 C36.7228824,43.2122339 35.2553757,44.0041705 33.6844909,43.6901868 C34.7812226,43.5262176 35.7890145,42.9593026 36.7228824,42.6459003 C37.7306743,42.064449 38.752327,41.4376445 39.5383469,40.9457368 L39.5383469,40.7963038 L39.5383469,40.7067603 C38.678403,41.3486825 37.3448835,41.8405903 36.0997263,41.8405903 C35.9518783,41.8405903 36.0997263,41.8405903 36.0997263,41.8405903 C37.2859753,41.4376445 38.2042499,41.0201625 39.1531336,40.4683653 C39.7751347,39.7525987 40.3977133,39.5886295 41.1092317,38.782738 C41.1092317,38.7083122 41.1092317,38.7083122 41.0197144,38.7083122 C40.3977133,39.0961402 39.9974842,39.5886295 39.3899214,39.7525987 C39.0792096,40.1398453 38.4416152,40.304396 37.9668846,40.304396 C37.9668846,40.304396 37.8929606,40.304396 37.9668846,40.304396 C38.752327,40.1398453 39.300404,39.5886295 39.9974842,39.021133 C40.708425,38.2914116 41.4938674,37.7390329 42.116446,37.0087301 L42.0280838,36.9343043 C41.2570797,37.4855201 40.3977133,38.2914116 39.300404,38.6187687 C40.5605771,37.9780094 41.7312328,36.7691722 42.5905991,35.4719543 L42.5022369,35.2341408 C42.116446,35.6353421 41.4938674,36.3668079 41.0197144,36.7691722 C42.2648716,35.2341408 43.2131777,34.0398398 44.0575283,32.5030641 C44.0575283,32.3396762 43.9986201,32.3396762 43.9986201,32.3396762 C43.2131777,33.3089555 42.8129486,34.6660628 41.4938674,34.9945828 C42.5022369,34.1892728 42.9018884,33.0705605 43.6873308,32.1012812 C43.8207405,31.6082105 44.2209696,31.4599404 44.2209696,30.8930254 C44.2209696,30.8930254 44.2209696,30.8185997 44.0575283,30.8185997 C43.8207405,31.4599404 43.3760415,32.1012812 42.8129486,32.652497 C43.050314,32.1012812 43.3760415,31.4599404 43.6873308,30.8185997 C43.8207405,30.2511032 44.2948936,29.9237461 44.384411,29.3719489 L44.2209696,29.3719489 L43.3760415,30.7290562 L43.3760415,30.654049 L44.458335,27.1194066 L44.384411,27.1194066 C44.2209696,27.7758651 43.8207405,28.5660574 43.5088737,29.0440103 C43.3760415,29.0440103 43.5088737,28.9538854 43.5088737,28.8050339 L44.2948936,26.3885223 L44.2209696,26.3885223 L43.5088737,28.0142601 L44.2209696,25.5082051 L44.0575283,25.5082051 L43.6873308,26.8658938 C43.3760415,25.9117323 43.9986201,24.702895 44.0575283,23.897585 L43.8207405,23.8231592 C43.6873308,24.702895 43.6873308,26.0751201 43.050314,27.0449808 L42.9018884,27.0449808 L43.2131777,25.1203771 L43.1392538,25.031415 L42.116446,28.7154904 C42.0280838,28.7154904 42.0280838,28.8050339 42.0280838,28.7154904 C42.0280838,27.5217709 42.5905991,26.3885223 42.5905991,25.5082051 C42.5022369,26.0751201 42.116446,26.6269173 42.0280838,27.3578016 C41.7312328,28.1631116 41.4199435,28.8050339 41.1092317,29.5208004 C23.3114535,52.5352238 6.19573961,35.6353421 2.53479838,25.6727558 L2.44643033,25.6727558 C2.20906502,25.5082051 2.2090708,25.1203771 2.06122282,25.031415 C1.66099371,24.702895 1.20185643,25.1203771 1.12735491,25.26981 C0.890567125,25.836725 0.742141614,26.6269173 1.12735491,27.0449808 L1.12735491,27.1194066 L1.43864421,27.5217709 L1.43864421,27.7758651 C1.20185643,28.0142601 1.05400845,28.0142601 0.890567125,28.4026696 C0.742141614,28.5660574 0.890567125,28.8050339 0.890567125,29.1184361 L0.0306203194,29.3719489 C-0.0433036709,29.5208004 0.0306203194,29.9237461 0.10454431,30.1772589 C0.416411144,30.4906611 0.653201813,30.654049 0.964491116,30.8185997 L0.964491116,31.220964 L1.66099371,31.4599404 C1.66099371,32.1012812 1.82443503,32.8914735 2.53479838,33.3833813 C2.8316494,33.6374755 3.21686269,33.6374755 3.45422801,33.6374755 C3.3058025,34.2782348 3.54316203,34.9201571 3.92837533,35.4719543 C3.92837533,35.5760341 3.92837533,35.5760341 4.09181665,35.5760341 C3.92837533,36.0394508 3.3947423,36.0394508 3.3058025,36.5307771 C3.3058025,36.8435979 3.3058025,37.4105129 3.54316781,37.4855201 C3.9283811,37.9780094 4.71381772,37.4855201 5.26189481,37.9780094 L5.33582457,37.9780094 C5.26190058,38.2914116 4.7138235,38.2914116 4.7138235,38.6187687 C4.56539799,39.021133 4.87668151,39.4095425 5.02452949,39.5886295 C5.26189481,39.6630552 5.3358188,39.7525987 5.6471081,39.7525987 L5.02452949,40.2299702 L5.17296078,40.7067603 C5.64711388,40.9457368 6.12181562,41.3486825 6.8327565,41.3486825 L6.8327565,41.4376445 L7.21854732,41.4376445 C7.29247131,41.8405903 7.60318309,42.3173803 7.8405484,42.4819311 L7.91389486,42.4819311 L7.91389486,42.6459003 C7.8405484,42.6459003 7.60318309,42.7953333 7.3663953,42.7953333 C7.12902999,42.9593026 6.8327565,43.2122339 6.66989271,43.6000619 C6.66989271,44.0041705 6.8327565,44.3315276 7.12902999,44.4059534 C7.60318309,44.8827434 7.91389486,44.8827434 8.62599079,44.6443484 C8.9372801,44.8827434 8.86277858,45.4496584 9.17406788,45.5392019 C9.30747758,45.5392019 9.30747758,45.5392019 9.54426536,45.7037526 C9.54426536,46.1066984 9.30747758,46.7480392 9.54426536,47.299255 C9.78220821,47.299255 9.78220821,47.4638057 9.94449447,47.4638057 C10.4931491,47.1504035 10.9522864,46.6579142 11.2635757,46.2555499 C11.500941,46.0316912 11.9745165,46.1066984 12.2863834,46.344512 C12.3597298,46.4201006 12.3597298,46.4201006 12.3597298,46.6579142 C12.2118819,46.8963092 11.9745165,47.6428927 12.0490181,47.8807063 C12.2118819,48.433085 12.3597298,48.67148 12.6860349,48.7610235 C13.1457498,49 13.8422524,48.9255742 14.0790401,48.5819365 C14.3903294,48.3435415 14.3903294,47.8807063 14.3164055,47.7766265 C14.3164055,47.6428927 14.3164055,47.4638057 14.3903294,47.4638057 C14.9534223,47.1504035 15.6505025,47.7766265 15.9612142,47.1504035 C16.0351382,47.1504035 16.0351382,46.9864342 16.1096397,46.9864342 C16.3464275,47.1504035 16.7466566,47.299255 16.8950821,47.1504035 C16.9834444,47.1504035 17.1318699,47.1504035 17.2953112,46.9864342 L17.4281434,46.9864342 C17.4281434,47.299255 17.6655087,47.4638057 17.8283725,47.6428927 C17.8283725,47.7766265 17.532099,47.7766265 17.5910072,48.19469 C17.6655087,48.2696972 17.902874,48.3435415 17.9912363,48.433085 C19.9328961,48.2696972 20.8067008,46.7480392 22.7483606,46.4201006 L23.2080754,46.4201006 L23.2080754,46.6579142 L22.9851484,46.6579142 C22.9112244,46.6579142 22.9851484,46.6579142 22.9851484,46.7480392 L22.5109953,46.6579142 C22.7483606,46.7480392 22.7483606,46.6579142 22.7483606,46.7480392 C22.5109953,46.8963092 22.5109953,46.7480392 22.4370713,46.7480392 L22.4370713,46.8963092 L22.5109953,46.8963092 C22.5109953,46.9864342 22.3631473,46.8963092 22.3631473,46.8963092 L22.2892233,46.9864342 C22.125782,46.9864342 22.051858,47.1504035 22.051858,46.9864342 L22.051858,47.1504035 L21.9629182,47.1504035 L21.9629182,47.4638057 L21.8144927,47.4638057 L21.4292794,47.6428927 L21.3559329,47.6428927 L21.2664156,47.6428927 C21.3559329,47.6428927 21.3559329,47.6428927 21.2664156,47.7766265 L20.9401105,47.7766265 L21.0440661,47.7766265 C20.9401105,47.8807063 20.8067008,47.7766265 20.8067008,47.7766265 L20.8067008,47.8807063 L20.4809732,47.8807063 L20.643837,47.8807063 C20.2586237,48.19469 19.6955308,47.8807063 19.3842415,48.19469 L19.087968,48.5819365 C19.087968,48.7610235 19.3103175,48.7610235 19.3842415,49 L19.6216068,49 Z" id="Shape" fill="#6C788F"></path>
                        <polygon id="Path" fill="#020303" points="4.25383147 31.0272825 4.2988789 31.0272825 4.2988789 30.9673931 4.25383147 30.9673931"></polygon>
                        <path d="M17.8581731,47.2100022 L17.8581731,47.2100022 L18.0210369,47.2100022 L18.1694624,47.2100022 L18.1694624,47.0460329 L18.1694624,46.9564894 C18.2578247,46.9564894 18.2578247,47.0460329 18.2578247,47.0460329 C18.3323262,47.0460329 18.3323262,46.9564894 18.3323262,46.9564894 L18.2578247,46.9564894 L18.3323262,46.7925202 L18.2578247,46.4791179 L18.1694624,46.4791179 L17.9320971,46.4046922 L17.9320971,46.4791179 C17.6953093,46.4791179 17.6953093,46.9564894 17.8581731,47.2100022 L17.8581731,47.2100022 Z M16.6130159,46.7925202 L16.6130159,46.7925202 L16.7614414,46.7925202 L16.7614414,46.717513 L16.8353654,46.717513 L16.9248828,46.4791179 L17.013245,46.717513 C17.013245,46.4791179 17.013245,46.4791179 16.9248828,46.4791179 L17.1472323,46.4791179 C17.1472323,46.4791179 17.013245,46.4791179 17.013245,46.4046922 L17.1472323,46.4046922 C17.2355945,46.3157301 17.1472323,46.3157301 17.1472323,46.1657157 C17.1472323,46.0767536 17.1472323,46.0767536 17.2355945,46.0767536 C16.7614414,46.1657157 16.3762281,45.5993821 15.7536495,45.5098386 L15.7536495,45.5993821 C15.8281511,46.0017464 16.1394404,46.4046922 16.2283802,46.717513 L16.6130159,46.7925202 Z M9.97429507,47.2100022 L9.97429507,47.2100022 C10.4484482,46.9564894 10.7597375,46.4791179 11.1599666,46.0767536 C10.6707977,45.9127844 10.2855844,45.7482337 9.97429507,45.7482337 C9.81143128,46.0767536 9.81143128,46.4791179 9.81143128,46.9564894 C9.81143128,46.9564894 9.89979355,47.0460329 9.97429507,47.2100022 L9.97429507,47.2100022 Z M6.69969332,41.0053355 L6.69969332,41.0053355 L6.8475413,41.0053355 C6.8475413,40.527964 7.1588306,40.199444 6.8475413,39.811616 C6.53625199,39.811616 5.98817491,40.0354748 5.67746314,40.3639947 L5.75138713,40.527964 C5.98817491,40.8559025 6.38782648,41.0053355 6.69969332,41.0053355 L6.69969332,41.0053355 Z M1.14208773,30.7136477 L1.61681835,29.8193756 C1.23102753,29.5059734 1.06816374,29.5059734 0.667934633,29.5059734 C0.667934633,29.5059734 0.534524932,29.5059734 0.357220551,29.5803992 C0.357220551,29.7443684 0.446160352,29.9833449 0.534524932,30.1467327 C0.667934633,30.2967471 0.920315756,30.5496785 1.14208773,30.7136477 L1.14208773,30.7136477 Z" id="Shape" fill="#FEFEFE"></path>
                        <path d="M27.0608436,47.8362834 L27.0608436,47.8362834 L27.92021,47.6868504 L27.92021,47.3437942 C27.6828447,47.0309734 27.2976314,47.1949426 27.0608436,47.1949426 C26.9124181,47.5083449 26.7489768,47.5083449 26.6750528,47.5083449 L27.0608436,47.8362834 Z M24.6450307,48.6421749 L24.6450307,48.6421749 C25.1931078,48.6421749 25.9641119,48.6421749 26.2754012,48.2392291 L26.2754012,47.9258269 C25.9052037,47.8362834 25.1931078,47.9258269 24.7189547,48.2392291 C24.6450307,48.3880807 24.5560909,48.4927419 24.4821669,48.4927419 C24.5560909,48.5671677 24.6450307,48.5671677 24.6450307,48.6421749 L24.6450307,48.6421749 Z M19.4882549,48.8061441 L19.4882549,48.8061441 C20.1108335,48.8061441 20.6589106,48.8061441 20.9701999,48.5671677 C20.7328346,48.3287726 20.2731197,48.2392291 19.9479697,48.2392291 C19.7256202,48.3287726 19.6366804,48.3287726 19.4882549,48.3287726 C19.4882549,48.3880807 19.4143309,48.4927419 19.4143309,48.6421749 L19.4882549,48.7317184 L19.4882549,48.8061441 Z M18.1691737,48.3287726 L18.8656763,48.2392291 L18.8656763,47.9258269 C18.554387,47.8362834 18.0063099,47.8362834 17.8578844,47.9258269 L17.6800048,47.9258269 C17.8578844,48.2392291 18.0063099,48.2392291 18.1691737,48.3287726 L18.1691737,48.3287726 Z" id="Shape" fill="#FEFEFE"></path>
                        <path d="M23.1633745,47.6426601 L23.2228602,47.5379989 C23.1633745,47.5379989 23.1633745,47.6426601 23.1183271,47.6426601 L23.1633745,47.6426601 Z" id="Path" fill="#FEFEFE"></path>
                        <path d="M23.2375295,46.4201588 L23.3559234,46.3009613 C23.3559234,46.3009613 23.1930596,46.4201588 23.2375295,46.4201588" id="Path" fill="#FEFEFE"></path>
                        <path d="M20.4367921,46.0618685 C20.4367921,46.0618685 20.481262,46.0618685 20.481262,46.0013976 L20.4367921,46.0618685 Z" id="Path" fill="#FEFEFE"></path>
                        <path d="M27.0898934,45.4650669 L27.1493792,45.4650669 C27.1493792,45.4650669 27.0898934,45.4057589 27.0898934,45.4650669" id="Path" fill="#FEFEFE"></path>
                        <polygon id="Path" fill="#020303" points="17.7394327 44.7189486 17.7989184 44.7189486 17.7394327 44.5398616"></polygon>
                        <path d="M18.0803494,44.5996929 L18.0803494,44.5398035 C18.0803494,44.5398035 17.9763938,44.4206059 17.9174856,44.4206059 C17.81353,44.5398035 17.9763938,44.5398035 18.0803494,44.5996929" id="Path" fill="#020303"></path>
                        <path d="M11.7379598,43.9586429 C11.7824297,43.9586429 11.7824297,43.9586429 11.7379598,43.8987534 L11.7379598,43.9586429 Z" id="Path" fill="#020303"></path>
                        <path d="M12.1527427,43.8842171 L12.1527427,43.7644382 C12.1527427,43.7051301 12.0493646,43.8842171 11.9898789,43.7644382 L12.1527427,43.8842171 Z" id="Path" fill="#020303"></path>
                        <polygon id="Path" fill="#FEFEFE" points="12.9680434 43.6451825 13.071999 43.6451825 13.071999 43.525985 12.9085577 43.6451825"></polygon>
                        <path d="M12.389646,43.5259268 L12.4497092,43.5259268 L12.4497092,43.4660374 C12.4497092,43.3468399 12.4497092,43.3468399 12.5525097,43.3468399 C12.6119955,43.3468399 12.4497092,43.3468399 12.5525097,43.2875318 L12.5525097,43.2276423 L12.4497092,43.2276423 L12.389646,43.5259268 Z" id="Path" fill="#020303"></path>
                        <path d="M12.8196757,43.3624227 L12.8196757,43.3025333 C12.8196757,43.3025333 12.76019,43.2432252 12.76019,43.3025333 L12.8196757,43.3624227 Z" id="Path" fill="#020303"></path>
                        <path d="M11.959905,43.0932689 L12.0788764,43.0932689 C12.0788764,42.9740714 11.959905,43.0932689 11.959905,43.0932689" id="Path" fill="#020303"></path>
                        <path d="M14.0494128,42.8842954 L14.0944602,42.8842954 C14.0944602,42.8244059 14.0494128,42.8244059 14.0494128,42.8244059 L14.0494128,42.8842954 Z" id="Path" fill="#020303"></path>
                        <path d="M14.6569178,42.8842954 L14.6569178,42.8244059 L14.494054,42.8244059 C14.494054,42.8244059 14.5535398,42.8842954 14.6569178,42.8842954" id="Path" fill="#FEFEFE"></path>
                        <path d="M18.3620691,42.8842954 C18.3620691,42.8842954 18.3620691,42.8244059 18.4660247,42.8244059 C18.4660247,42.8244059 18.4660247,42.8842954 18.5099171,42.8842954 C18.4660247,42.8244059 18.4660247,42.7209075 18.3620691,42.7209075 C18.3025834,42.8244059 18.3025834,42.8244059 18.3025834,42.8842954 L18.3620691,42.8842954 Z" id="Path" fill="#020303"></path>
                        <path d="M32.8697099,42.2137076 L34.3222008,41.8107618 C34.3222008,41.6915643 34.2632927,41.6316748 34.2182452,41.6316748 C33.5662125,41.8700699 32.9736655,41.9299594 32.380541,42.0340391 L32.8697099,42.2137076 Z" id="Path" fill="#FEFEFE"></path>
                        <polygon id="Path" fill="#020303" points="18.554387 41.9002472 18.5988569 41.8403577 18.554387 41.8403577"></polygon>
                        <path d="M22.1704251,41.661794 L22.2143175,41.661794 C22.2738032,41.661794 22.2738032,41.6013231 22.2738032,41.482707 L22.1704251,41.482707 C22.0520313,41.482707 22.1704251,41.6013231 22.0520313,41.661794 L22.1704251,41.661794 Z" id="Path" fill="#FEFEFE"></path>
                        <path d="M6.8475413,41.0201625 L7.01040509,41.0201625 C7.05487499,41.0201625 7.01040509,40.9608545 7.01040509,40.9608545 L6.8475413,41.0201625 Z" id="Path" fill="#FEFEFE"></path>
                        <path d="M13.1682952,40.9940567 L13.1682952,40.9940567 L13.1682952,40.8293343 C13.1682952,40.8293343 13.1682952,40.7543006 13.018425,40.7543006 L12.9437815,40.7543006 L12.9437815,40.498717 L12.7793324,40.498717 L12.7793324,40.7543006 L13.018425,40.7543006 L13.1682952,40.9940567 Z M12.7793324,41.310019 L12.7793324,41.310019 C12.7793324,41.1593654 12.9437815,41.310019 12.7793324,41.1593654 C12.7041057,41.1593654 12.7793324,41.310019 12.7793324,41.310019 L12.7793324,41.310019 Z M12.7041057,41.0696766 L12.7041057,40.8293343 L12.5396567,40.8293343 L12.46443,40.7543006 L12.5396567,40.498717 L12.7041057,40.498717 L12.5396567,40.498717 L12.46443,40.498717 L12.46443,40.7543006 L12.3752077,40.7543006 L12.3752077,40.9940567 L12.5396567,40.9940567 C12.7041057,40.9940567 12.5396567,41.0696766 12.7041057,41.0696766 L12.7041057,41.0696766 Z" id="Shape" fill="#FEFEFE"></path>
                        <path d="M12.8196757,40.9900433 L12.7007042,40.7522298 C12.7007042,40.7522298 12.7007042,40.8121193 12.5979037,40.8121193 C12.5979037,40.8708458 12.7007042,40.8121193 12.7007042,40.8121193 C12.76019,40.8708458 12.76019,40.9900433 12.76019,40.9900433 C12.76019,41.0505143 12.76019,40.9900433 12.8196757,40.9900433" id="Path" fill="#FEFEFE"></path>
                        <path d="M34.4850069,40.7816512 C35.0186457,40.8415407 35.6111927,40.5577925 36.0408759,40.1996185 L35.8335422,40.0356492 C35.2854651,40.3199789 34.9141125,40.6182634 34.4249436,40.7816512 L34.4850069,40.7816512 Z" id="Path" fill="#FEFEFE"></path>
                        <path d="M36.2186977,39.5136804 L37.567233,38.9322291 L37.567233,38.8723396 C37.1820197,38.7525606 36.9152003,39.1712056 36.5444253,39.2898216 C36.3815615,39.3502926 36.2186977,39.3502926 36.159212,39.4096006 C36.159212,39.4096006 36.159212,39.5136804 36.2186977,39.5136804" id="Path" fill="#FEFEFE"></path>
                        <path d="M23.0739727,46.3894582 L23.0739727,46.3894582 L23.6226273,46.1510631 C23.756037,45.9876753 24.0823421,45.5998473 23.756037,45.2562096 C23.756037,45.1067766 23.6226273,44.9428073 23.6226273,44.9428073 C23.3858395,44.7049938 23.0739727,44.4508996 22.9856104,44.1374973 C22.9856104,43.735133 23.5336875,43.6607073 23.4453252,43.018785 C23.311338,42.8553972 22.9856104,42.8553972 22.7488226,42.6908465 C22.3630318,42.5262958 22.2891078,42.6908465 21.9778185,42.6908465 L21.4291639,42.6908465 C21.3558174,42.6908465 21.2813159,42.4524515 21.0439506,42.3623265 C20.9555883,41.9000728 21.0439506,41.4831722 20.8071628,41.3186215 C20.6437215,41.079645 20.2585082,41.0052192 19.9327806,41.079645 C19.3252178,41.3186215 19.0139285,41.7221487 18.3029876,42.213475 L18.5397754,42.213475 C18.8510647,42.3623265 18.5397754,42.3623265 18.5397754,42.3623265 C18.5397754,42.4524515 18.6136994,42.4524515 18.5397754,42.5262958 L18.3029876,42.5262958 L18.2284861,42.78039 C18.2284861,42.8553972 18.3029876,42.6908465 18.3029876,42.78039 C18.5397754,42.8553972 18.3029876,42.8553972 18.3029876,42.9443593 C18.3029876,42.9443593 18.2284861,42.9443593 18.1545621,42.8553972 L18.1545621,42.9443593 L18.3029876,43.018785 L18.2284861,43.018785 C18.2284861,43.018785 18.3029876,43.018785 18.3029876,43.2571801 L18.3029876,43.3321873 C19.3252178,43.018785 19.7104311,42.4524515 20.4814352,42.1239315 L20.1695684,42.5262958 L19.3997193,43.018785 C19.7104311,43.2571801 20.1695684,43.018785 20.6437215,43.2571801 C20.9555883,43.3321873 21.3558174,43.4060316 21.6665292,43.3321873 C22.1256665,43.3321873 22.5108798,43.5705823 22.9856104,43.3321873 C22.9856104,43.5705823 22.7488226,43.6607073 22.5108798,43.735133 C22.2891078,43.735133 21.9778185,43.6607073 21.6665292,43.6607073 C22.1256665,44.0630715 22.4369558,44.7939558 22.9856104,45.2562096 C22.9856104,45.2562096 22.9856104,45.3457531 22.9856104,45.2562096 C22.3630318,45.1067766 22.0517425,44.1374973 21.4291639,43.735133 C21.4291639,44.0630715 21.6665292,44.3758923 21.4291639,44.9428073 L21.3558174,44.9428073 C21.4291639,44.3758923 21.3558174,43.735133 20.9555883,43.6607073 C20.3324322,43.2571801 19.6214913,43.2571801 19.0139285,43.4060316 C19.162354,43.6607073 19.4730658,43.735133 19.4730658,44.0630715 C19.4730658,44.1374973 19.3997193,44.1374973 19.3997193,44.0630715 C19.162354,43.735133 19.0139285,43.6607073 18.6136994,43.6607073 L18.5397754,43.735133 L18.3029876,43.735133 L18.2284861,43.735133 L17.9916983,43.735133 L17.9916983,43.8991023 L17.9916983,44.0630715 C17.9916983,44.0630715 18.1545621,44.0630715 18.1545621,43.8991023 C18.2284861,43.8991023 18.2284861,44.0630715 18.3029876,44.0630715 C18.3029876,44.1374973 18.2284861,44.1374973 18.2284861,44.1374973 L18.1545621,44.1374973 L17.9916983,44.1374973 L17.9027585,44.0630715 L17.9027585,44.1374973 C17.9027585,44.1374973 17.9916983,44.3008851 17.9027585,44.3758923 C17.8432728,44.3758923 17.8432728,44.7049938 17.8432728,44.7939558 L17.8432728,44.9428073 L17.9027585,44.9428073 C17.9916983,44.9428073 17.9027585,44.9428073 17.9027585,45.1067766 L18.1545621,44.9428073 L18.1545621,45.1067766 L17.9916983,45.1067766 L18.3029876,45.2562096 C18.8510647,45.3457531 19.162354,45.1067766 19.4730658,44.9428073 C19.7104311,44.7049938 20.0956444,44.3758923 20.2585082,44.7049938 C20.3324322,44.7049938 20.3324322,44.7939558 20.3324322,44.7939558 C20.718223,44.9428073 20.718223,45.7481174 20.9555883,46.0766374 L21.3558174,46.0766374 C21.6665292,45.9126681 21.8143772,45.4946046 22.1256665,45.5998473 C22.4369558,45.8376609 22.5108798,46.3156138 22.9856104,46.3156138 C22.9856104,46.3894582 23.0739727,46.3894582 23.0739727,46.3894582 L23.0739727,46.3894582 Z M15.3985834,44.7939558 C15.2645961,44.7939558 15.1906721,44.7049938 15.1906721,44.4508996 C14.9533068,44.3758923 14.6275792,44.1374973 14.5536553,44.0630715 L14.6275792,43.735133 C14.9533068,43.5705823 15.3985834,43.3321873 15.650387,42.9443593 C15.650387,42.8553972 15.5758854,42.5262958 15.3390977,42.3623265 C14.9533068,42.1239315 14.242366,42.3623265 13.7682129,42.4524515 C13.5458634,42.5262958 13.3829996,42.3623265 13.2345741,42.3623265 C13.1606501,42.3623265 13.1606501,42.213475 12.9977863,42.1239315 C12.9232848,42.1239315 12.760421,41.9000728 12.760421,41.7221487 C12.9977863,41.4831722 13.3829996,41.7221487 13.5458634,41.4831722 C13.8421369,41.4087464 13.9310767,41.1691885 13.9310767,41.0052192 C13.8421369,40.5133114 13.1606501,40.3638785 12.686497,40.1993277 C12.3601919,39.9609327 12.3601919,39.6329942 12.2862679,39.3945992 L12.3601919,39.1405049 L12.3601919,39.0811969 C12.4497092,38.8428019 12.686497,38.7526769 12.9232848,38.6637149 C13.4569236,39.0811969 14.0789246,39.1405049 14.3902139,39.7969634 C14.5536553,39.7969634 14.9533068,39.7969634 15.0272308,39.7219562 L16.1095242,40.1993277 C16.198464,40.1993277 16.198464,40.3638785 16.1095242,40.5133114 C16.1095242,40.7522879 16.198464,40.84125 16.3468896,41.0052192 C16.7465411,41.079645 16.8949666,41.0052192 17.2206942,40.84125 C17.5908917,40.7522879 17.9027585,40.84125 17.9916983,41.079645 C18.2284861,41.3186215 18.2284861,41.7221487 18.1545621,42.1239315 C17.9027585,42.78039 17.6653932,43.2571801 17.5319835,43.735133 C17.2206942,43.018785 17.1317544,42.3623265 16.9839064,41.7221487 C16.9839064,41.4831722 16.9839064,41.4831722 16.8949666,41.4831722 L16.8949666,41.7221487 L16.8949666,42.6908465 C16.7465411,42.1239315 16.1095242,41.795993 15.650387,41.4087464 L15.3390977,40.1993277 C15.3390977,40.0353585 15.2645961,40.0353585 15.2645961,40.1993277 L15.1906721,40.1993277 L15.3985834,41.3186215 C14.5536553,41.0052192 13.9310767,40.1993277 13.3829996,39.3945992 L13.308498,39.4690249 L13.308498,39.5591499 C13.7682129,40.3638785 14.4797313,41.0052192 15.1906721,41.4831722 C14.9533068,41.4831722 14.3902139,41.4831722 14.168442,41.7221487 C14.0789246,41.7221487 14.168442,41.7221487 14.168442,41.7221487 C14.6275792,41.795993 15.1906721,41.4831722 15.7243109,41.7221487 C16.198464,42.1239315 16.8204651,42.6908465 16.8949666,43.2571801 L15.8132508,43.2571801 C15.8132508,43.3321873 15.7243109,43.3321873 15.7243109,43.3321873 L15.8132508,43.4060316 C16.3468896,43.4060316 16.8204651,43.3321873 17.1317544,43.6607073 L17.4430437,44.4508996 L15.3985834,44.7939558 Z M12.9977863,48.5669932 L12.9977863,48.5669932 C13.308498,48.5669932 13.5458634,48.5669932 13.8421369,48.3285982 C14.0789246,47.836109 13.8421369,47.1953496 14.242366,46.9569546 C14.7910206,46.7924039 15.2645961,47.5232882 15.7243109,47.0313804 C15.9616763,46.7924039 15.7243109,46.4790017 15.650387,46.3156138 C15.5758854,46.0766374 15.3390977,45.9126681 15.3390977,45.5998473 C15.3985834,45.3457531 15.5758854,45.2562096 15.650387,45.1067766 C15.8132508,45.1067766 16.198464,45.2562096 16.3468896,45.2562096 C16.5836773,45.5998473 16.8204651,45.7481174 16.9839064,45.7481174 C17.1317544,45.5998473 17.1317544,45.5998473 17.2206942,45.5998473 L17.2951957,45.3457531 L17.1317544,45.1067766 L16.8949666,44.9428073 L16.7465411,45.1067766 L16.5836773,45.1067766 L16.7465411,44.9428073 L16.5836773,44.9428073 L16.4208135,44.9428073 L16.198464,44.9428073 L15.7243109,45.1067766 C15.650387,45.1067766 15.650387,44.9428073 15.650387,44.9428073 C15.650387,44.9428073 15.650387,45.1067766 15.5758854,45.1067766 L15.3390977,44.9428073 C15.1906721,45.1067766 14.9533068,44.9428073 14.9533068,44.9428073 C14.7910206,44.9428073 14.7910206,44.9428073 14.7910206,44.7939558 L14.5536553,44.7939558 C14.242366,44.9428073 14.3902139,45.4946046 14.5536553,45.9126681 C14.6275792,46.0766374 14.6275792,46.4790017 14.7910206,46.7173967 C14.5536553,46.3894582 14.3162899,45.9876753 14.242366,45.3457531 C13.7682129,45.9876753 13.4569236,46.9569546 13.2345741,47.836109 C13.1606501,46.9569546 13.5458634,46.1510631 13.9310767,45.4946046 L13.8421369,45.3457531 C13.5458634,45.5998473 13.3829996,45.8376609 13.1606501,45.9126681 L13.1606501,45.8376609 C13.4569236,45.3457531 14.168442,45.2562096 14.4797313,44.7049938 L14.4797313,44.4508996 L14.5536553,44.4508996 L14.3902139,44.1374973 L14.242366,44.1374973 L14.242366,44.0630715 C14.3902139,44.0630715 14.242366,43.735133 14.3162899,43.735133 L14.3902139,43.735133 L14.3162899,43.5705823 C14.3902139,43.4060316 14.4797313,43.5705823 14.4797313,43.4060316 C14.5536553,43.3321873 14.3902139,43.3321873 14.3902139,43.2571801 L14.6275792,43.018785 L14.5536553,43.018785 L14.5536553,42.9443593 L14.6275792,42.78039 L14.3902139,42.78039 L14.3162899,42.6908465 L13.5458634,42.8553972 C13.4569236,43.018785 13.5458634,43.018785 13.5458634,43.2571801 L14.0789246,43.735133 L14.0789246,44.0630715 C13.8421369,44.1374973 13.7682129,44.3008851 13.4569236,44.3758923 C13.2345741,44.4508996 12.9232848,44.4508996 12.4497092,44.7939558 C12.0494801,44.7939558 11.7381908,44.9428073 11.5897653,45.2562096 C11.5008255,45.5998473 11.5897653,45.7481174 11.6787051,45.8376609 C12.0494801,45.9876753 12.4497092,45.9126681 12.686497,46.1510631 C12.9232848,46.4790017 12.760421,46.7173967 12.686497,46.9569546 C12.3601919,47.1953496 12.2862679,47.686676 12.3601919,47.9262339 C12.3601919,48.2541724 12.4497092,48.4925675 12.760421,48.5669932 L12.9977863,48.5669932 Z M11.278476,45.9876753 L11.278476,45.5998473 L11.278476,45.4946046 C11.278476,45.3457531 11.3529775,45.2562096 11.278476,45.2562096 L11.1895362,45.2562096 L11.1895362,45.1067766 C11.1895362,44.9428073 11.1895362,44.9428073 11.278476,44.9428073 L11.278476,45.1067766 L11.278476,45.2562096 C11.3529775,45.1067766 11.3529775,45.1067766 11.5008255,45.1067766 C11.278476,44.9428073 11.1895362,44.4508996 10.7303989,44.3758923 C10.2556683,44.4508996 10.1078203,45.1067766 9.79653098,45.2562096 C9.54472739,45.3457531 9.32180035,45.2562096 9.1745299,45.2562096 L9.01108858,44.9428073 C9.01108858,44.7939558 8.93716459,44.4508996 8.8632406,44.3758923 C8.62587529,44.1374973 8.22564618,44.4508996 7.84043289,44.4508996 C7.38129561,44.3758923 7.21843182,44.3758923 7.1439303,44.1374973 C6.83264099,43.8991023 7.1439303,43.5705823 7.21843182,43.2571801 C7.29235581,43.018785 7.6775691,43.018785 7.91377935,43.018785 C8.22564618,43.018785 8.4630115,43.018785 8.62587529,42.9443593 C8.69979928,42.78039 8.69979928,42.4524515 8.69979928,42.3623265 C8.69979928,42.1239315 8.7743008,41.9000728 8.93716459,41.9000728 C9.32180035,41.9000728 9.87045497,42.213475 10.2556683,41.9000728 C10.4930336,41.7221487 10.6558974,41.4831722 10.6558974,41.1691885 C10.6558974,40.84125 10.9671867,40.7522879 11.278476,40.5133114 C11.8121148,40.5133114 12.3601919,41.079645 12.686497,41.4831722 L12.5230557,41.7221487 L12.686497,41.9000728 C12.5230557,41.9000728 12.5230557,42.1239315 12.5230557,42.1239315 C12.686497,42.213475 12.686497,42.1239315 12.686497,42.1239315 L12.760421,42.3623265 L12.9232848,42.3623265 L12.9232848,42.4524515 C12.760421,42.4524515 12.9232848,42.3623265 12.760421,42.3623265 L12.686497,42.3623265 L12.4497092,42.3623265 C12.4497092,42.4524515 12.5230557,42.4524515 12.5230557,42.5262958 C12.686497,42.5262958 12.760421,42.3623265 12.760421,42.5262958 L12.686497,42.5262958 C12.0494801,42.6908465 11.6787051,42.1239315 11.1895362,41.795993 L11.1895362,41.9000728 L11.8121148,42.5262958 C11.278476,42.5262958 10.7303989,42.8553972 10.1823218,43.018785 C9.87045497,42.9443593 9.41131769,42.5262958 9.01108858,42.5262958 L9.01108858,42.6908465 L10.1078203,43.018785 C9.41131769,43.4060316 8.69979928,43.018785 8.22564618,43.5705823 L8.4630115,43.5705823 C9.01108858,43.4060316 9.79653098,43.5705823 10.1823218,43.2571801 C10.1078203,43.5705823 9.94495649,43.735133 9.54472739,44.0630715 L9.54472739,44.3008851 C10.1078203,44.0630715 10.1823218,43.4060316 10.6558974,43.018785 C11.1895362,42.9443593 11.5008255,42.78039 11.9899944,42.8553972 C11.7381908,43.018785 11.5008255,43.2571801 11.278476,43.4060316 L11.278476,43.735133 C11.5008255,43.5705823 11.8121148,43.2571801 12.0494801,42.9443593 C12.2117663,42.78039 12.4497092,42.78039 12.686497,42.8553972 C12.760421,42.8553972 12.9977863,42.8553972 12.9977863,42.9443593 L12.686497,43.018785 L12.9232848,43.2571801 L12.9977863,43.2571801 L13.1606501,43.4060316 C13.1606501,43.5705823 12.9977863,43.6607073 12.9232848,43.6607073 C12.9232848,43.735133 12.9232848,43.735133 12.9977863,43.735133 L12.9232848,43.735133 L12.9232848,43.8991023 L12.9977863,43.8991023 L12.9977863,44.0630715 L12.9232848,44.0630715 L12.9232848,43.8991023 L12.686497,43.8991023 C12.686497,43.8991023 12.5230557,44.0630715 12.4497092,44.0630715 L12.2862679,44.0630715 L12.2117663,44.0630715 L12.2862679,44.1374973 C12.3601919,44.3008851 12.3601919,44.1374973 12.4497092,44.3008851 L12.3601919,44.3758923 L12.2117663,44.3008851 L12.2117663,44.3758923 L12.0494801,44.3758923 L12.0494801,44.3008851 L12.0494801,44.1374973 L11.8121148,44.3758923 L11.7381908,44.4508996 L11.7381908,44.7939558 C11.6787051,44.7939558 11.5897653,44.7939558 11.5897653,44.9428073 L11.5008255,44.9428073 C11.278476,45.2562096 11.3529775,45.5998473 11.278476,45.9876753 L11.278476,45.9876753 Z M8.4630115,42.3623265 L8.4630115,42.3623265 C8.4630115,42.1239315 8.62587529,41.795993 8.8632406,41.7221487 L8.93716459,41.4831722 C8.93716459,41.4831722 8.93716459,41.7221487 9.01108858,41.7221487 L9.1745299,41.7221487 L9.32180035,41.7221487 L9.32180035,41.4831722 L9.54472739,41.4831722 L9.54472739,41.4087464 C9.54472739,41.3186215 9.79653098,41.4831722 9.79653098,41.4087464 L9.79653098,41.3186215 L9.54472739,41.3186215 L9.01108858,41.079645 L9.01108858,41.0052192 L9.1745299,41.0052192 L10.1078203,41.079645 L10.1823218,41.079645 C10.2556683,41.079645 10.2556683,41.079645 10.2556683,41.0052192 L10.1823218,41.0052192 L10.2556683,41.0052192 L10.4191096,41.0052192 L10.2556683,40.7522879 L10.1078203,40.7522879 L10.1078203,40.5133114 L10.1823218,40.5133114 C10.1078203,40.1993277 9.79653098,39.7219562 9.54472739,39.3945992 L7.91377935,38.9021099 C8.4630115,38.7526769 8.93716459,39.0811969 9.41131769,39.0811969 C8.93716459,38.2613506 8.22564618,37.5450026 7.84043289,36.8141183 L7.84043289,36.740274 C7.91377935,36.8141183 7.91377935,36.8885441 8.22564618,37.0682126 C8.7743008,37.5450026 9.1745299,38.3503126 9.54472739,38.9021099 C9.79653098,38.3503126 9.54472739,37.7833976 9.87045497,37.4705768 C9.54472739,38.5892891 9.79653098,39.6329942 10.4191096,40.5133114 L10.7303989,40.5133114 L10.9671867,40.5133114 C10.9671867,40.274335 10.9671867,40.5133114 10.7303989,40.5133114 L10.7303989,40.3638785 C10.7303989,40.3638785 10.7303989,40.274335 10.9671867,40.274335 L11.130628,40.274335 L11.278476,39.4690249 L11.278476,39.9609327 L11.278476,40.0353585 L11.278476,40.1993277 L11.278476,40.3638785 L11.278476,40.274335 L11.278476,40.1993277 L11.3529775,40.1993277 L11.7381908,40.1993277 L11.7381908,40.274335 C11.7381908,40.274335 11.6787051,40.274335 11.5897653,40.3638785 L11.5008255,40.274335 L12.2117663,40.7522879 C12.2117663,40.5133114 12.2117663,40.5133114 12.0494801,40.5133114 L11.8121148,40.5133114 L11.8121148,40.3638785 C11.8121148,40.274335 11.9899944,40.274335 12.0494801,40.274335 L12.2117663,40.1993277 C12.2862679,40.274335 12.2117663,40.274335 12.2117663,40.3638785 L12.2117663,40.5133114 L12.3601919,40.5133114 L12.3601919,40.3638785 L12.3601919,40.1993277 C12.2862679,40.0353585 12.2862679,39.9609327 12.2117663,39.9609327 L12.2117663,40.0353585 L12.0494801,39.9609327 L12.0494801,39.7969634 L12.2117663,39.7969634 C12.2117663,39.7219562 12.2117663,39.7219562 12.0494801,39.7219562 L12.0494801,39.6329942 L12.2117663,39.6329942 L12.2862679,39.0811969 C12.2862679,38.7526769 12.2117663,38.6637149 12.0494801,38.3503126 C11.5897653,38.0217927 11.1895362,38.3503126 10.7303989,38.3503126 C10.4191096,38.0217927 10.4191096,37.2316004 10.1078203,36.9780876 L9.87045497,36.8885441 C9.54472739,36.9780876 9.41131769,37.2316004 9.01108858,37.1426383 C8.69979928,36.8885441 8.8632406,36.0832341 8.4630115,36.0082269 C7.91377935,35.9343825 7.60306758,35.9343825 7.38129561,36.0832341 C7.21843182,36.3222106 7.1439303,36.8885441 7.1439303,37.1426383 C7.21843182,37.4705768 7.29235581,37.5450026 7.60306758,37.5450026 C7.6775691,37.7833976 7.91377935,38.0217927 7.91377935,38.0217927 C7.91377935,38.3503126 7.91377935,38.5892891 7.6775691,38.6637149 L7.60306758,38.6637149 L7.38129561,38.9021099 C7.38129561,39.6329942 8.62587529,39.7969634 8.29957018,40.5133114 C8.22564618,41.0052192 7.84043289,41.079645 7.60306758,41.1691885 C7.60306758,41.3186215 7.38129561,41.4831722 7.38129561,41.4831722 C7.60306758,41.9000728 7.91377935,42.1239315 8.22564618,42.3623265 L8.4630115,42.3623265 Z M6.19562411,39.7219562 C5.72147101,39.6329942 5.3362635,39.4690249 4.9510502,39.0811969 L4.9510502,38.6637149 L5.64697527,38.3503126 C5.64697527,38.2613506 5.72147101,38.2613506 5.72147101,38.0217927 C5.72147101,38.0217927 5.64697527,37.7833976 5.49912729,37.5450026 C5.02497419,37.4705768 4.71368489,37.4705768 4.47689711,37.4705768 C4.2395318,37.4705768 3.9432583,37.4705768 3.631969,37.2316004 L3.631969,36.5751419 C3.631969,36.4262903 3.8543185,36.3222106 3.9432583,36.3222106 C4.2395318,36.0832341 4.47689711,36.0832341 4.56583691,35.6203988 C4.47689711,35.0389476 3.9432583,34.9651032 3.631969,34.4871503 C3.631969,34.2493367 3.631969,33.846391 3.9432583,33.6074145 C4.09168382,33.3690195 4.47689711,33.3690195 4.71368489,33.3690195 C5.18783798,33.6074145 5.26176197,34.1592118 5.64697527,34.4871503 L5.72147101,34.4871503 C6.12170012,34.4871503 6.3584879,34.2493367 6.50691341,34.1592118 L6.6697772,34.084786 C6.83264099,34.084786 7.29235581,34.2493367 7.60306758,34.4871503 C7.6775691,34.7255453 7.84043289,34.8906775 7.91377935,34.9651032 L7.91377935,35.6203988 L7.84043289,35.6203988 L7.60306758,35.6203988 L7.60306758,35.6954061 C7.60306758,35.6954061 7.60306758,35.6203988 7.38129561,35.6203988 L7.21843182,35.9343825 L7.29235581,36.0082269 L7.21843182,35.9343825 C7.1439303,35.9343825 7.1439303,35.9343825 7.1439303,36.0082269 L6.83264099,36.0082269 L6.83264099,36.0832341 L6.6697772,36.4262903 L6.6697772,36.5751419 L6.6697772,36.4262903 C6.6697772,36.4262903 6.50691341,36.4262903 6.50691341,36.5751419 C6.6697772,36.740274 6.6697772,36.8141183 6.6697772,36.8885441 C6.83264099,36.8885441 6.83264099,36.740274 6.83264099,36.8141183 L6.6697772,36.8885441 L6.50691341,36.740274 L6.3584879,35.9343825 L6.3584879,34.7255453 L6.19562411,34.7255453 C6.12170012,35.2930418 6.12170012,35.6203988 6.12170012,36.3222106 C5.3362635,35.6203988 4.87654868,34.7255453 4.2395318,33.9208167 C4.56583691,34.8906775 5.3362635,35.6203988 6.12170012,36.5751419 L4.56583691,36.4262903 L4.56583691,36.5751419 C4.87654868,36.8141183 5.3362635,36.8141183 5.72147101,36.8885441 C5.9582588,36.8141183 6.12170012,36.8885441 6.3584879,36.8885441 L6.6697772,37.1426383 L6.6697772,37.4705768 C6.6697772,37.4705768 6.83264099,37.2316004 6.83264099,37.4705768 L6.6697772,37.5450026 L6.83264099,37.5450026 C7.1439303,37.5450026 6.83264099,37.5450026 6.83264099,37.5450026 L6.6697772,37.7833976 L6.6697772,38.0217927 L6.83264099,38.0217927 L6.83264099,38.2613506 L6.6697772,38.2613506 L6.6697772,38.3503126 L6.83264099,38.3503126 C6.83264099,38.5892891 6.83264099,38.5892891 7.1439303,38.6637149 C6.83264099,38.6637149 7.1439303,38.7526769 6.83264099,38.6637149 L6.83264099,38.9021099 C7.1439303,38.9021099 7.1439303,38.8428019 7.21843182,38.8428019 L7.21843182,38.9021099 L7.1439303,38.9021099 L6.6697772,39.4690249 L6.83264099,39.5591499 C6.83264099,39.6329942 6.83264099,39.6329942 6.6697772,39.7219562 L6.19562411,39.7219562 Z M3.39460369,33.4283275 L3.39460369,33.4283275 L3.55804501,33.4283275 C3.55804501,33.3690195 3.631969,33.3690195 3.55804501,33.3690195 L3.4540894,33.3690195 C3.23231743,33.3690195 3.08331439,32.9515374 2.8465266,32.8021045 L3.0093904,32.8021045 C3.08331439,32.8021045 3.08331439,32.8765302 3.08331439,32.9515374 L3.32125723,32.9515374 L3.32125723,32.8021045 L3.39460369,32.8021045 L3.631969,32.8021045 C3.55804501,32.8021045 3.55804501,32.8765302 3.55804501,32.8765302 L3.39460369,33.1155067 L3.4540894,33.1155067 L3.631969,33.2788945 C3.77981698,33.1155067 3.631969,33.1155067 3.631969,32.9515374 L3.631969,32.8765302 C3.77981698,32.8021045 3.77981698,32.8765302 3.8543185,32.8765302 C3.9432583,32.8765302 3.9432583,32.8021045 3.9432583,32.8021045 L3.9432583,32.8765302 L4.09168382,32.8765302 L3.9432583,32.8021045 L4.09168382,32.6375537 L3.9432583,32.6375537 L3.9432583,32.3096152 C3.9432583,32.2351894 3.77981698,32.3096152 3.631969,32.2351894 C3.631969,32.145646 3.77981698,32.145646 3.77981698,31.9967944 L3.9432583,32.145646 L3.9432583,32.2351894 L3.9432583,32.3096152 C4.09168382,32.3096152 4.09168382,32.2351894 4.2395318,32.2351894 L4.2395318,32.3096152 C4.47689711,32.3096152 4.47689711,32.3096152 4.47689711,32.384041 C4.47689711,32.3096152 4.2395318,32.2351894 4.2395318,32.145646 C4.09168382,32.145646 4.09168382,32.145646 3.9432583,32.2351894 L3.9432583,32.145646 L3.9432583,31.9967944 L3.631969,31.5043052 L3.9432583,31.6682744 L4.2395318,31.5043052 L4.09168382,31.5043052 C3.9432583,31.5043052 3.9432583,31.5043052 3.9432583,31.429298 L3.9432583,31.2659102 L4.2395318,31.2659102 C3.9432583,30.2216236 3.39460369,29.4163136 2.5352373,28.8493986 L2.60916129,28.8493986 C3.08331439,29.0133679 3.39460369,29.4163136 3.631969,29.7302973 C3.55804501,29.1773371 3.32125723,28.8493986 3.08331439,28.462152 C2.77260261,27.8202298 2.4462975,27.4027478 2.20950972,26.7765248 C2.20950972,26.7765248 2.20950972,26.6863998 2.20950972,26.7765248 C3.0093904,27.5812533 3.4540894,28.7749728 3.9432583,29.8192593 L3.9432583,29.4913208 C3.55804501,28.5365778 3.08331439,27.4027478 2.68366281,26.2096098 L2.5352373,26.2096098 C2.20950972,26.1200663 2.20950972,25.5676875 1.7497949,25.5676875 L1.20171782,25.5676875 C1.12779383,25.8810898 1.05386984,26.2096098 1.20171782,26.6863998 C1.20171782,26.9253763 1.58693111,27.1643528 1.7497949,27.3428583 C1.82429643,27.4027478 1.98716022,27.6562606 1.7497949,28.0592063 C1.58693111,28.2231756 1.20171782,28.2231756 1.12779383,28.5365778 C1.12779383,28.5365778 1.12779383,28.8493986 1.20171782,28.8493986 C1.67587091,29.4913208 2.60916129,29.8192593 2.4462975,30.7135314 C2.20950972,31.2659102 1.7497949,31.5043052 1.98716022,31.9967944 C2.20950972,32.384041 2.20950972,32.8021045 2.60916129,32.9515374 L2.68366281,32.9515374 L2.8465266,32.9515374 C3.0093904,32.9515374 2.8465266,33.1155067 2.8465266,33.2788945 L3.08331439,33.2788945 L3.08331439,33.3690195 L3.39460369,33.4283275 Z M5.9582588,34.1592118 L5.9582588,34.084786 L5.72147101,34.084786 L5.72147101,33.9208167 C5.72147101,33.846391 5.9582588,33.846391 5.9582588,33.846391 L5.9582588,33.6824217 L6.12170012,33.6824217 L6.19562411,33.6824217 C6.19562411,33.6824217 6.19562411,33.6074145 6.3584879,33.6074145 L6.50691341,33.6824217 C6.50691341,33.6074145 6.3584879,33.6074145 6.3584879,33.4283275 L6.3584879,33.3690195 C6.3584879,33.2788945 6.12170012,33.2788945 6.12170012,33.1155067 C6.12170012,32.9515374 6.12170012,33.1155067 6.19562411,33.1155067 C5.9582588,32.6375537 5.64697527,32.145646 5.26176197,31.5043052 C5.18783798,31.6682744 4.9510502,31.6682744 4.9510502,31.9072509 C4.9510502,32.2351894 5.02497419,32.5480102 5.3362635,32.712561 C5.49912729,32.8021045 5.64697527,32.8021045 5.72147101,32.8765302 C5.72147101,33.3690195 5.3362635,33.6824217 5.72147101,34.084786 L5.9582588,34.1592118 Z" id="Shape" fill="#FEFEFE"></path>
                        <polygon id="Path" fill="#020303" points="5.46897438 33.5781093 5.57293 33.5781093 5.57293 33.5182199 5.46897438 33.5182199"></polygon>
                        <path d="M23.0895083,42.1098022 C22.9999909,42.1098022 22.9999909,42.1098022 22.9999909,41.8847806 C22.9999909,41.7068565 22.7632031,41.46788 22.5258378,41.1538963 L22.7632031,41.1538963 C22.9999909,41.0649343 23.4007976,40.9899271 23.6381629,41.0649343 L23.7115093,41.1538963 C23.6381629,41.46788 23.6381629,41.7068565 23.5486455,41.7958185 C23.4007976,41.8847806 23.326296,42.1098022 23.0895083,42.1098022 L23.0895083,42.1098022 Z M23.6381629,42.9296486 C23.5486455,42.9296486 23.5486455,42.7650978 23.4747216,42.7650978 L23.2373562,42.4371593 C23.7115093,41.8847806 24.4080119,41.3934543 25.1934543,41.0649343 C24.6453772,41.7068565 24.1856624,42.3476158 23.6381629,42.9296486 L23.6381629,42.9296486 Z M33.0028309,46.702686 L33.0028309,46.702686 L33.476984,46.4642909 C33.476984,46.4642909 33.3141202,46.3892837 33.3141202,46.4642909 L33.0773324,46.4642909 C33.0028309,46.4642909 33.0028309,46.4642909 32.8393895,46.702686 L33.0028309,46.702686 Z M29.1795745,48.3138875 L29.1795745,48.3138875 C29.8021531,48.2394617 30.2612904,48.2394617 30.9728088,47.9115232 L30.9728088,47.8213982 C30.9728088,47.8213982 30.809945,47.8213982 30.9728088,47.8213982 L30.5725797,47.8213982 C30.5725797,47.9115232 30.2612904,47.8213982 30.2612904,47.8213982 C30.3502302,47.8213982 30.2612904,47.8213982 30.2612904,47.8213982 L30.1873664,47.8213982 L29.1795745,48.3138875 Z M35.0328529,39.6182835 L34.5592774,39.6182835 L34.5592774,39.4543142 C34.4847759,39.140912 34.5592774,38.8873992 34.7077029,38.7379662 C35.0328529,38.573997 35.4186438,38.6490042 35.8922193,38.6490042 C36.2780102,38.6490042 36.7371474,38.7379662 37.1373765,38.6490042 L37.6860312,38.6490042 L37.5376056,38.6490042 L37.3747419,38.7379662 C37.0634525,38.8269283 36.9005888,39.0664862 36.7371474,39.140912 C36.2040862,39.5438577 35.5815076,39.6182835 35.0328529,39.6182835 L35.0328529,39.6182835 Z M33.9361212,40.7521135 L33.9361212,40.7521135 L34.6332014,40.7521135 C35.1812785,40.4986007 35.5815076,40.184617 35.9667208,39.9468034 C35.3447198,40.0212292 34.5592774,39.7822527 33.699911,39.7822527 L33.476984,39.7822527 C33.3141202,39.9468034 33.2401962,40.184617 33.3141202,40.3491677 C33.3141202,40.4986007 33.476984,40.4986007 33.476984,40.4986007 C33.6254095,40.7521135 33.699911,40.7521135 33.9361212,40.7521135 L33.9361212,40.7521135 Z M32.3063283,41.8847806 L32.0695405,41.8847806 C31.8321752,41.8847806 31.5953874,41.7958185 31.5214634,41.46788 C31.4475394,41.3934543 31.5953874,41.0649343 31.8321752,40.9899271 C32.8393895,40.4986007 33.9361212,41.0649343 34.8705667,41.0649343 C34.0851243,41.7068565 33.2401962,41.8847806 32.3063283,41.8847806 L32.3063283,41.8847806 Z M30.3502302,43.0040743 L30.3502302,43.0040743 C30.9728088,43.0040743 31.4475394,43.0040743 32.0695405,42.9296486 C32.4547538,42.8401051 32.8393895,42.6906721 33.2401962,42.4371593 C32.4547538,42.4371593 31.5953874,41.8847806 30.9728088,41.7958185 C30.5725797,41.7958185 30.1873664,41.8847806 29.9650169,42.1098022 C29.6387118,42.1098022 29.5647878,42.4371593 29.6387118,42.8401051 C29.8021531,42.8401051 29.8021531,42.9296486 29.8021531,42.9296486 L30.3502302,43.0040743 Z M28.6164816,44.1227866 C28.4686336,44.1227866 28.4091479,44.1227866 28.3051923,44.0477794 C28.0828428,44.0477794 27.919979,43.8843916 27.6976295,43.7349586 C27.6976295,43.5709893 27.6976295,43.2430508 27.919979,43.0040743 C28.9427867,42.6906721 30.1873664,43.2430508 31.3580221,43.4058572 C31.4475394,43.5709893 31.9060992,43.5709893 32.2324043,43.5709893 C31.9060992,43.7349586 31.5214634,43.7349586 31.3580221,43.7349586 C30.3502302,44.0477794 29.5647878,44.1227866 28.6164816,44.1227866 L28.6164816,44.1227866 Z M26.8232473,45.3455787 L26.8232473,45.3455787 C27.919979,45.3455787 28.9427867,45.2414989 30.1873664,44.9280966 C30.5725797,44.9280966 30.809945,44.7786636 31.2840981,44.4507251 C29.6387118,44.9280966 28.0828428,44.1227866 26.5125355,44.0477794 C26.216262,44.0477794 25.9638809,44.1227866 25.9638809,44.4507251 C25.9638809,44.9280966 25.9638809,45.0926473 26.1417605,45.2414989 C26.2757477,45.2414989 26.6748218,45.2414989 26.8232473,45.3455787 L26.8232473,45.3455787 Z M31.5214634,47.507996 C30.2612904,47.1800575 28.9427867,46.9416624 27.6092672,46.4642909 C26.9121871,46.1363524 26.2757477,45.9723831 25.7415314,45.7334067 L24.956089,45.5845551 L24.7187237,45.4798939 L24.6453772,45.5845551 L24.4825135,45.5845551 L24.4080119,45.8973759 L24.1856624,45.8973759 C24.0967226,45.9723831 24.1856624,46.0619266 24.0967226,46.0619266 L24.0967226,45.9723831 L24.0967226,45.8229502 L25.1195303,45.0926473 L25.3568956,45.2414989 L25.4302421,45.3455787 L25.5792452,45.3455787 L25.7415314,45.4798939 L25.7415314,45.5845551 L25.9638809,45.5845551 L25.9638809,45.3455787 C26.1417605,45.3455787 26.1417605,45.5845551 26.216262,45.5845551 C26.2757477,45.5845551 26.216262,45.5845551 26.216262,45.5845551 L26.2757477,45.5845551 L26.4386115,45.5845551 C26.5125355,45.5845551 26.6748218,45.5845551 26.7493233,45.7334067 C26.8232473,45.7334067 26.9121871,45.7334067 26.9121871,45.5845551 L27.2979779,45.8229502 C27.2979779,45.7334067 27.5347657,45.8229502 27.6092672,45.7334067 C27.6092672,45.7334067 27.6976295,45.7334067 27.6976295,45.5845551 C27.6976295,45.5845551 27.6976295,45.7334067 27.919979,45.7334067 C29.1795745,45.9723831 30.6470812,46.1363524 32.0695405,46.3009031 L31.5953874,47.507996 L31.5214634,47.507996 Z M30.809945,45.9723831 L30.809945,45.9723831 L33.476984,45.9723831 C33.699911,45.9723831 33.9361212,45.9723831 34.1734866,45.8973759 L34.7960652,44.9280966 C33.8621973,44.9280966 32.7654656,45.0926473 31.7582512,45.0926473 C31.5953874,45.0926473 31.7582512,45.2414989 31.5953874,45.2414989 C31.5214634,45.3455787 31.5214634,45.2414989 31.5214634,45.2414989 L31.4475394,45.2414989 C31.3580221,45.2414989 31.4475394,45.2414989 31.4475394,45.3455787 L31.3580221,45.2414989 L31.2840981,45.2414989 L31.1206568,45.2414989 L31.1206568,45.3455787 L31.1206568,45.4798939 L30.9728088,45.2414989 L30.809945,45.2414989 C30.7354435,45.2414989 30.7354435,45.3455787 30.7354435,45.4798939 L30.2612904,45.5845551 L30.1873664,45.5845551 L30.0395184,45.5845551 L29.8021531,45.8229502 L30.809945,45.9723831 Z M32.4547538,44.3611816 L32.0695405,44.3611816 C32.4547538,44.1227866 32.8393895,44.2861744 33.2401962,44.0477794 L33.0773324,43.8843916 C32.3063283,44.0477794 31.4475394,44.3611816 30.809945,44.1227866 C30.9728088,44.0477794 31.2840981,44.0477794 31.3580221,44.0477794 C32.4547538,43.2430508 33.6254095,44.0477794 34.6332014,43.8843916 C33.9361212,44.1227866 33.0028309,44.3611816 32.4547538,44.3611816 L32.4547538,44.3611816 Z M33.476984,43.3174766 L33.476984,43.3174766 C34.6332014,43.3174766 35.8922193,42.6906721 36.9005888,42.1098022 L37.0634525,42.1098022 L36.6632234,42.1098022 C35.0328529,42.1098022 33.699911,42.3476158 32.2324043,43.0040743 C32.3063283,43.2430508 32.6176176,43.2430508 32.7654656,43.2430508 C33.5514855,43.0040743 34.0112003,42.9296486 34.6332014,42.6906721 L34.7960652,42.6906721 C34.7960652,42.8401051 34.6332014,42.8401051 34.6332014,42.9296486 C34.0851243,43.0040743 33.699911,43.2430508 33.3141202,43.3174766 L33.476984,43.3174766 Z M35.3447198,41.7958185 L35.3447198,41.7958185 C35.8188729,41.7068565 36.2040862,41.46788 36.6632234,41.46788 C37.1373765,41.0649343 37.7599551,40.9899271 38.21967,40.4986007 C38.0851052,40.4986007 37.9967429,40.7521135 37.6860312,40.4986007 C37.3008179,40.7521135 36.9005888,40.4986007 36.4408739,40.4986007 L34.5592774,41.46788 C34.6332014,41.7068565 34.7960652,41.7958185 34.8705667,41.7068565 C35.3447198,41.7068565 35.8188729,41.3033293 36.2040862,41.1538963 L36.2780102,41.3033293 L35.3447198,41.7958185 Z M37.0634525,40.2596242 L37.0634525,40.2596242 C37.5376056,40.184617 37.9967429,40.0212292 38.4714736,39.7822527 C39.0940522,39.6182835 39.4047639,39.3798884 39.9534185,38.6490042 C39.3308399,38.8873992 38.6938231,39.140912 37.9967429,39.0664862 C37.5376056,39.5438577 36.7371474,39.6182835 36.4408739,40.0212292 C36.4408739,40.184617 36.5892995,40.184617 36.7371474,40.184617 C36.9005888,40.0212292 36.9745127,39.7822527 37.0634525,39.7822527 L37.3008179,39.7822527 L36.9005888,40.184617 C36.9005888,40.2596242 36.9745127,40.184617 37.0634525,40.2596242 L37.0634525,40.2596242 Z M38.0851052,38.6490042 L37.9967429,38.6490042 C38.21967,38.3361834 38.4714736,38.3361834 38.6193215,38.2611762 C38.7821853,38.0070819 39.0940522,38.0070819 39.1673986,37.7692684 L37.9967429,38.3361834 L37.9967429,38.2611762 C38.21967,38.0070819 38.8561093,37.7692684 39.1673986,37.4552847 L39.1673986,37.2168896 C39.3308399,37.1279276 39.4047639,37.0535018 39.4047639,36.8738334 C39.3308399,36.7994076 39.2419001,36.7994076 39.2419001,36.7244004 C39.4047639,36.3220361 39.9534185,36.0685234 40.0273425,35.6056881 L39.9534185,35.6056881 L39.3308399,36.0685234 L39.3308399,35.9935161 C39.9534185,35.2783311 40.8861314,35.5161446 41.7460753,35.2783311 C41.9828631,35.2783311 41.9828631,34.9503925 42.0573646,34.9503925 C41.7460753,35.5161446 41.5092875,35.9342081 41.1234967,36.0685234 C40.664937,36.5610126 40.249692,36.8738334 39.7899772,36.8738334 L40.5754196,36.0685234 L39.5682053,36.7994076 L39.5682053,36.8738334 C39.5682053,36.9633769 39.4047639,37.1279276 39.3308399,37.2168896 C39.3308399,37.2168896 39.1673986,37.2168896 39.3308399,37.4552847 C39.7899772,37.4552847 40.4119783,37.1279276 40.8861314,37.0535018 C40.249692,37.5302919 39.5682053,38.2611762 38.8561093,38.6490042 L38.0851052,38.6490042 Z M24.0967226,44.7786636 L24.0967226,44.7786636 C24.4080119,44.6891202 24.6453772,44.2861744 24.7187237,44.0477794 C25.4302421,42.9296486 25.7415314,41.7958185 26.7493233,40.9899271 C25.4302421,41.46788 24.1856624,42.4371593 23.4747216,43.8843916 C23.4007976,44.1227866 23.4747216,44.2861744 23.5486455,44.3611816 C23.6381629,44.4507251 23.7860109,44.6891202 24.0967226,44.7786636 L24.0967226,44.7786636 Z M25.9049727,44.1227866 C25.7415314,44.0477794 25.5792452,44.0477794 25.5047436,43.8843916 C25.4302421,43.7349586 25.4302421,43.6454151 25.4302421,43.4058572 C25.8154554,42.1098022 27.0606126,41.0649343 28.0828428,40.4986007 C27.5347657,41.0649343 27.0606126,41.8847806 26.7493233,43.0040743 C26.5125355,43.4058572 26.4386115,44.0477794 25.9049727,44.1227866 L25.9049727,44.1227866 Z M27.5347657,43.0040743 L27.5347657,43.0040743 C27.919979,43.0040743 28.0828428,42.9296486 28.4686336,42.5267028 C28.9427867,41.8847806 28.9427867,40.7521135 29.5647878,40.0212292 C28.6164816,40.4986007 27.919979,41.3033293 27.2979779,42.1098022 C27.0606126,42.3476158 27.0606126,42.7650978 27.2979779,42.9296486 C27.2979779,43.0040743 27.4602642,43.0040743 27.5347657,43.0040743 L27.5347657,43.0040743 Z M29.6387118,41.8847806 C29.5647878,41.8847806 29.4908638,41.7958185 29.4169398,41.7068565 C29.1795745,41.1538963 29.4169398,40.8265392 29.5647878,40.4986007 C30.1873664,39.9468034 30.7354435,39.4543142 31.3580221,39.140912 C30.9728088,39.707827 30.809945,40.7521135 30.3502302,41.3934543 C30.2612904,41.7068565 30.0395184,41.8847806 29.6387118,41.8847806 L29.6387118,41.8847806 Z M31.3580221,41.0649343 L31.3580221,41.0649343 C31.4475394,40.9899271 31.8321752,40.9899271 31.9060992,40.7521135 C32.3063283,39.9468034 32.3063283,38.8269283 32.8393895,38.3361834 L33.0028309,38.3361834 L32.8393895,38.3361834 C32.2324043,38.7379662 31.3580221,39.6182835 30.9728088,40.4986007 C31.1206568,40.7521135 31.1206568,40.8265392 31.1206568,40.9899271 L31.3580221,41.0649343 Z M32.8393895,39.9468034 L32.7654656,39.7822527 C32.6176176,39.707827 32.6176176,39.5438577 32.6176176,39.140912 C33.0028309,38.6490042 33.5514855,38.0070819 33.9361212,37.5302919 C33.9361212,37.7692684 33.8621973,38.0070819 33.699911,38.2611762 C33.699911,38.6490042 33.699911,39.3798884 33.476984,39.707827 C33.3141202,39.7822527 33.0773324,39.9468034 32.8393895,39.9468034 L32.8393895,39.9468034 Z M34.0851243,38.8873992 L34.0851243,38.8873992 L34.6332014,38.7379662 C34.8705667,38.2611762 34.8705667,37.4552847 35.1812785,36.7244004 C34.5592774,37.1279276 34.0112003,37.7692684 33.9361212,38.573997 C33.9361212,38.6490042 34.0112003,38.7379662 34.0112003,38.8873992 L34.0851243,38.8873992 Z M35.5815076,38.0070819 C35.4186438,38.0070819 35.3447198,38.0070819 35.3447198,37.7692684 C35.1812785,37.5302919 35.3447198,37.1279276 35.4186438,36.8738334 C35.6560091,36.4115796 36.1295846,35.9342081 36.5153755,35.6056881 C36.1295846,36.0685234 36.2040862,36.9633769 36.1295846,37.5302919 C35.9667208,37.7692684 35.8188729,38.0070819 35.5815076,38.0070819 L35.5815076,38.0070819 Z M36.5153755,37.0535018 C36.4408739,37.0535018 36.4408739,36.9633769 36.4408739,36.9633769 L36.4408739,36.0685234 C36.9745127,35.3672931 37.6121072,34.4724396 38.4714736,33.6671295 L39.1673986,33.1153323 C39.0940522,32.9362453 39.0940522,32.9362453 38.9306108,32.9362453 L38.6193215,33.3531458 C38.6193215,32.9362453 38.7821853,32.7873937 38.9306108,32.5332995 C39.1673986,32.1309352 39.3308399,31.6535637 39.5682053,31.5047122 C39.4786879,31.9815023 39.4786879,32.5332995 39.4786879,32.9362453 C39.3308399,33.3531458 39.0940522,33.8316803 38.6193215,34.0700753 L38.4714736,33.8316803 C37.6860312,34.4724396 37.3747419,35.5161446 37.0634525,36.7244004 C36.9005888,36.8738334 36.7371474,37.1279276 36.5153755,37.0535018 L36.5153755,37.0535018 Z M37.9967429,36.0685234 C37.9083807,36.0685234 37.6860312,36.0685234 37.6860312,35.9935161 C37.6121072,35.9935161 37.6121072,35.9342081 37.6121072,35.6806953 C37.5376056,35.5161446 37.6860312,35.2783311 37.9967429,34.9503925 C39.1673986,34.4724396 39.7899772,33.6671295 40.4119783,32.7873937 C39.7899772,33.6671295 39.2419001,34.7108346 38.6938231,35.6056881 C38.4714736,35.9935161 38.21967,36.0685234 37.9967429,36.0685234 L37.9967429,36.0685234 Z M36.4408739,38.3361834 L36.4408739,38.3361834 C37.3747419,38.3361834 38.0851052,38.0070819 38.9306108,37.4552847 C38.4714736,37.2168896 37.9083807,37.5302919 37.3747419,37.4552847 L37.9083807,37.4552847 C38.6938231,36.8738334 39.1673986,35.6806953 39.8644787,35.2783311 L40.175768,34.9503925 C40.4119783,35.2783311 40.7238451,35.2783311 41.2719222,34.9503925 C41.9828631,34.4724396 42.2947299,33.6671295 42.6054417,32.9362453 C42.1318661,33.4136168 41.434786,33.6671295 40.5754196,33.906106 C40.4119783,34.1590373 40.175768,34.2334631 40.175768,34.7108346 C40.175768,34.9503925 39.4786879,35.3672931 39.2419001,35.6806953 C38.6193215,36.4115796 37.3747419,36.0685234 36.9005888,37.0535018 L36.9005888,37.2168896 L37.3008179,37.4552847 L37.0634525,37.4552847 C36.7371474,37.4552847 36.4408739,37.5302919 36.1295846,37.7692684 L35.8922193,38.0070819 C35.8922193,38.2611762 35.9667208,38.2611762 35.9667208,38.3361834 L36.4408739,38.3361834 Z M41.434786,33.3531458 C41.2719222,33.3531458 41.1234967,33.2787201 41.0351344,33.1153323 C41.0351344,32.862401 41.0351344,32.7873937 41.1234967,32.6234245 C41.5092875,31.9815023 42.5170794,32.2198973 43.0651565,31.6535637 C42.8277912,32.1309352 42.5170794,32.5332995 42.1318661,32.9362453 C41.9828631,33.1153323 41.7460753,33.3531458 41.434786,33.3531458 L41.434786,33.3531458 Z M42.1318661,31.817533 L42.1318661,31.817533 C42.5170794,31.6535637 42.8277912,31.250618 43.0651565,30.7738279 C43.2280203,30.2813387 43.3908841,29.9679364 43.5393096,29.4016029 C43.0651565,29.9679364 42.5170794,30.2813387 42.0573646,30.7738279 C41.9828631,30.9383786 41.7460753,31.4145872 41.7460753,31.5047122 C41.9828631,31.6535637 41.9828631,31.6535637 42.1318661,31.817533 L42.1318661,31.817533 Z M42.5170794,30.1319057 L42.5170794,30.1319057 C43.0651565,29.8045486 43.1535188,29.1626264 43.2280203,28.7596807 C43.3908841,28.0444956 43.2280203,27.3886185 43.2280203,26.9100841 C42.8277912,27.5671241 42.5170794,28.2084648 42.1318661,29.0882006 C42.0573646,29.4016029 42.1318661,29.7301229 42.2947299,29.9679364 L42.5170794,30.1319057 Z M41.434786,30.9383786 C41.2719222,30.9383786 41.2719222,30.8482537 41.2719222,30.6994022 C41.0351344,29.9679364 41.5092875,29.1626264 41.7460753,28.5218671 C41.5092875,29.2370522 42.1318661,30.2063315 41.5092875,30.8482537 L41.434786,30.9383786 Z M40.249692,32.6234245 C40.4119783,32.6234245 40.4119783,32.6234245 40.4119783,32.5332995 L40.7238451,32.1309352 L40.7238451,32.2198973 C41.0351344,31.817533 40.8861314,31.5047122 40.7238451,30.9383786 C40.5754196,30.5348514 40.7238451,29.9679364 40.7238451,29.4016029 C40.4119783,30.1319057 40.249692,30.7738279 39.7899772,31.5047122 C39.7899772,31.8925402 39.7899772,32.2198973 39.9534185,32.5332995 C40.0273425,32.6234245 40.249692,32.5332995 40.249692,32.6234245 L40.249692,32.6234245 Z" id="Shape" fill="#FEFEFE"></path>
                        <path d="M6.22548247,37.2912573 L6.34445389,37.2912573 L6.38776873,37.2476484 C6.38776873,37.2476484 6.22548247,37.2476484 6.18101257,37.2912573 L6.22548247,37.2912573 Z" id="Path" fill="#020303"></path>
                        <path d="M6.22548247,37.1424639 L6.34445389,37.1424639 C6.22548247,37.0825744 6.22548247,37.0825744 6.18101257,37.0825744 L6.22548247,37.1424639 Z" id="Path" fill="#020303"></path>
                        <path d="M8.92214878,36.4707132 C8.92214878,36.4114052 8.87767888,36.3520971 8.87767888,36.2328996 C8.87767888,36.1730102 8.92214878,36.1730102 8.92214878,36.1730102 C8.92214878,36.0532312 9.02610439,36.0532312 8.92214878,35.9939232 L8.71539262,36.1730102 C8.71539262,36.2328996 8.87767888,36.2328996 8.87767888,36.4114052 L8.75928499,36.4707132 L8.71539262,36.4707132 C8.75928499,36.5753744 8.87767888,36.4114052 8.92214878,36.4707132 C8.92214878,36.4707132 8.92214878,36.5753744 8.92214878,36.4707132" id="Path" fill="#FEFEFE"></path>
                        <polygon id="Path" fill="#FEFEFE" points="9.04094694 36.352039 9.10043265 36.352039 9.10043265 36.172952 9.04094694 36.2328415"></polygon>
                        <path d="M8.19636535,35.6655776 C8.19636535,35.6208059 8.13687964,35.6208059 8.13687964,35.6208059 C8.03292403,35.6208059 8.03292403,35.6208059 8.13687964,35.6208059 C8.13687964,35.6208059 8.13687964,35.6655776 8.19636535,35.6655776" id="Path" fill="#FEFEFE"></path>
                        <path d="M37.9969739,34.890503 L37.9969739,34.890503 L38.0853362,34.7259523 L38.471127,34.2491623 L37.9080341,34.890503 L37.9969739,34.890503 Z M38.8563403,34.2491623 L38.7824163,34.2491623 L39.4049949,33.4432708 C39.4049949,33.4432708 39.331071,33.6072401 39.4049949,33.6822473 C39.331071,33.8462165 39.1676296,34.1747365 38.8563403,34.2491623 L38.8563403,34.2491623 Z M39.331071,34.9649288 L39.331071,34.9649288 L40.5750731,33.3694265 C40.2637838,33.8462165 39.4789189,34.3381243 39.331071,34.9649288 L39.331071,34.9649288 Z M38.2193234,37.2314259 L38.2193234,37.2314259 L39.1676296,36.740681 L39.1676296,36.4266973 L38.2193234,37.2314259 Z M29.8023841,44.3757179 L29.8023841,44.3757179 L30.6617505,44.3757179 C30.5728107,44.1373229 30.1875974,44.1373229 29.9652479,44.3012921 L29.5650188,44.3012921 C29.6389428,44.3757179 29.8023841,44.3757179 29.8023841,44.3757179 L29.8023841,44.3757179 Z M31.5956184,43.2575871 L31.5956184,43.2575871 L32.069194,43.2575871 C31.9063302,43.0186106 31.4471929,43.0186106 31.3582531,43.2575871 L31.5956184,43.2575871 Z M9.02627765,36.0836411 L9.02627765,36.0836411 C8.95235366,36.0086339 8.95235366,35.9487444 8.87785214,35.6958131 L8.71498835,35.6208059 L8.64048683,35.6208059 L8.64048683,35.6958131 L8.64048683,35.9487444 C8.71498835,36.0836411 8.87785214,35.9487444 8.95235366,35.9487444 L8.95235366,36.0836411 L9.02627765,36.0836411 Z M9.97458384,41.408572 L9.97458384,41.408572 L10.1224318,41.408572 C10.1224318,41.3190285 9.97458384,41.3190285 9.97458384,41.408572 L9.97458384,41.408572 Z M7.23304336,40.7666498 L7.23304336,40.7666498 L7.39590715,40.7666498 C7.39590715,40.513137 7.30696735,40.513137 7.23304336,40.513137 L7.15911937,40.513137 L7.23304336,40.7666498 Z M7.30696735,40.1997348 L7.30696735,40.1997348 L7.39590715,40.1997348 C7.39590715,39.9613397 7.30696735,39.796789 7.23304336,39.796789 L7.15911937,39.796789 L7.15911937,39.9613397 C7.23304336,40.0357655 7.23304336,40.1997348 7.23304336,40.1997348 L7.30696735,40.1997348 Z M7.63269493,40.513137 L7.39590715,40.274742 L7.63269493,40.1997348 C7.70719645,40.274742 7.85562196,40.274742 7.85562196,40.363704 C7.70719645,40.513137 7.70719645,40.513137 7.63269493,40.513137 L7.63269493,40.513137 Z M7.92954595,40.1997348 L7.92954595,40.1997348 C7.92954595,40.0357655 7.92954595,40.0357655 7.85562196,39.9613397 L7.85562196,40.0357655 C7.85562196,40.1997348 7.85562196,40.1997348 7.92954595,40.1997348 L7.92954595,40.1997348 Z M8.24083525,40.513137 L7.92954595,40.363704 L8.24083525,40.363704 L8.24083525,40.513137 Z M7.92954595,40.8410755 L7.92954595,40.8410755 L7.92954595,40.7666498 C7.92954595,40.7666498 7.92954595,40.513137 7.85562196,40.513137 L7.85562196,40.7666498 C7.85562196,40.7666498 7.85562196,40.8410755 7.92954595,40.8410755 L7.92954595,40.8410755 Z M7.63269493,41.080052 L7.63269493,41.080052 L7.70719645,41.0056262 C7.70719645,41.0056262 7.63269493,41.0056262 7.63269493,40.8410755 C7.63269493,40.8410755 7.39590715,40.8410755 7.39590715,41.0056262 L7.63269493,41.080052 Z M11.2197411,45.9124937 L11.2197411,45.9124937 L11.2197411,45.5996729 L10.9823757,45.5996729 C10.9823757,45.8374864 11.144662,45.8374864 11.2197411,45.9875009 L11.2197411,45.9124937 Z M10.6710864,44.9426329 L10.6710864,44.9426329 L10.7450104,44.9426329 C10.9823757,44.9426329 10.7450104,44.9426329 10.7450104,44.7937814 L10.6710864,44.7937814 L10.6710864,44.9426329 Z M10.2714349,45.1066022 L10.2714349,45.1066022 C10.4337211,45.1066022 10.4337211,45.1066022 10.4337211,44.9426329 C10.4337211,44.9426329 10.2714349,44.9426329 10.2714349,45.1066022 L10.2714349,45.1066022 Z M10.4337211,45.5996729 C10.4337211,45.3606964 10.2714349,45.2560352 10.4337211,45.2560352 L10.5082226,45.2560352 C10.5082226,45.3606964 10.6710864,45.5101294 10.5082226,45.5996729 L10.4337211,45.5996729 Z M10.1224318,45.5996729 L10.1224318,45.5996729 C10.1224318,45.5996729 10.1963558,45.5996729 10.1963558,45.5101294 L10.1224318,45.2560352 L10.1224318,45.5101294 L10.1224318,45.5996729 Z M19.4143309,46.7178037 L19.4143309,46.7178037 L19.962408,46.4049829 L19.4143309,45.9875009 L19.3398294,46.7178037 L19.4143309,46.7178037 Z M18.8656763,46.1508887 L18.8656763,46.1508887 L18.8656763,46.0764629 C19.0285401,46.0764629 18.8656763,46.0764629 18.8656763,45.9875009 C18.628311,45.9875009 18.628311,45.9875009 18.628311,46.0764629 C18.8656763,46.0764629 18.8656763,46.0764629 18.8656763,46.1508887 L18.8656763,46.1508887 Z M18.628311,45.8374864 L18.628311,45.8374864 L18.8656763,45.8374864 L18.8656763,45.7485244 L18.8656763,45.5996729 C18.8656763,45.5996729 18.628311,45.5996729 18.628311,45.7485244 L18.628311,45.8374864 Z M22.5260688,42.213882 L22.5260688,42.213882 C22.7628566,42.213882 22.7628566,42.213882 22.7628566,42.1237571 C22.7628566,41.9004798 22.7628566,41.9004798 22.5260688,42.1237571 L22.5260688,42.213882 Z M22.3782209,41.4829977 L22.3782209,41.4829977 L22.4515673,41.4829977 C22.4515673,41.408572 22.3782209,41.3190285 22.3782209,41.3190285 L22.3042969,41.3190285 L22.3042969,41.4829977 L22.3782209,41.4829977 Z M21.99243,41.9004798 L21.99243,41.9004798 L22.0669316,41.9004798 L22.0669316,41.7219742 L21.8445821,41.7219742 L21.8445821,41.9004798 L21.99243,41.9004798 Z M21.99243,42.3627335 L21.99243,42.3627335 L22.0669316,42.213882 L22.0669316,42.1237571 L21.8445821,42.1237571 L21.8445821,42.213882 L21.99243,42.3627335 Z M22.3782209,42.213882 L22.3782209,42.213882 L22.3782209,42.1237571 C22.3782209,41.9004798 22.3782209,41.9004798 22.3042969,42.1237571 L22.3042969,42.213882 L22.3782209,42.213882 Z M21.444353,42.3627335 L21.444353,42.3627335 L21.6817183,42.3627335 L21.6817183,42.1237571 L21.6817183,42.213882 C21.444353,42.3627335 21.444353,42.213882 21.3698514,42.3627335 L21.444353,42.3627335 Z M10.7450104,45.5101294 L10.7450104,45.5101294 L10.9823757,45.3606964 C11.144662,45.2560352 10.9823757,45.2560352 10.9823757,45.1066022 L10.7450104,45.1066022 C10.6710864,45.2560352 10.7450104,45.2560352 10.7450104,45.5101294 L10.7450104,45.5101294 Z M13.2491856,40.7666498 L13.2491856,40.7666498 C13.2491856,40.7666498 13.2491856,40.513137 13.1752616,40.513137 L13.1752616,40.7666498 L13.2491856,40.7666498 Z M4.49093689,31.5192485 L4.49093689,31.1918914 L4.49093689,30.9529149 L4.49093689,30.86279 C4.26974245,30.5493877 3.95787562,30.2220307 4.26974245,29.7440777 L4.49093689,30.2220307 L4.49093689,30.2970379 L4.49093689,30.5493877 L4.49093689,30.713357 C4.49093689,30.7883642 4.49093689,30.9529149 4.58045422,30.9529149 L4.58045422,31.2663172 L4.49093689,31.5192485 Z M4.26974245,31.9070765 L4.26974245,31.9070765 L4.49093689,31.6681 L4.49093689,31.5192485 L4.26974245,31.5192485 L4.26974245,31.6681 C4.26974245,31.8326507 4.10630113,31.8326507 4.26974245,31.9070765 L4.26974245,31.9070765 Z M1.69048823,30.1470234 L1.69048823,30.1470234 L1.76441222,30.1470234 L1.76441222,29.9836356 C1.69048823,29.9836356 1.69048823,29.9836356 1.69048823,30.1470234 L1.69048823,30.1470234 Z M2.15020304,30.5493877 L2.15020304,30.5493877 L2.15020304,30.2970379 L2.00235506,30.2970379 L2.07570152,30.5493877 L2.15020304,30.5493877 Z M1.76441222,30.5493877 L1.76441222,30.5493877 L1.76441222,30.2970379 L1.69048823,30.2970379 L1.76441222,30.5493877 Z M1.83891374,30.9529149 L1.83891374,30.9529149 C2.00235506,30.9529149 2.00235506,30.9529149 2.00235506,30.86279 L2.00235506,30.7883642 L1.76441222,30.7883642 L1.76441222,30.9529149 L1.83891374,30.9529149 Z M1.61656424,30.9529149 L1.69048823,30.9529149 L1.61656424,30.7883642 L1.45370045,30.713357 L1.45370045,30.9529149 L1.61656424,30.9529149 Z" id="Shape" fill="#FEFEFE"></path>
                        <path d="M22.4516251,1.52514775 C11.9307397,1.52514775 3.37979001,10.1457387 3.37979001,20.706057 C3.37979001,31.2657939 11.9307397,39.9015084 22.4516251,39.9015084 C32.9436339,39.9015084 41.5089988,31.2657939 41.5089988,20.706057 C41.5089988,10.1457387 32.9436339,1.52514775 22.4516251,1.52514775 M22.4371868,0.0627965943 C33.7290763,0.0627965943 42.9464739,9.35554643 42.9464739,20.7205933 C42.9464739,32.0711039 33.7290763,41.3632769 22.4371868,41.3632769 C11.1302815,41.3632769 1.91286083,32.0711039 1.91286083,20.7205933 C1.91286083,9.35554643 11.1302815,0.0627965943 22.4371868,0.0627965943" id="Shape" fill="#6C788F"></path>
                        <path d="M22.4516251,1.46235101 C11.8962611,1.46235101 3.31741665,10.1110261 3.31741665,20.706057 L3.44216338,20.706057 C3.44216338,10.1804514 11.9651605,1.58794449 22.4516251,1.58794449 L22.4516251,1.46235101 Z M3.31741665,20.706057 C3.31741665,31.3004484 11.8962033,39.9643051 22.4516251,39.9643051 L22.4516251,39.8387117 C11.9652183,39.8387117 3.44216338,31.2311394 3.44216338,20.706057 L3.31741665,20.706057 Z M22.4516251,39.9643051 C32.9781125,39.9643051 41.5713721,31.3004484 41.5713721,20.706057 L41.4466254,20.706057 C41.4466254,31.2311394 32.9090976,39.8387117 22.4516251,39.8387117 L22.4516251,39.9643051 Z M41.5713721,20.706057 C41.5713721,10.1110261 32.9780548,1.46235101 22.4516251,1.46235101 L22.4516251,1.58794449 C32.9091553,1.58794449 41.4466254,10.1804514 41.4466254,20.706057 L41.5713721,20.706057 Z M22.4371868,0.125593333 C33.69454,0.125593333 42.8841005,9.39020092 42.8841005,20.7205933 L43.0088472,20.7205933 C43.0088472,9.32089193 33.7635549,0 22.4371868,0 L22.4371868,0.125593333 Z M42.8841005,20.7205933 C42.8841005,32.0364494 33.6945977,41.3004802 22.4371868,41.3004802 L22.4371868,41.4260737 C33.7634972,41.4260737 43.0088472,32.1057584 43.0088472,20.7205933 L42.8841005,20.7205933 Z M22.4371868,41.3004802 C11.1647023,41.3004802 1.9752342,32.0363913 1.9752342,20.7205933 L1.85048747,20.7205933 C1.85048747,32.1058165 11.0958029,41.4260737 22.4371868,41.4260737 L22.4371868,41.3004802 Z M1.9752342,20.7205933 C1.9752342,9.39020092 11.1647023,0.125593333 22.4371868,0.125593333 L22.4371868,0 C11.0958029,0 1.85048747,9.32089193 1.85048747,20.7205933 L1.9752342,20.7205933 Z" id="Shape" fill="#6C788F" fill-rule="nonzero"></path>
                        <path d="M22.4671029,3.88224661 C31.6544688,3.88224661 39.1675719,11.4288854 39.1675719,20.690823 C39.1675719,29.953342 31.6544688,37.5302337 22.4671029,37.5302337 C13.2497054,37.5302337 5.72100899,29.953342 5.72100899,20.690823 C5.72100899,11.4288854 13.2497054,3.88224661 22.4671029,3.88224661" id="Path" fill="#024F98"></path>
                        <path d="M22.4814834,0.854025041 C33.3142357,0.854025041 42.1608582,9.77349361 42.1608582,20.7065222 C42.1608582,31.6389693 33.3142357,40.5433143 22.4814834,40.5433143 C11.589823,40.5433143 2.72762449,31.6389693 2.72762449,20.7065222 C2.72762449,9.77349361 11.589823,0.854025041 22.4814834,0.854025041" id="Path" fill="#FEFEFE"></path>
                        <path d="M22.4516251,7.23801713 C29.8168801,7.23801713 35.8185841,13.2787146 35.8185841,20.7061733 C35.8185841,28.1185143 29.8168801,34.1592118 22.4516251,34.1592118 C15.0719317,34.1592118 9.0708053,28.1185143 9.0708053,20.7061733 C9.0708053,13.2787146 15.0719317,7.23801713 22.4516251,7.23801713" id="Path" fill="#EC1D24"></path>
                        <path d="M22.4370135,4.22457024 C31.4620932,4.22457024 38.8123324,11.6072747 38.8123324,20.7203607 C38.8123324,29.7892565 31.4620932,37.1870612 22.4370135,37.1870612 C13.4125114,37.1870612 6.06227216,29.7892565 6.06227216,20.7203607 C6.06227216,11.6072747 13.4125114,4.22457024 22.4370135,4.22457024" id="Path" fill="#FEFEFE"></path>
                        <path d="M22.4370135,4.22457024 C31.4620932,4.22457024 38.8123324,11.6072747 38.8123324,20.7203607 C38.8123324,29.7892565 31.4620932,37.1870612 22.4370135,37.1870612 C13.4125114,37.1870612 6.06227216,29.7892565 6.06227216,20.7203607 C6.06227216,11.6072747 13.4125114,4.22457024 22.4370135,4.22457024 Z" id="Path" stroke="#6C788F" stroke-width="0.570191612"></path>
                        <path d="M22.4516828,7.50606617 C29.698544,7.50606617 35.5662607,13.4118669 35.5662607,20.7061733 C35.5662607,27.9993168 29.698544,33.905699 22.4516828,33.905699 C15.2053992,33.905699 9.33710493,27.9993168 9.33710493,20.7061733 C9.33710493,13.4118669 15.2053992,7.50606617 22.4516828,7.50606617" id="Path" fill="#FEFEFE"></path>
                        <path d="M22.4516828,7.50606617 C29.698544,7.50606617 35.5662607,13.4118669 35.5662607,20.7061733 C35.5662607,27.9993168 29.698544,33.905699 22.4516828,33.905699 C15.2053992,33.905699 9.33710493,27.9993168 9.33710493,20.7061733 C9.33710493,13.4118669 15.2053992,7.50606617 22.4516828,7.50606617 Z" id="Path" stroke="#6C788F" stroke-width="0.570191612"></path>
                        <polygon id="Path" fill="#6C788F" points="26.5123623 10.7874865 36.3523384 6.70046541 32.2767009 16.6339792 42.161147 20.706464 32.2767009 24.8231392 36.3523384 34.7403723 26.497924 30.6393964 22.4367248 40.5577925 18.3622423 30.6393964 8.49281211 34.7403723 12.5678721 24.8231392 2.71345187 20.706464 12.5678721 16.6339792 8.49281211 6.70046541 18.3322107 10.7874865 22.4367248 0.85397271"></polygon>
                        <polygon id="Path" fill="#FEFEFE" points="25.8454293 12.4580542 34.0111425 9.07284481 30.6169918 17.3201499 38.827175 20.7065222 30.6169918 24.1213856 34.0111425 32.3553173 25.8153976 28.9538273 22.4518561 37.1871775 19.0582829 28.9538273 10.8781314 32.3553173 14.2572663 24.1213856 6.07711471 20.7065222 14.2572663 17.3201499 10.8781314 9.07284481 19.0438446 12.4580542 22.4518561 4.22470979"></polygon>
                        <polygon id="Path" fill="#FEFEFE" points="25.6971193 12.785702 33.5365274 9.54934414 30.2757864 17.4541744 38.160242 20.7062315 30.2757864 23.9722433 33.5365274 31.8770736 25.682681 28.6110617 22.4513941 36.515892 19.1918081 28.6110617 11.3379617 31.8770736 14.5981252 23.9722433 6.72926291 20.7062315 14.5981252 17.4541744 11.3379617 9.54934414 19.1767923 12.785702 22.4513941 4.88030193"></polygon>
                        <path d="M21.8144927,28.0442049 C21.4887651,27.9552428 21.3259013,27.880817 21.014612,27.8052284 C19.6366226,26.8359491 19.1769078,24.9119268 18.9251042,23.1373374 L18.7616629,23.1373374 C18.5987991,24.0170732 18.8506027,24.7479575 19.087968,25.6276933 C18.5248751,24.9119268 18.4509511,24.1071982 18.1396618,23.286189 C17.9762205,21.6011431 18.4509511,19.6765394 19.3247558,18.3048958 L19.3247558,18.2298886 L19.3247558,19.4381443 C19.5626986,21.5267174 19.3247558,24.1810425 20.9256722,25.7178183 C21.014612,25.7178183 21.16246,25.7178183 21.16246,25.6276933 C21.16246,24.6729503 20.5260206,23.942066 20.3625793,22.898361 C20.05129,22.0180437 19.977366,21.4365924 19.7989089,20.7202444 C19.6366226,18.3048958 20.3625793,15.9633914 21.6516289,14.3678891 L21.6516289,14.8446792 C21.6516289,15.4854385 21.6516289,16.380292 21.8144927,16.7832378 C21.9629182,17.1856021 21.9629182,17.5885478 21.9629182,17.8275243 C22.125782,18.8863471 22.4370713,19.8410901 22.6888749,20.7958331 C22.7627989,21.1976159 22.9256627,21.5267174 22.9256627,22.0180437 C23.3264693,23.4501582 22.3631473,25.1503218 22.7627989,26.1946083 C22.9256627,26.4330033 23.2375295,26.4330033 23.3264693,26.4330033 L23.3264693,26.030639 C24.5260015,21.5267174 20.4365033,16.7832378 22.7627989,12.2641984 C22.6888749,15.1720362 24.5260015,17.1856021 25.163596,19.8410901 C25.8011904,22.0180437 26.0379782,24.1071982 25.3264598,26.030639 C25.0746562,26.8359491 24.7633669,27.4022826 24.2008515,27.880817 C23.8000449,27.9552428 23.3264693,27.9552428 23.2375295,27.6418406 C22.6888749,27.6418406 22.3631473,28.1331669 21.8144927,28.0442049 M25.0746562,27.1493513 C26.3492675,25.9556318 27.1647415,24.6729503 27.4904691,23.1373374 C28.2759115,19.2741751 25.4009613,16.7832378 23.9634862,14.3678891 C24.2008515,17.1856021 26.2158578,19.4381443 26.0379782,22.331446 C26.1119022,24.0170732 25.9640542,25.6276933 25.163596,26.8359491 C25.0746562,27.0004998 25.0746562,27.1493513 25.0746562,27.1493513" id="Shape" fill="#6C788F"></path>
                        <path d="M30.3915237,37.5302919 C30.3915237,37.9559142 30.0478926,38.3024592 29.6245623,38.3024592 C29.2006544,38.3024592 28.8570233,37.9559142 28.8570233,37.5302919 C28.8570233,37.1035066 29.2006544,36.7575431 29.6245623,36.7575431 C30.0478926,36.7575431 30.3915237,37.1035066 30.3915237,37.5302919" id="Path" fill="#6C788F"></path>
                        <path d="M39.9348798,27.6825422 C39.9348798,28.1087459 39.5912487,28.4547095 39.1673409,28.4547095 C38.743433,28.4547095 38.4003795,28.1087459 38.4003795,27.6825422 C38.4003795,27.2563384 38.743433,26.9103748 39.1673409,26.9103748 C39.5912487,26.9103748 39.9348798,27.2563384 39.9348798,27.6825422" id="Path" fill="#6C788F"></path>
                        <path d="M39.9348798,13.9054028 C39.9348798,14.3316065 39.5912487,14.6775701 39.1673409,14.6775701 C38.743433,14.6775701 38.4003795,14.3316065 38.4003795,13.9054028 C38.4003795,13.4786175 38.743433,13.132654 39.1673409,13.132654 C39.5912487,13.132654 39.9348798,13.4786175 39.9348798,13.9054028" id="Path" fill="#6C788F"></path>
                        <path d="M30.1670373,3.88221753 C30.1670373,4.30783988 29.8234062,4.65380339 29.3994984,4.65380339 C28.976168,4.65380339 28.632537,4.30783988 28.632537,3.88221753 C28.632537,3.45543229 28.976168,3.10946877 29.3994984,3.10946877 C29.8234062,3.10946877 30.1670373,3.45543229 30.1670373,3.88221753" id="Path" fill="#6C788F"></path>
                        <path d="M16.0767782,3.88221753 C16.0767782,4.30783988 15.7331472,4.65380339 15.3098168,4.65380339 C14.8859089,4.65380339 14.5428554,4.30783988 14.5428554,3.88221753 C14.5428554,3.45543229 14.8859089,3.10946877 15.3098168,3.10946877 C15.7331472,3.10946877 16.0767782,3.45543229 16.0767782,3.88221753" id="Path" fill="#6C788F"></path>
                        <path d="M6.48854792,13.9054028 C6.48854792,14.3316065 6.14491687,14.6775701 5.72158652,14.6775701 C5.29769596,14.6775701 4.95406492,14.3316065 4.95406492,13.9054028 C4.95406492,13.4786175 5.29769596,13.132654 5.72158652,13.132654 C6.14491687,13.132654 6.48854792,13.4786175 6.48854792,13.9054028" id="Path" fill="#6C788F"></path>
                        <path d="M6.48854792,27.6825422 C6.48854792,28.1087459 6.14491687,28.4547095 5.72158652,28.4547095 C5.29769596,28.4547095 4.95406492,28.1087459 4.95406492,27.6825422 C4.95406492,27.2563384 5.29769596,26.9103748 5.72158652,26.9103748 C6.14491687,26.9103748 6.48854792,27.2563384 6.48854792,27.6825422" id="Path" fill="#6C788F"></path>
                        <path d="M16.0767782,37.5302919 C16.0767782,37.9559142 15.7331472,38.3024592 15.3098168,38.3024592 C14.8859089,38.3024592 14.5428554,37.9559142 14.5428554,37.5302919 C14.5428554,37.1035066 14.8859089,36.7575431 15.3098168,36.7575431 C15.7331472,36.7575431 16.0767782,37.1035066 16.0767782,37.5302919" id="Path" fill="#6C788F"></path>
                    </g>
                </g>
            </g>
        </g>
    </g>
</svg>