<?xml version="1.0" encoding="UTF-8"?>
<svg width="160px" height="45px" viewBox="0 0 160 45" version="1.1" xmlns="http://www.w3.org/2000/svg" xmlns:xlink="http://www.w3.org/1999/xlink">
    <title>myGov</title>
    <defs>
        <filter color-interpolation-filters="auto" id="filter-1">
            <feColorMatrix in="SourceGraphic" type="matrix" values="0 0 0 0 0.529412 0 0 0 0 0.568627 0 0 0 0 0.643137 0 0 0 1.000000 0"></feColorMatrix>
        </filter>
    </defs>
    <g id="Page-1" stroke="none" stroke-width="1" fill="none" fill-rule="evenodd">
        <g id="myGov" transform="translate(-948.000000, -1780.000000)" filter="url(#filter-1)">
            <g transform="translate(948.000000, 1780.000000)">
                <path d="M118.727974,27.273618 C116.731054,29.552534 114.123078,30.6928564 110.906596,30.6928564 C107.689477,30.6928564 104.887799,29.5584248 102.502836,27.2911624 C100.117236,25.0230676 98.9257107,22.1681956 98.9257107,18.7272508 C98.9257107,15.286306 100.122971,12.431434 102.519403,10.1633392 C104.915835,7.89524443 107.711778,6.76081284 110.906596,6.76081284 C114.190619,6.76081284 116.79732,7.87776405 118.727974,10.1124348 L115.731956,13.5316092 C115.221576,12.9506588 114.539156,12.4756792 113.685336,12.1075028 C112.830878,11.738558 111.905056,11.5540856 110.906596,11.5540856 C109.109113,11.5540856 107.561404,12.235244 106.263469,13.5983932 C104.965535,14.9616064 104.316886,16.6486868 104.316886,18.6596344 C104.316886,20.670582 104.971269,22.3802012 106.280036,23.7876596 C107.588803,25.195054 109.131414,25.8995836 110.906596,25.8995836 C112.370835,25.8995836 113.574467,25.5473508 114.517492,24.8435896 C115.461155,24.1398924 116.065201,23.1064372 116.331542,21.743288 L112.503368,21.743288 L112.503368,18.0227212 L121.056865,18.0227212 C121.500979,21.910216 120.724258,24.9938696 118.727974,27.273618 Z" id="Path" fill="#324598" fill-rule="nonzero"></path>
                <path d="M138.246693,15.0217312 C137.34827,14.31797 136.39951,13.7762064 135.401049,13.3964405 C134.403226,13.0166104 133.437262,12.8270796 132.505706,12.8262472 C131.57415,12.8262472 130.603088,13.0166104 129.593796,13.3964405 C128.583866,13.7762064 127.630009,14.31797 126.731586,15.0217312 C125.833162,15.7254284 125.095309,16.6695608 124.518661,17.8540644 C123.941377,19.038632 123.652734,20.3567036 123.652734,21.8092396 C123.652734,23.2617116 123.941377,24.5748528 124.518661,25.7477028 C125.095309,26.9213852 125.838897,27.8538 126.748152,28.546676 C127.657407,29.239488 128.611265,29.769598 129.610362,30.1385428 C130.608185,30.5075516 131.57415,30.692024 132.505706,30.692024 C133.437262,30.692024 134.401952,30.5075516 135.401049,30.1385428 C136.39951,29.7704304 137.34827,29.239488 138.246693,28.546676 C139.145116,27.8538 139.88297,26.9205528 140.459617,25.7477028 C141.036902,24.5748528 141.324907,23.2617116 141.324907,21.8092396 C141.324907,20.3567036 141.036902,19.038632 140.459617,17.8540644 C139.88297,16.6695608 139.145116,15.7254284 138.246693,15.0217312 Z M128.411828,21.8092396 C128.411828,20.2899196 128.822171,19.0945308 129.643496,18.2230732 C130.464183,17.3515516 131.418041,16.9158228 132.505706,16.9158228 C133.570433,16.9158228 134.514096,17.3515516 135.334783,18.2230732 C136.156107,19.0945308 136.566451,20.2899196 136.566451,21.8092396 C136.566451,23.2842504 136.15547,24.4462792 135.334783,25.295198 C134.514096,26.1441808 133.570433,26.5690884 132.505706,26.5690884 C131.418041,26.5690884 130.464183,26.1441808 129.643496,25.295198 C128.822171,24.4462792 128.411828,23.2842504 128.411828,21.8092396 Z" id="Shape" fill="#324598"></path>
                <polygon id="Path" fill="#324598" fill-rule="nonzero" points="150.980725 30.4574156 150.214835 30.4574156 141.195559 13.028264 146.221631 13.028264 150.581213 22.6481696 154.941432 13.028264 160 13.028264"></polygon>
                <path d="M77.3756638,14.7654164 C78.6920766,16.0576836 79.350283,18.0736256 79.350283,20.812538 L79.350283,30.2228712 L75.1066677,30.2228712 L75.1066677,20.845898 C75.1066677,19.4543192 74.7664139,18.36663 74.0859062,17.581934 C73.4060357,16.7980704 72.5394717,16.4057544 71.4868512,16.4057544 C70.3462999,16.4057544 69.4083718,16.7814224 68.6730666,17.5326944 C67.9390359,18.2839664 67.4178231,19.2448108 67.1107026,20.4151636 L67.1107026,30.2228712 L62.8668962,30.2228712 L62.8668962,20.845898 C62.8668962,19.4543192 62.5270884,18.36663 61.846517,17.581934 C61.1660093,16.797238 60.2782909,16.4057544 59.1816413,16.4057544 C56.9005388,16.4057544 55.4640814,17.7422028 54.871377,20.4151636 L54.871377,30.2228712 L50.6274432,30.2228712 L50.6274432,12.9924068 L54.871377,12.9924068 L54.871377,16.505066 C54.9807807,15.7095488 55.485618,14.898152 56.3849331,14.0692108 C57.284312,13.241166 58.4903653,12.8262472 60.0039214,12.8262472 C61.3856451,12.8262472 62.6414621,13.1467848 63.771245,13.7870916 C64.9009642,14.4273344 65.7611565,15.4107176 66.3543706,16.7363448 C66.7048193,15.7646792 67.4018936,14.8697864 68.443682,14.0525628 C69.4854705,13.2352752 70.829282,12.8262472 72.4738422,12.8262472 C74.4255229,12.8270796 76.0598882,13.4732132 77.3756638,14.7654164 Z" id="Path" fill="#4067AD" fill-rule="nonzero"></path>
                <polygon id="Path" fill="#4067AD" fill-rule="nonzero" points="97.4519146 12.9924068 87.9757815 36.518752 83.862788 36.518752 86.5606059 29.7587768 79.3553804 12.9924068 83.5008701 12.9924068 88.5677212 24.7885232 93.3057878 12.9924068"></polygon>
                <path d="M3.15088231,21.10471 C4.24751278,21.5245592 5.34579355,21.9411428 6.44325235,22.3593272 C6.56508106,22.4060696 6.67945478,22.4077344 6.80051888,22.344344 C7.10470836,22.1848436 7.41386783,22.0329628 7.72143436,21.8801856 C9.34770752,21.0746156 10.974809,20.2690456 12.6010822,19.4635396 C12.6657559,19.4317804 12.7743313,19.4342776 12.7718463,19.3399604 C12.7701896,19.2498052 12.6649276,19.2439784 12.5977688,19.213948 C10.7750533,18.4025512 8.950681,17.5928192 7.12790169,16.7814224 C6.46644568,16.4867532 5.80665908,16.1895228 5.14603141,15.8931888 C5.15349278,15.8681528 5.16178249,15.8439492 5.16924386,15.8189132 C5.29440502,15.858164 5.42039452,15.8940212 5.54389901,15.937434 C6.23768551,16.1803664 6.92897426,16.429958 7.62362732,16.6687284 C9.04103305,17.1553616 10.4609238,17.6337348 11.8783295,18.120368 C12.2032273,18.2322296 12.5273605,18.3440912 12.8522583,18.4567852 C13.0710658,17.3365044 13.7607488,16.3431324 14.7611843,15.7612856 L17.1550676,14.3697708 C16.4016028,14.0892524 15.6497948,13.804636 14.8979867,13.5182908 C12.3283694,12.5390696 9.75964405,11.5582476 7.19174707,10.5756968 C6.94719759,10.482212 6.7093385,10.4797148 6.46810235,10.5815877 C4.68433754,11.3395188 2.89641195,12.0891901 1.11677606,12.857174 C0.221570766,13.2436632 -0.251728056,14.3872512 0.137023422,15.2813116 C0.94436804,17.1378812 1.88847686,18.9301 2.74058334,20.766628 C2.82429598,20.9452096 2.97930262,21.0387584 3.15088231,21.10471 Z" id="Path" fill="#34479A" fill-rule="nonzero"></path>
                <path d="M11.1406031,11.0590644 C11.2094185,11.2135064 11.3063972,11.2952736 11.4638443,11.3495716 C13.5112293,12.0582632 15.5569577,12.7728456 17.6026861,13.4848668 C17.6714378,13.5091345 17.7518499,13.5658656 17.8165236,13.4982492 C17.8820256,13.4281356 17.7974719,13.3563572 17.7875319,13.2845788 C17.7824982,13.2469928 17.7667599,13.2102392 17.7526782,13.1752144 C17.1658359,11.6525648 16.5773369,10.1308117 15.9904309,8.60816204 C15.6390265,7.69662126 15.2908716,6.78418404 14.9402317,5.87179165 C14.9601754,5.86260965 14.9800554,5.85426005 15.0007638,5.84507805 C15.1607595,6.18065645 15.3182066,6.51788044 15.4806874,6.85263284 C16.4745599,8.89783684 17.4700254,10.9422085 18.4630696,12.9881808 C18.5409966,13.149346 18.61886,13.3112796 18.6976153,13.4723808 L20.3463172,12.5140336 C21.5017785,11.8420957 22.9208409,11.805342 24.1053575,12.402172 C23.6817606,11.4655952 23.2598841,10.528122 22.8387721,9.59071285 C21.8872083,7.47289805 20.9364728,5.35423165 19.9890507,3.23475205 C19.8887586,3.01103525 19.7387029,2.85743205 19.5140971,2.76561205 C17.7286565,2.03602085 15.9473576,1.29474405 14.1577753,0.576007335 C13.1050911,0.153613575 11.9703382,0.673678456 11.59402,1.74384885 C10.9731524,3.50939245 10.3780267,5.28411165 9.75053239,7.04799045 C9.617107,7.42282606 9.63284534,7.74669325 9.79698277,8.09892603 C10.2553697,9.07981204 10.6987829,10.069022 11.1406031,11.0590644 Z" id="Path" fill="#34479A" fill-rule="nonzero"></path>
                <path d="M25.2898104,12.6634812 C25.3288058,12.7435836 25.3304625,12.8796488 25.4498062,12.8754868 C25.5616949,12.8721572 25.5757766,12.7427512 25.6122869,12.6593192 C26.369065,10.93715 27.1225297,9.21254765 27.8784794,7.48954603 C28.1934373,6.77246643 28.5125367,6.05709644 28.8300433,5.34169444 C28.8416399,5.46357044 28.8118199,5.57125724 28.7761379,5.67644044 C28.4197634,6.72156203 28.0616685,7.76673485 27.704402,8.81101124 C27.1656031,10.3878948 26.6268041,11.9656108 26.0880689,13.5433268 L29.9001225,15.7596208 C30.207689,15.9382664 30.4853081,16.1553304 30.7290292,16.4032572 C30.86666,16.0325836 31.0042271,15.661974 31.1434508,15.2921328 C32.1381516,12.6500988 33.1361658,10.0097296 34.1316313,7.36852804 C34.23358,7.09806244 34.3081938,6.84008283 34.17891,6.53708964 C33.4883986,4.91178604 32.800436,3.28482404 32.1447783,1.64449885 C31.8240222,0.842284047 31.3788886,0.210362048 30.4961401,0 C30.2482773,0 29.9995862,0 29.7517871,0 C29.4458772,0.134397968 29.1358894,0.259613808 28.8358416,0.404028607 C27.4242342,1.08436485 26.0117985,1.76303244 24.6076461,2.45923164 C24.2089629,2.65624125 23.7787393,2.79481004 23.6054902,3.32155204 C23.2665107,4.35165844 22.8611371,5.35922604 22.472394,6.37182645 C22.397844,6.56712003 22.3995006,6.72738883 22.4923377,6.91775204 C23.4281632,8.83188524 24.3564699,10.749348 25.2898104,12.6634812 Z" id="Path" fill="#34479A" fill-rule="nonzero"></path>
                <path d="M33.2613079,11.8337076 C32.6471306,13.6651772 32.0221213,15.4933172 31.402974,17.323122 C31.4966393,17.4976056 31.577816,17.6787484 31.6449747,17.865718 C32.3868428,17.5743784 33.1253975,17.2747148 33.8680939,16.98504 C35.0235551,16.534264 36.1806731,16.08765 37.338683,15.6435972 C37.6975425,15.5058672 38.0440407,15.3272216 38.4336122,15.2420608 C38.4278139,15.3497604 38.3548568,15.344766 38.3092985,15.3673048 C37.1355502,15.9440932 35.960209,16.5167836 34.7873527,17.0944044 C33.8001068,17.5802692 32.8129247,18.0677348 31.8256788,18.554432 C31.8629538,18.7731608 31.8837259,18.9960516 31.8837259,19.2214396 L31.8837259,24.5046752 C32.4780232,24.23088 33.0723205,23.9579172 33.6683381,23.6866192 C35.336028,22.9269592 37.0046098,22.1697964 38.6723634,21.4118652 C39.5758201,21.0011084 40.4785123,20.5879184 41.3828611,20.1805552 C41.6472269,20.061202 41.8312443,19.885886 41.9398197,19.6028704 C42.2283346,18.8515984 42.539979,18.1086504 42.8408552,17.3623728 C43.256105,16.3305824 43.674732,15.2996884 44.0841835,14.2654008 C44.4920421,13.2344428 43.9814064,12.0624252 42.9610272,11.6834276 C42.4786187,11.5039496 41.9920684,11.333692 41.5055182,11.1658676 C40.2522499,10.7351332 38.9956045,10.3143876 37.7580746,9.84024042 C37.366018,9.69002444 36.9963265,9.67414483 36.5835616,9.88615042 C35.7181445,10.3310996 34.8287694,10.7334684 33.9252489,11.0924244 C33.5439607,11.2427044 33.3790587,11.4805784 33.2613079,11.8337076 Z" id="Path" fill="#34479A" fill-rule="nonzero"></path>
                <path d="M11.3718355,33.14203 C11.9869049,31.2905188 12.6226826,29.4464992 13.2509415,27.59915 C13.1680445,27.4438756 13.0959795,27.2836068 13.0346191,27.1183436 C11.7664408,27.6100352 10.4981988,28.1008304 9.23084881,28.5950192 C8.04964551,29.0550156 6.86933426,29.5174452 5.68813096,29.978274 C5.68232625,29.9607296 5.67734988,29.9431852 5.67155155,29.9256408 C7.04251964,29.252038 8.4135387,28.5783712 9.78449405,27.903872 C10.8023883,27.403024 11.8202825,26.9012796 12.839005,26.3995992 C12.8000096,26.175876 12.7776446,25.9471584 12.7776446,25.7159436 L12.7776446,20.4802188 C12.3416864,20.6805708 11.9056645,20.8809228 11.4696426,21.07961 C8.74837652,22.3184116 6.02880533,23.5613752 3.30339759,24.7893556 C2.97764596,24.936242 2.79114353,25.157468 2.6668107,25.4780056 C2.39244759,26.1850324 2.10067674,26.885464 1.81636089,27.5883288 C1.40274221,28.6117312 0.976692155,29.6301392 0.57799558,30.6594324 C0.142826215,31.7822104 0.646792484,32.9149772 1.74922129,33.3056284 C3.51311247,33.9317204 5.28363032,34.5386032 7.04583297,35.1680248 C7.38901784,35.2907716 7.68575231,35.2556828 8.00740051,35.1029056 C8.88849228,34.686386 9.77124072,34.2722996 10.6689629,33.8958632 C11.0369977,33.7414212 11.2458652,33.52186 11.3718355,33.14203 Z" id="Path" fill="#34479A" fill-rule="nonzero"></path>
                <path d="M33.5431324,33.99351 C33.4502953,33.7815044 33.3068662,33.659654 33.0922005,33.59287 C32.7009723,33.4701232 32.3122291,33.3398848 31.9251425,33.204652 C30.325376,32.645408 28.7264379,32.0827704 27.1258431,31.5234624 C27.0396327,31.493368 26.935199,31.4341396 26.8581002,31.5201328 C26.7925982,31.5927436 26.8456752,31.6845636 26.8763236,31.764666 C27.090161,32.3189796 27.3057188,32.8716284 27.5178996,33.425878 C28.0740935,34.8759168 28.6294592,36.3258916 29.1856531,37.7758664 C29.3141085,38.1114512 29.4433922,38.4462036 29.5719113,38.7817884 C29.5494826,38.78928 29.5271176,38.797668 29.5047526,38.8051596 C29.4782459,38.75592 29.4500189,38.7083452 29.4259972,38.6573768 C29.1565977,38.0955716 28.8954816,37.528772 28.6170342,36.9728576 C27.9091278,35.55874 27.2360751,34.127078 26.5397654,32.7071336 C26.3391813,32.2972732 26.1402539,31.8865804 25.9413264,31.47672 L24.3133966,32.4233496 C23.7016406,32.778912 23.0153346,32.9567252 22.3298569,32.9567252 C21.6990492,32.9567252 21.0682416,32.804012 20.4946526,32.503452 C21.1859923,34.0294312 21.8698133,35.5579076 22.5569477,37.0855516 C23.2333137,38.588928 23.9196834,40.0882064 24.5819677,41.598306 C24.7187065,41.9105196 24.8977539,42.1208604 25.2151967,42.249434 C26.9467956,42.950634 28.6717042,43.6693784 30.4015827,44.373908 C31.5255673,44.8313432 32.6827489,44.3689136 33.1071105,43.1225564 C33.7031281,41.3712532 34.3115071,39.624048 34.9140877,37.875242 C35.0102381,37.5963884 35.0368085,37.3300848 34.9033194,37.0396416 C34.4383058,36.0295576 33.9890943,35.011982 33.5431324,33.99351 Z" id="Path" fill="#34479A" fill-rule="nonzero"></path>
                <path d="M44.6403774,30.1001244 C44.5450554,29.4507252 44.1778489,28.9089616 43.9043077,28.3312768 C43.28841,27.0323504 42.6717478,25.733488 42.0508801,24.4370588 C41.9265664,24.1783108 41.7914206,23.9403728 41.4830895,23.8285112 C40.552234,23.4895968 39.6246918,23.137364 38.7071534,22.761696 C38.2429681,22.5713328 37.8152296,22.515434 37.385898,22.8259828 C37.2706323,22.9094148 37.1405202,22.9737016 37.0120648,23.0363236 C35.3327146,23.8586056 33.6525361,24.6799912 31.9723575,25.5005444 C31.9441942,25.5147592 31.9101688,25.524748 31.8828338,25.5406276 L31.8828338,25.712614 C31.9085122,25.7275972 31.9400525,25.73765 31.9665592,25.750136 C32.2608087,25.8862012 32.5542298,26.0223304 32.8509643,26.1541696 C34.2725754,26.785256 35.6957795,27.4130128 37.1164985,28.045764 C37.6428088,28.2803724 38.1642127,28.5249696 38.7071534,28.7737288 C38.5960293,28.8630516 38.5281059,28.8104184 38.4592906,28.7870472 C36.6481716,28.1651812 34.8362244,27.5440836 33.0258701,26.918824 C32.6189035,26.7785968 32.211937,26.6383696 31.8057351,26.49731 C31.5836143,27.6108676 30.8948233,28.596748 29.8992941,29.1760336 L27.4035259,30.6277372 C28.8009879,31.1536212 30.1985136,31.6786728 31.5943827,32.2087828 C33.4660336,32.9183068 35.3343713,33.6353864 37.2068506,34.3416448 C37.4969584,34.4509452 37.7920362,34.5929012 38.1177624,34.4551712 C38.4253289,34.3249328 38.736145,34.2030184 39.0436479,34.072844 C40.2646112,33.555284 41.4855745,33.0385564 42.7048811,32.516002 C43.168238,32.3173148 43.6614149,32.1628728 44.0393898,31.8097436 C44.5309737,31.3498112 44.7390128,30.7696292 44.6403774,30.1001244 Z" id="Path" fill="#34479A" fill-rule="nonzero"></path>
                <path d="M19.3267663,32.2288244 C19.295226,32.1628728 19.2811443,32.0601676 19.1891356,32.0643936 C19.1037535,32.0685556 19.0847019,32.1645376 19.0540535,32.2338188 C18.1099447,34.3867224 17.1666642,36.5403944 16.2217271,38.693298 C16.1147446,38.9370628 16.0003709,39.1766016 15.8893105,39.4187016 C16.1669934,38.4536952 16.4869212,37.5095628 16.8085694,36.5654304 C17.39624,34.840828 17.9830823,33.1161616 18.5724733,31.3923916 L14.7611843,29.1760976 C14.4470548,28.993226 14.1635737,28.7695028 13.9157109,28.5140844 C12.7693613,31.5751992 11.6246684,34.6371464 10.4716921,37.695764 C10.3613963,37.987872 10.3721647,38.2475164 10.4907438,38.5288032 C11.1737364,40.1466024 11.8724675,41.7585748 12.5165285,43.3921896 C12.8356917,44.2010892 13.3189286,44.774612 14.1685437,45 C14.3782394,45 14.5887635,45 14.798523,45 C14.9617684,44.9465344 15.1325325,44.9106772 15.2859016,44.83717 C17.0489135,43.9840252 18.8086757,43.1250536 20.5692663,42.2677468 C20.7781337,42.165938 20.9115591,42.0040044 20.9927995,41.7852756 C21.3907181,40.7142344 21.7927146,39.644922 22.1980245,38.5772744 C22.2602132,38.4144444 22.2618699,38.2658932 22.1839428,38.1064568 C21.2315507,36.147246 20.2799868,34.1872028 19.3267663,32.2288244 Z" id="Path" fill="#34479A" fill-rule="nonzero"></path>
                <path d="M20.6753567,25.9071392 L16.3104225,28.4448032 L20.6778417,30.984196 C21.7023626,31.5793612 22.9639779,31.5793612 23.9884351,30.984196 L28.353433,28.446468 L23.9859501,25.9071392 C22.9614929,25.31191 21.6998776,25.31191 20.6753567,25.9071392 Z" id="Path" fill="#4067AD" fill-rule="nonzero"></path>
                <path d="M28.8283866,16.76804 L23.9859501,13.9523548 C22.9614929,13.3571896 21.6998776,13.3571896 20.6753567,13.9523548 L15.8329839,16.76804 C14.808463,17.3632052 14.1776553,18.4642768 14.1776553,19.6555036 L14.1776553,25.286874 C14.1776553,25.3461664 14.179312,25.4045624 14.1826253,25.4630224 C14.2415007,24.3402444 14.8589913,23.3185068 15.8329839,22.7524756 L20.6753567,19.9368544 C21.6998776,19.3416252 22.9614929,19.3416252 23.9859501,19.9368544 L28.8283866,22.7524756 C29.8014871,23.3185068 30.4198698,24.3410768 30.4786814,25.4630224 C30.4819948,25.4045624 30.4836514,25.3461664 30.4836514,25.286874 L30.4836514,19.6555036 C30.4828231,18.4642768 29.8520791,17.3640376 28.8283866,16.76804 Z" id="Path" fill="#324598" fill-rule="nonzero"></path>
                <path d="M15.8354689,28.1685108 L16.3104225,28.4448032 L20.6753567,25.9071392 C21.6998776,25.31191 22.9614292,25.31191 23.9851217,25.9071392 L28.352541,28.446468 L28.8300433,28.1685108 C29.7874054,27.6117 30.4007544,26.6133336 30.4770248,25.512262 C30.4795098,25.4763408 30.4795098,25.4396512 30.4770248,25.40373 C30.4015827,24.3026584 29.7882338,23.304292 28.8300433,22.7474812 L23.9876067,19.931796 C22.9630859,19.3366308 21.7015342,19.3366308 20.6770134,19.931796 L15.8346405,22.7474812 C14.8614763,23.3134484 14.2431574,24.3360824 14.184282,25.458028 C14.2448141,26.5799096 14.8623047,27.6025436 15.8354689,28.1685108 Z" id="Path" fill="#3457A7" fill-rule="nonzero"></path>
            </g>
        </g>
    </g>
</svg>