<svg xmlns="http://www.w3.org/2000/svg" viewBox="0 0 18.79 18.79"><defs>
<style>.cls-1{fill:#208dc6;}.cls-2,.cls-3{fill:#2e5c99;}.cls-3{fill-rule:evenodd;}</style>
</defs>
<title>rihis</title>
<g id="Layer_2" data-name="Layer 2">
<g id="Layer_1-2" data-name="Layer 1">
<g id="_Group_" data-name="&lt;Group&gt;">

<path id="_Compound_Path_24" data-name="&lt;Compound Path&gt;" class="cls-3" d="M7.23,3.8l1,.1,0-2H8.11Zm-.4.9A.43.43,0,0,1,7,5a.38.38,0,0,1,0,.19l.92.92A.77.77,0,0,1,8.22,6l0-1.79L7.11,4.06Zm.84-3.05L5.6,3.37a.65.65,0,0,1,.08.28L7,3.78l.9-2Zm-4,4.87.2-.29a.55.55,0,0,1-.17-.41.58.58,0,0,1,.59-.59.59.59,0,0,1,.5.28L6.1,5V5a.41.41,0,0,1,.05-.19l-.79-.53A.7.7,0,0,1,5,4.38a.68.68,0,0,1-.55-.26L1.85,5a.91.91,0,0,1,0,.17,1.26,1.26,0,0,1-.05.33ZM2.91,7.61l.6-.87-1.83-1a.86.86,0,0,1-.13.14ZM2.06,8.82l.69-1L1.32,6l-.08,0,.67,2.72A.44.44,0,0,1,2.06,8.82Zm.86-.76L2.28,9l.08.1.78-.25a.25.25,0,0,1,0-.08.43.43,0,0,1,.1-.28Zm.83-1.19-.67,1,.39.49h.08a.44.44,0,0,1,.39.24l1.24-.41V8.07a.91.91,0,0,1,.08-.37ZM13.82,11l1.4,1.88.14-.06-.47-2.64a.72.72,0,0,1-.38-.13Zm-.47-.63.3.41.67-.92-.06-.11-.82.33v0A.44.44,0,0,1,13.35,10.35Zm1.33-5-2.13.29.41.93,1.77-1A1.33,1.33,0,0,1,14.68,5.33ZM12.73,6.69l-.45-1-.57.08a.43.43,0,0,1-.39.31L11,7.35a.68.68,0,0,1,.27.21ZM13.49,11l-.36-.49-.11,0a.43.43,0,0,1-.36-.2l-1.29.34v.07a.82.82,0,0,1,0,.28l1.52.88ZM15,13l-1.34-1.81-.59.81,1.87,1.07ZM12.18,4a.77.77,0,0,1-.21.23l.47,1.1,2.23-.3a1.16,1.16,0,0,1,0-.18Zm1.15,3.13a.58.58,0,0,1,.59.59.6.6,0,0,1-.54.59l-.21,1.35a.3.3,0,0,1,.17.12l.86-.34v0a.71.71,0,0,1,.68-.7l.44-2.69a1,1,0,0,1-.45-.31l-1.8,1,.16.37ZM11.61,4.38l-.09.89a.34.34,0,0,1,.17.2l.48-.07-.45-1ZM9,1.45l2.1,1.68A.72.72,0,0,1,11.57,3a.7.7,0,0,1,.7.7.38.38,0,0,1,0,.1l2.57.86a.92.92,0,0,1,.77-.4.93.93,0,0,1,0,1.86h0l-.43,2.7a.7.7,0,0,1,0,1.31l.47,2.65h0a.93.93,0,1,1-.83,1.35l-2.63.82a.78.78,0,0,1,0,.21.71.71,0,0,1-.71.7.69.69,0,0,1-.49-.21l-2,1.74a1,1,0,0,1,.13.49.93.93,0,0,1-1.86,0,.91.91,0,0,1,.17-.54l-2-1.64a.68.68,0,0,1-.44.16.71.71,0,0,1-.7-.7.41.41,0,0,1,0-.11l-2.64-.95a1,1,0,0,1-.81.47.93.93,0,1,1,0-1.86H1l.42-2.63a.7.7,0,0,1,.21-1.29L1,6.1h0a.93.93,0,0,1,0-1.86.92.92,0,0,1,.83.5L4.3,3.87a.58.58,0,0,1,0-.19.69.69,0,0,1,1.16-.52L7.49,1.44A.88.88,0,0,1,7.33.93.94.94,0,0,1,9.2.93.94.94,0,0,1,9,1.45Zm2.21,3.76.09-.86a.72.72,0,0,1-.47-.67A.68.68,0,0,1,11,3.33L8.86,1.65a.91.91,0,0,1-.42.2l0,2.08.45,0a.59.59,0,0,1,1.15.2.54.54,0,0,1-.06.25l1.07.85A.39.39,0,0,1,11.25,5.21ZM4.1,13.39l-2.22.26a.57.57,0,0,1,0,.18l2.64.95a.65.65,0,0,1,.15-.18Zm.83-.1-.55.06.5,1.12.1,0,.13-1A.39.39,0,0,1,4.93,13.29Zm-1.34-1L1.82,13.3l0,.08L4,13.13Zm1.72.43.23-1.28a1.26,1.26,0,0,1-.2-.2l-1.51.91.44,1L4.88,13a.43.43,0,0,1,.42-.35Zm-2.2-2.26L3.33,9.1l-.06,0-.81.27a.62.62,0,0,1,0,.13.7.7,0,0,1-.7.71H1.68l-.42,2.59a1,1,0,0,1,.43.32L3.48,12l-.18-.42H3.19A.58.58,0,0,1,2.6,11,.59.59,0,0,1,3.11,10.41Zm5,6.52,0-2.1-.41,0a.59.59,0,0,1-1.15-.19.57.57,0,0,1,.08-.29l-1.1-.86a.34.34,0,0,1-.15.06l-.13,1a.7.7,0,0,1,.54.68.77.77,0,0,1-.08.34l2,1.64A1,1,0,0,1,8.13,16.93Zm1.44-2.22.23-.53a.42.42,0,0,1-.16-.33.47.47,0,0,1,0-.17l-1-1a.79.79,0,0,1-.31.13l0,1.82ZM8.59,17l.87-2-1.08-.11v2.08A.65.65,0,0,1,8.59,17Zm1.15-2-.92,2.12,0,0,2-1.75a.63.63,0,0,1-.06-.27v0ZM8.21,11.18A.8.8,0,0,1,9,12a.82.82,0,0,1-.15.47l1,1a.39.39,0,0,1,.21-.06.45.45,0,0,1,.33.15l1.25-.51a.28.28,0,0,1,0-.09.59.59,0,0,1,.59-.59.85.85,0,0,1,.23,0l.23-.32-1.49-.87a.79.79,0,1,1,.11-.84l1.3-.34a.41.41,0,0,1,.3-.37l.21-1.38a.59.59,0,0,1-.13-1l-.15-.34-1.45.85a.87.87,0,0,1,0,.28.8.8,0,1,1-.8-.8h.08L11.06,6a.44.44,0,0,1-.18-.35.39.39,0,0,1,0-.15L9.83,4.63a.56.56,0,0,1-.36.12.58.58,0,0,1-.58-.51l-.42,0L8.49,6a.8.8,0,1,1-1,.77.75.75,0,0,1,.15-.47l-.92-.92a.37.37,0,0,1-.18,0,.41.41,0,0,1-.33-.16l-1.33.51v.05a.59.59,0,0,1-.58.59.58.58,0,0,1-.19,0l-.2.27,1.53.84A.76.76,0,0,1,6,7.27a.8.8,0,1,1,0,1.6.82.82,0,0,1-.73-.47L4,8.82a.44.44,0,0,1-.37.34l-.22,1.28a.58.58,0,0,1,.39.55.57.57,0,0,1-.23.47l.18.39,1.5-.9a.85.85,0,0,1,0-.23.8.8,0,1,1,.8.8.58.58,0,0,1-.19,0l-.23,1.26a.45.45,0,0,1,.15.33.32.32,0,0,1,0,.14l1.11.88a.64.64,0,0,1,.33-.1.59.59,0,0,1,.59.51l.37,0V12.77a.8.8,0,0,1,.12-1.59ZM11,14.7l-.69-.5a.37.37,0,0,1-.23.07h0l-.2.47,1,.1A.67.67,0,0,1,11,14.7Zm-.52-.7.74.52a.7.7,0,0,1,.86.17l2.68-.84a.88.88,0,0,1,0-.16.91.91,0,0,1,.08-.37l-1.88-1.09-.26.35a.61.61,0,0,1,.15.39.59.59,0,0,1-1.07.34l-1.25.51v0A.4.4,0,0,1,10.46,14ZM6.53,4.57h.06L6.83,4,5.64,3.91a.56.56,0,0,1-.09.17l.79.53A.41.41,0,0,1,6.53,4.57Z"/>
</g>
</g>
</g>
</svg>